<svg xmlns="http://www.w3.org/2000/svg" width="18.58" height="14.624" viewBox="0 0 18.58 14.624">
  <g id="camera" transform="translate(0 -44.8)">
    <g id="Group_6805" data-name="Group 6805" transform="translate(0 44.8)">
      <g id="Group_6804" data-name="Group 6804" transform="translate(0 0)">
        <path id="Path_13463" data-name="Path 13463" d="M17.962,47.078A2,2,0,0,0,16.5,46.46H13.564v-.035a1.586,1.586,0,0,0-.477-1.148,1.616,1.616,0,0,0-1.148-.477h-5.3A1.628,1.628,0,0,0,5,46.425v.035H2.084a2,2,0,0,0-1.466.618A2.1,2.1,0,0,0,0,48.544v8.8a2,2,0,0,0,.618,1.466,2.1,2.1,0,0,0,1.466.618H16.5a2,2,0,0,0,1.466-.618,2.1,2.1,0,0,0,.618-1.466v-8.8A2,2,0,0,0,17.962,47.078Zm-.3,10.261h-.018A1.146,1.146,0,0,1,16.5,58.488H2.084A1.146,1.146,0,0,1,.936,57.34v-8.8A1.146,1.146,0,0,1,2.084,47.4H5.493a.475.475,0,0,0,.477-.477v-.512a.665.665,0,0,1,.689-.689h5.281a.665.665,0,0,1,.689.689v.512a.475.475,0,0,0,.477.477h3.409a1.146,1.146,0,0,1,1.148,1.148Z" transform="translate(0 -44.8)" fill="#a2a2a2"/>
        <path id="Path_13464" data-name="Path 13464" d="M116.345,130.8a4.342,4.342,0,1,0,3.073,1.272A4.352,4.352,0,0,0,116.345,130.8Zm2.4,6.764a3.411,3.411,0,0,1-4.8,0,3.376,3.376,0,0,1-.989-2.4,3.451,3.451,0,0,1,.989-2.4,3.376,3.376,0,0,1,2.4-.989,3.451,3.451,0,0,1,2.4.989,3.376,3.376,0,0,1,.989,2.4A3.3,3.3,0,0,1,118.747,137.564Z" transform="translate(-107.055 -127.003)" fill="#a2a2a2"/>
        <circle id="Ellipse_346" data-name="Ellipse 346" cx="0.865" cy="0.865" r="0.865" transform="translate(14.712 3.78)" fill="#a2a2a2"/>
      </g>
    </g>
  </g>
</svg>
