<svg xmlns="http://www.w3.org/2000/svg" width="23.162" height="18.178" viewBox="0 0 23.162 18.178">
  <g id="add-user" transform="translate(0 -55.089)">
    <g id="Group_5513" data-name="Group 5513" transform="translate(0 55.089)">
      <g id="Group_5512" data-name="Group 5512" transform="translate(0 0)">
        <path id="Path_9615" data-name="Path 9615" d="M15.927,66.805A7.615,7.615,0,0,0,12.816,64.8a5.571,5.571,0,1,0-7.454,0,7.616,7.616,0,0,0-3.111,2.009A8.092,8.092,0,0,0,0,72.387v.88H18.178v-.88A8.092,8.092,0,0,0,15.927,66.805ZM5.277,60.66a3.811,3.811,0,1,1,3.811,3.811A3.816,3.816,0,0,1,5.277,60.66ZM1.821,71.508A6.068,6.068,0,0,1,7.33,66.23h3.518a6.068,6.068,0,0,1,5.509,5.277Z" transform="translate(0 -55.089)" fill="#fff"/>
      </g>
    </g>
    <g id="Group_5515" data-name="Group 5515" transform="translate(16.125 60.073)">
      <g id="Group_5514" data-name="Group 5514">
        <path id="Path_9616" data-name="Path 9616" d="M360.854,167.9v-2.639h-1.759V167.9h-2.639v1.759h2.639V172.3h1.759v-2.639h2.639V167.9Z" transform="translate(-356.456 -165.266)" fill="#fff"/>
      </g>
    </g>
    <g id="Group_8016" data-name="Group 8016" transform="translate(0 55.089)">
      <g id="Group_5512-2" data-name="Group 5512" transform="translate(0 0)">
        <path id="Path_9615-2" data-name="Path 9615" d="M15.927,66.805A7.615,7.615,0,0,0,12.816,64.8a5.571,5.571,0,1,0-7.454,0,7.616,7.616,0,0,0-3.111,2.009A8.092,8.092,0,0,0,0,72.387v.88H18.178v-.88A8.092,8.092,0,0,0,15.927,66.805ZM5.277,60.66a3.811,3.811,0,1,1,3.811,3.811A3.816,3.816,0,0,1,5.277,60.66ZM1.821,71.508A6.068,6.068,0,0,1,7.33,66.23h3.518a6.068,6.068,0,0,1,5.509,5.277Z" transform="translate(0 -55.089)" fill="#fff"/>
      </g>
    </g>
  </g>
</svg>
