<svg xmlns="http://www.w3.org/2000/svg" xmlns:xlink="http://www.w3.org/1999/xlink" width="40.598" height="40.598" viewBox="0 0 40.598 40.598">
  <defs>
    <filter id="Path_15379" x="0" y="0" width="40.598" height="40.598" filterUnits="userSpaceOnUse">
      <feOffset dy="3" input="SourceAlpha"/>
      <feGaussianBlur stdDeviation="3" result="blur"/>
      <feFlood flood-opacity="0.161"/>
      <feComposite operator="in" in2="blur"/>
      <feComposite in="SourceGraphic"/>
    </filter>
  </defs>
  <g transform="matrix(1, 0, 0, 1, 0, 0)" filter="url(#Path_15379)">
    <path id="Path_15379-2" data-name="Path 15379" d="M9.722,192.876h.654a1.183,1.183,0,0,1,1.107.767q.1.268.219.526a1.185,1.185,0,0,1-.238,1.33l-.464.469a1.19,1.19,0,0,0,0,1.681l1.681,1.681a1.19,1.19,0,0,0,1.681,0l.467-.465a1.185,1.185,0,0,1,1.33-.238q.259.119.526.219a1.184,1.184,0,0,1,.768,1.107v.654a1.189,1.189,0,0,0,1.189,1.189h2.379a1.189,1.189,0,0,0,1.189-1.189v-.654a1.183,1.183,0,0,1,.767-1.107q.268-.1.526-.219a1.185,1.185,0,0,1,1.33.238l.467.465a1.19,1.19,0,0,0,1.681,0l1.681-1.681a1.19,1.19,0,0,0,0-1.681L28.2,195.5a1.185,1.185,0,0,1-.238-1.33q.119-.259.219-.526a1.184,1.184,0,0,1,1.109-.769h.654a1.189,1.189,0,0,0,1.189-1.189v-2.379a1.189,1.189,0,0,0-1.189-1.189h-.654a1.183,1.183,0,0,1-1.107-.767q-.1-.268-.219-.526a1.184,1.184,0,0,1,.238-1.33l.465-.467a1.19,1.19,0,0,0,0-1.681l-1.681-1.681a1.19,1.19,0,0,0-1.681,0l-.467.465a1.185,1.185,0,0,1-1.33.238q-.259-.119-.526-.219a1.184,1.184,0,0,1-.769-1.109v-.654a1.189,1.189,0,0,0-1.189-1.189H18.643a1.189,1.189,0,0,0-1.189,1.189v.654a1.183,1.183,0,0,1-.767,1.107q-.268.1-.526.219a1.185,1.185,0,0,1-1.33-.238l-.469-.464a1.19,1.19,0,0,0-1.681,0L11,183.348a1.19,1.19,0,0,0,0,1.681l.465.467a1.184,1.184,0,0,1,.238,1.33q-.119.259-.219.526a1.183,1.183,0,0,1-1.109.767H9.722a1.189,1.189,0,0,0-1.189,1.189v2.379A1.189,1.189,0,0,0,9.722,192.876Zm8.92-6.987a4.891,4.891,0,0,1,1.189-.149,4.771,4.771,0,0,1,.589.04c.057.007.112.017.167.026.145.023.286.052.426.088.051.013.1.024.153.039a4.636,4.636,0,0,1,.531.187c.021.009.04.02.059.029a4.748,4.748,0,0,1,.442.225c.048.028.1.059.143.086.119.076.238.156.351.241.037.029.077.055.114.085a5.007,5.007,0,0,1,.41.369c.024.025.046.052.07.077q.157.165.3.346c.034.044.068.089.1.135a4.063,4.063,0,0,1,.238.366c.021.036.045.071.066.108a4.766,4.766,0,0,1,.241.5c.016.04.029.081.045.119.052.139.1.28.138.423.015.056.03.112.043.168q.054.233.086.47c0,.035.012.069.016.1a4.766,4.766,0,0,1,.031.521.472.472,0,0,1,0,.071c0,.051-.005.1-.008.153-.007.153-.021.3-.042.453-.01.07-.02.14-.032.21-.02.106-.046.21-.073.314a5.878,5.878,0,0,1-.714,1.7,1.331,1.331,0,0,1-.218.268,6.609,6.609,0,0,1-.982.756l-.077.051c-.086.054-.172.11-.259.158a4.736,4.736,0,0,1-1.145.463l-.071.018a4.779,4.779,0,0,1-.517.1l-.08.012a4.726,4.726,0,0,1-.535.034H19.81c-.135,0-.266-.014-.4-.026-.065-.006-.132-.005-.2-.014a5.2,5.2,0,0,1-.573-.109,4.76,4.76,0,0,1,0-9.218Z" transform="translate(0.47 -173.2)" fill="#fff"/>
  </g>
</svg>
