<svg xmlns="http://www.w3.org/2000/svg" width="100.923" height="100.586" viewBox="0 0 100.923 100.586">
  <g id="Group_7129" data-name="Group 7129" transform="translate(-138.252 -183.146)">
    <g id="Group_5420" data-name="Group 5420" transform="translate(138.252 183.146)">
      <path id="Path_9583" data-name="Path 9583" d="M118.513,126.868a49.69,49.69,0,0,1-99.379,0c0-65.359,99.379-65.359,99.379,0Z" transform="translate(-18.362 -76.741)" fill="#fff" fill-rule="evenodd"/>
      <path id="Path_9584" data-name="Path 9584" d="M118.175,125.754a50.461,50.461,0,0,1-100.923,0c0-23.9,13.091-39.2,29.85-45.892a55.7,55.7,0,0,1,20.611-3.9V75.96a55.745,55.745,0,0,1,20.612,3.9c16.755,6.7,29.85,21.993,29.85,45.892ZM102.3,160.341a48.763,48.763,0,0,0,14.329-34.587c0-23.165-12.665-37.983-28.879-44.463a54.2,54.2,0,0,0-20.037-3.784v0a54.174,54.174,0,0,0-20.037,3.787c-16.214,6.48-28.881,21.3-28.881,44.463a48.915,48.915,0,0,0,83.5,34.587Z" transform="translate(-17.252 -75.626)" fill="#030504"/>
      <path id="Path_9585" data-name="Path 9585" d="M45.631,155.2l.063.006c.183.265.468.668.87,1.2s.709.92.914,1.166l-.011.066-.254.195-.071-.011a3.609,3.609,0,0,0-.375-.417.2.2,0,0,0-.241-.027,11.423,11.423,0,0,0-1.226.845l-2.031,1.53a10.918,10.918,0,0,0-1.149.946.209.209,0,0,0-.046.241,5.176,5.176,0,0,0,.3.474l-.006.071-.265.194-.066-.011c-.17-.255-.454-.656-.862-1.2s-.714-.928-.917-1.16l.008-.066.26-.194.071.011c.213.249.336.383.375.416a.216.216,0,0,0,.241.027,10.963,10.963,0,0,0,1.226-.85l2.031-1.533a11.353,11.353,0,0,0,1.155-.939.2.2,0,0,0,.039-.24,3.349,3.349,0,0,0-.3-.482l.014-.063Zm-9.715-4.1.071.027c.175.271.279.427.312.465a.2.2,0,0,0,.232.052,9.559,9.559,0,0,0,1.338-.662l1.7-.947c1.259-.7,2.072-1.174,2.427-1.42l.071.033c.123.35.216.61.287.786q-.644,1.83-2.487,6.4l2.753-1.525a11.912,11.912,0,0,0,1.272-.772.217.217,0,0,0,.071-.235,4.084,4.084,0,0,0-.227-.511l.019-.066.285-.162.057.02c.164.336.326.643.476.914.181.326.369.643.563.96l-.014.066-.285.156-.066-.019a4.27,4.27,0,0,0-.317-.468.2.2,0,0,0-.235-.058,11.1,11.1,0,0,0-1.33.668l-2.225,1.235a10.379,10.379,0,0,0-1.272.777.2.2,0,0,0-.077.227c.014.047.091.221.228.52l-.014.063-.285.156-.066-.019c-.129-.279-.26-.531-.394-.777-.208-.377-.4-.689-.553-.928q1.186-2.631,2.362-5.952l-2.465,1.363a12.735,12.735,0,0,0-1.273.772.23.23,0,0,0-.076.235c.014.044.09.219.232.512l-.019.065-.285.162-.061-.024c-.161-.321-.317-.625-.473-.909-.2-.364-.388-.682-.563-.961l.014-.066.285-.156Zm1.771-8.078a2.334,2.334,0,0,1,1.475.052,2.366,2.366,0,0,1,1.043.779,3.572,3.572,0,0,1,.618,1.27,4.615,4.615,0,0,1,.1,2.033l-.085.082a7.236,7.236,0,0,0-1.551.306l-.058-.033-.085-.292.033-.057.11-.028c.169-.052.388-.134.668-.251a1.345,1.345,0,0,0,.331-.747,2.06,2.06,0,0,0-.043-.993,1.358,1.358,0,0,0-1-1.081,1.455,1.455,0,0,0-.728.011.92.92,0,0,0-.709.742,2.746,2.746,0,0,0,.022.848,4.268,4.268,0,0,1-.014,1.76,1.6,1.6,0,0,1-1.174.966,2,2,0,0,1-1.694-.2,2.858,2.858,0,0,1-1.13-1.707,3.931,3.931,0,0,1-.156-1.85l.1-.057a8.878,8.878,0,0,0,1.357-.246l.066.038.082.285-.03.066a4.244,4.244,0,0,0-.709.252,1.128,1.128,0,0,0-.232.6,2.239,2.239,0,0,0,.071.838,1.476,1.476,0,0,0,.61.881,1.075,1.075,0,0,0,.9.113.921.921,0,0,0,.676-.611,4.087,4.087,0,0,0-.033-1.267c-.009-.062-.027-.257-.06-.568a2.579,2.579,0,0,1-.011-.54,1.439,1.439,0,0,1,.337-.857,1.84,1.84,0,0,1,.9-.539ZM32,136.626a4.438,4.438,0,0,0,.733-.043l.8-.1.057.038.041.3-.041.061a4.22,4.22,0,0,0-.7.156.326.326,0,0,0-.18.337c0,.066.033.364.11.895l.09.638c.112-.008.553-.066,1.324-.178l2.706-.38a11.076,11.076,0,0,0,1.467-.268.2.2,0,0,0,.148-.186,4.482,4.482,0,0,0-.025-.567l.038-.052.318-.044.052.039c.027.317.085.81.181,1.472s.175,1.168.235,1.461l-.039.052-.326.044-.052-.044a5.253,5.253,0,0,0-.128-.545.206.206,0,0,0-.195-.145,11.41,11.41,0,0,0-1.486.151l-2.7.375c-.785.112-1.226.183-1.324.2l.093.681a5,5,0,0,0,.194.985.2.2,0,0,0,.085.1.9.9,0,0,0,.317.025,4.874,4.874,0,0,0,.525-.025l.052.039.043.3-.043.057-.813.131a5.026,5.026,0,0,0-.7.157l-.052-.039c.009-.2-.076-.878-.238-2.052l-.274-1.932c-.148-1.083-.265-1.765-.337-2.039l.044-.052Zm6.737-4.671.052.047q-.033.475-.033,1.478c0,.67.011,1.163.033,1.486L38.74,135h-.32l-.052-.043a5.632,5.632,0,0,0-.044-.564.217.217,0,0,0-.183-.164,11.213,11.213,0,0,0-1.486-.063H34.112a11.314,11.314,0,0,0-1.492.063.209.209,0,0,0-.175.164,4.535,4.535,0,0,0-.052.564l-.047.043h-.323l-.047-.043c.019-.306.025-.8.025-1.48S32,132.314,31.978,132l.047-.047h.323l.047.047a4.39,4.39,0,0,0,.052.563.2.2,0,0,0,.175.162,11.2,11.2,0,0,0,1.492.066h2.542a11.1,11.1,0,0,0,1.486-.066.207.207,0,0,0,.183-.162,5.445,5.445,0,0,0,.044-.563l.052-.047Zm-5.862-7.747a4.239,4.239,0,0,0,.722.175l.786.137.043.057-.052.3-.052.047a5.649,5.649,0,0,0-.715-.066.328.328,0,0,0-.271.274c-.019.057-.071.356-.156.889l-.1.635c.11.025.553.1,1.316.222l2.7.427a10.91,10.91,0,0,0,1.478.17.2.2,0,0,0,.2-.137c.019-.047.063-.227.137-.545l.057-.041.318.052.038.052c-.071.312-.156.8-.26,1.461s-.175,1.169-.2,1.467l-.052.033-.326-.047-.039-.057a4.179,4.179,0,0,0,.039-.567.2.2,0,0,0-.148-.186,10.269,10.269,0,0,0-1.461-.293l-2.7-.429c-.785-.123-1.22-.186-1.324-.194l-.1.681a5.627,5.627,0,0,0-.109,1,.216.216,0,0,0,.057.112,1.017,1.017,0,0,0,.293.123c.162.044.337.091.511.123l.041.057-.046.3-.057.047-.813-.123a5.074,5.074,0,0,0-.72-.052l-.039-.052c.058-.183.189-.862.369-2.031l.307-1.926a20.669,20.669,0,0,0,.271-2.052l.057-.039Zm3-8.453.027.057c-.137.356-.118.591.052.706a4.95,4.95,0,0,0,.663.318c.257.1.629.254,1.122.443l1.381.531a2.98,2.98,0,0,1,1.7,1.259,2.734,2.734,0,0,1-.005,2.271,3.952,3.952,0,0,1-1.1,1.686,1.659,1.659,0,0,1-1.22.364,11.4,11.4,0,0,1-2.083-.673l-1.155-.443a10.725,10.725,0,0,0-1.415-.479.216.216,0,0,0-.227.09c-.025.038-.109.208-.241.506l-.063.033-.306-.118-.025-.063c.128-.279.317-.741.558-1.371.252-.648.413-1.108.506-1.387l.058-.033.3.118.028.063c-.1.312-.151.5-.156.539a.212.212,0,0,0,.1.222,10.427,10.427,0,0,0,1.368.591l.927.356a8.358,8.358,0,0,0,2.135.643c.578-.008,1.026-.416,1.33-1.215a1.928,1.928,0,0,0,.085-1.374,1.215,1.215,0,0,0-.26-.43,2.457,2.457,0,0,0-.536-.35,7.585,7.585,0,0,0-.728-.323l-.934-.359c-.785-.3-1.324-.506-1.609-.61a2.2,2.2,0,0,0-.547-.148.289.289,0,0,0-.2.1,2.5,2.5,0,0,0-.279.526l-.066.033-.3-.118-.025-.066c.115-.251.227-.512.331-.791.082-.208.227-.611.427-1.2l.066-.025Zm3.4-6.872a5.384,5.384,0,0,0,.611.422l.686.408.019.066-.156.265-.065.019a5.59,5.59,0,0,0-.649-.312.329.329,0,0,0-.35.15c-.039.052-.194.312-.46.777l-.326.558c.1.06.482.287,1.154.676l2.365,1.368a10.751,10.751,0,0,0,1.322.687.215.215,0,0,0,.236-.049c.038-.041.142-.189.323-.463l.066-.019.279.162.019.066c-.175.265-.435.687-.766,1.264-.344.6-.583,1.026-.714,1.3l-.063.011-.279-.162-.019-.066a3.79,3.79,0,0,0,.238-.512.2.2,0,0,0-.071-.227,10.71,10.71,0,0,0-1.258-.8l-2.367-1.368c-.681-.4-1.07-.611-1.163-.654l-.342.6a4.986,4.986,0,0,0-.463.9.259.259,0,0,0,.014.128.914.914,0,0,0,.232.217,4.172,4.172,0,0,0,.43.3l.019.063-.15.268-.071.019-.72-.4a5.337,5.337,0,0,0-.643-.306l-.025-.063a20.482,20.482,0,0,0,1.078-1.765l.971-1.689a20.533,20.533,0,0,0,.994-1.817l.066-.011Zm6.831-8.157a5.643,5.643,0,0,0,.481.553l.572.563.005.071-.213.214-.066.008a6.972,6.972,0,0,0-.558-.463.336.336,0,0,0-.375.066c-.052.039-.268.252-.638.643l-.446.46q.115.127.953.936l1.967,1.9a11.255,11.255,0,0,0,1.108.988.214.214,0,0,0,.246.005c.038-.025.183-.15.421-.369h.071l.227.219.008.074c-.235.214-.586.564-1.051,1.043-.482.5-.813.857-1.007,1.084h-.066l-.232-.227v-.063a3.867,3.867,0,0,0,.35-.443.188.188,0,0,0-.014-.238,10.692,10.692,0,0,0-1.023-1.078l-1.967-1.9c-.569-.55-.889-.857-.971-.914l-.476.492a4.688,4.688,0,0,0-.659.761.212.212,0,0,0-.019.123.781.781,0,0,0,.167.265,5.041,5.041,0,0,0,.351.4v.071l-.214.214-.071.005-.6-.564a5.515,5.515,0,0,0-.553-.454l-.005-.066c.156-.115.643-.6,1.472-1.453l1.349-1.4c.761-.786,1.226-1.3,1.4-1.519Zm8.533-.109a10.823,10.823,0,0,0,.87,1.33l-.006.071L52.7,104.1c-.468.351-.785.6-.966.766l-.071-.014-.08-.1-.011-.066a1.389,1.389,0,0,0,.128-.451,2.19,2.19,0,0,0-.337-.547l-.638-.868-1.467-1.948a10.424,10.424,0,0,0-.946-1.146.2.2,0,0,0-.238-.047,5.239,5.239,0,0,0-.482.3l-.066-.006-.194-.265.014-.06c.266-.181.676-.474,1.212-.881q.723-.546,2.726-2.09h.066l.274.463c.082.147.162.271.224.369l.241.375-.006.071-.222.169-.071-.005c-.26-.35-.427-.533-.506-.553-.057-.014-.213.066-.473.227s-.487.317-.673.46c-.227.17-.443.345-.657.539.175.287.441.668.8,1.149l.6.791c.213-.137.383-.252.506-.351l.5-.383c.235-.181.358-.3.358-.356a1.485,1.485,0,0,0-.312-.577l.014-.071.233-.183.071.014c.207.293.4.558.577.8.194.26.416.536.656.837l-.014.063-.26.194-.066-.011c-.219-.293-.375-.454-.454-.474s-.233.03-.46.167c-.162.1-.337.227-.512.358s-.358.279-.506.413l.882,1.169c.254.337.506.657.752.96l.525-.4a7.012,7.012,0,0,0,1.306-1.122.183.183,0,0,0,.033-.091.749.749,0,0,0-.1-.279l-.266-.55.006-.066.232-.183.071.008Zm7.742-2.5-.019.066c-.468.227-.8.388-.974.487-.161.082-.4.224-.739.427a3.109,3.109,0,0,0-.753-.369l-2.03-.766a7.852,7.852,0,0,0-1.344-.389l.539,1.013a9.683,9.683,0,0,0,.758,1.283.2.2,0,0,0,.227.079,3.677,3.677,0,0,0,.52-.221l.066.019.148.285-.014.066c-.29.137-.734.358-1.322.668q-.915.488-1.291.722l-.066-.014-.156-.293.019-.066c.279-.167.443-.271.481-.3a.217.217,0,0,0,.058-.233,10.183,10.183,0,0,0-.649-1.343l-1.193-2.247A10.1,10.1,0,0,0,53.9,95.7a.208.208,0,0,0-.228-.085c-.046.014-.221.085-.52.222l-.066-.019-.148-.287.019-.063c.279-.123.72-.35,1.316-.67q.928-.485,1.3-.72l.06.019.156.293-.027.057c-.279.175-.435.273-.473.306a.21.21,0,0,0-.057.238,10.739,10.739,0,0,0,.643,1.343l.563,1.051c.266-.771.447-1.335.55-1.7l.274-.941c.09-.323.2-.764.326-1.3l-.156-.3.019-.066a6.277,6.277,0,0,0,.654-.317c.246-.131.533-.293.856-.482l.066.014.137.266-.019.066a1.543,1.543,0,0,0-.643.545A14.594,14.594,0,0,0,57.8,95l-.422,1.272c.208.1.531.238.98.408l1.538.6a10.816,10.816,0,0,0,1.912.657,1.187,1.187,0,0,0,.364-.123l.066.019.148.284Zm6.042-8.272-.041.057c-.309.109-.484.183-.526.2a.219.219,0,0,0-.109.219,11.409,11.409,0,0,0,.35,1.447l.54,1.875c.394,1.382.673,2.285.837,2.687l-.052.057c-.364.047-.638.08-.824.1q-1.637-1.031-5.684-3.861l.867,3.024a10.72,10.72,0,0,0,.468,1.415.214.214,0,0,0,.207.123,5.429,5.429,0,0,0,.559-.109l.057.039.085.312-.033.052c-.356.084-.687.169-.994.26-.356.1-.706.214-1.064.331l-.058-.027-.085-.317.033-.057a4.107,4.107,0,0,0,.526-.2.2.2,0,0,0,.109-.214,11.422,11.422,0,0,0-.351-1.448l-.7-2.446a10.888,10.888,0,0,0-.474-1.415.214.214,0,0,0-.208-.129c-.043.005-.232.039-.55.109l-.057-.033-.093-.31.033-.06c.3-.063.578-.134.843-.208.416-.123.761-.232,1.026-.328q2.307,1.74,5.276,3.64l-.772-2.706a11.945,11.945,0,0,0-.473-1.415.216.216,0,0,0-.208-.128c-.046.005-.235.038-.552.109l-.058-.033-.09-.312.03-.057c.35-.08.681-.162.993-.255.4-.114.753-.227,1.065-.336l.057.033.093.312Zm9.84,2.323a3.705,3.705,0,0,1-1.031,2.783,3.758,3.758,0,0,1-2.742.98,3.514,3.514,0,0,1-2.583-.922,3.463,3.463,0,0,1-.941-2.575,3.262,3.262,0,0,1,1.765-3.2,4.32,4.32,0,0,1,1.978-.408,3.669,3.669,0,0,1,2.608.881,3.226,3.226,0,0,1,.946,2.46Zm-1.477.252a3.848,3.848,0,0,0-.563-2.211,2.038,2.038,0,0,0-3.53.46,4.17,4.17,0,0,0-.241,1.472A4.356,4.356,0,0,0,73,94.492a1.885,1.885,0,0,0,1.7.887,1.8,1.8,0,0,0,1.836-1.349,4.781,4.781,0,0,0,.255-1.609Zm7.7,2.493a10.214,10.214,0,0,0-.323,1.557l-.06.039L80.655,96c-.577-.085-.988-.132-1.226-.146l-.041-.057.019-.137.033-.052a1.5,1.5,0,0,0,.422-.227A2.431,2.431,0,0,0,80,94.758l.169-1.064L80.5,91.28a10.238,10.238,0,0,0,.142-1.486.2.2,0,0,0-.134-.2c-.046-.019-.227-.057-.553-.123l-.038-.052.044-.323.052-.038c.326.063.8.142,1.434.233.657.09,1.155.148,1.5.18l.039.046-.044.331-.052.033a4.852,4.852,0,0,0-.567-.027.2.2,0,0,0-.186.15,11.748,11.748,0,0,0-.274,1.467l-.4,2.849c-.057.413-.109.816-.148,1.212l.649.09a7.413,7.413,0,0,0,1.718.132.129.129,0,0,0,.085-.046.728.728,0,0,0,.131-.266l.2-.577.052-.046.293.038.043.06Zm8.664.611a3.706,3.706,0,0,1-1.844,2.329,3.774,3.774,0,0,1-2.912.085,3.508,3.508,0,0,1-2.167-1.675,3.453,3.453,0,0,1-.1-2.739,3.265,3.265,0,0,1,2.668-2.5,4.387,4.387,0,0,1,2,.227,3.689,3.689,0,0,1,2.214,1.648,3.214,3.214,0,0,1,.137,2.63ZM91.672,95.3a3.938,3.938,0,0,0,.156-2.277,1.872,1.872,0,0,0-1.311-1.286,1.838,1.838,0,0,0-2.2.638,5.083,5.083,0,0,0-.889,3.73,1.877,1.877,0,0,0,1.344,1.368,1.8,1.8,0,0,0,2.167-.715,4.857,4.857,0,0,0,.734-1.458Zm8.667,5.8-.071.025c-.194-.066-.323-.071-.394-.019a5.182,5.182,0,0,0-.558.8c-.143.227-.279.468-.4.7a8.25,8.25,0,0,1-2.789-1.026,3.978,3.978,0,0,1-1.85-2.3,3.329,3.329,0,0,1,.487-2.789A3.2,3.2,0,0,1,98,94.873a4.873,4.873,0,0,1,2.074.8,7.179,7.179,0,0,1,1.234.969,4.729,4.729,0,0,1,.7.81l-.009.1a8.3,8.3,0,0,0-.957,1.135l-.066.011-.246-.148-.014-.071c.033-.052.09-.164.18-.326a2.3,2.3,0,0,0,.175-.369,1.661,1.661,0,0,0-.356-.8,3.239,3.239,0,0,0-.889-.8,2.365,2.365,0,0,0-2.726-.077A3.5,3.5,0,0,0,96.07,97.19a3.4,3.4,0,0,0-.569,2.258,2.36,2.36,0,0,0,1.155,1.8,2.854,2.854,0,0,0,1.174.416c.137-.175.3-.435.512-.766a2.643,2.643,0,0,0,.279-.506c.014-.052-.019-.118-.1-.189a6.906,6.906,0,0,0-.652-.492l-.019-.071.164-.254.063-.011c.391.252.8.517,1.234.783.252.156.629.383,1.128.69l.021.066-.125.194Zm1.689,4.638-.066.005c-.227-.219-.6-.558-1.1-.991s-.875-.752-1.135-.95v-.071l.213-.238.066-.008a5,5,0,0,0,.455.331.2.2,0,0,0,.241-.024,9.77,9.77,0,0,0,1.026-1.084l1.666-1.915a10.53,10.53,0,0,0,.933-1.169.209.209,0,0,0-.005-.238,5.21,5.21,0,0,0-.4-.41v-.063l.216-.246h.064c.216.214.585.545,1.1.99s.889.761,1.13.941l.011.071-.214.246h-.071a4.424,4.424,0,0,0-.454-.331.215.215,0,0,0-.241.027,10.76,10.76,0,0,0-1.023,1.084l-1.669,1.921a11.636,11.636,0,0,0-.934,1.166.2.2,0,0,0,.014.241,4.363,4.363,0,0,0,.389.4l.005.071Zm7.473,5.339a2.046,2.046,0,0,1-2.186.235,2.993,2.993,0,0,1-1.174-.969c-.115-.153-.213-.28-.29-.381l-.69-.922c-.251-.318-.454-.564-.61-.728l.013-.071.1-.085.058-.011a1.667,1.667,0,0,0,.463.123,2.025,2.025,0,0,0,.536-.351l.857-.648,1.921-1.5a10.813,10.813,0,0,0,1.135-.966.2.2,0,0,0,.038-.241c-.019-.046-.123-.2-.3-.473l.005-.066.26-.2.066.005c.156.241.449.629.875,1.179.274.351.526.657.758.928.183.216.34.4.454.553a2.03,2.03,0,0,1,.6,1.765,1.294,1.294,0,0,1-.449.629,1.444,1.444,0,0,1-1.226.28,1.852,1.852,0,0,1-.577-.222,5.12,5.12,0,0,1-.591-.413c.775,1.075.752,1.926-.052,2.548Zm1.371-3.191a.957.957,0,0,0,.156-1.524,3.544,3.544,0,0,0-.416-.468c-.273.194-.52.383-.747.558l-1.046.818c.041.063.132.18.269.356a1.149,1.149,0,0,0,1.141.558,1.644,1.644,0,0,0,.643-.3Zm-2.389,2.129a1.31,1.31,0,0,0,.2-2.085c-.079-.1-.169-.213-.279-.337l-1.751,1.368c-.189.151-.378.3-.547.454a3.449,3.449,0,0,0,.312.454,1.3,1.3,0,0,0,.974.558,1.687,1.687,0,0,0,1.089-.413Zm3.114,9.315-.064-.011c-.33-.637-.525-1.012-.6-1.144-.285-.517-.564-.991-.824-1.426l.019-.06.268-.148.071.019.219.351c.1.148.194.2.293.142a1.731,1.731,0,0,0,.331-.337l.7-.832c-.207-.389-.427-.785-.648-1.193-.123-.213-.3-.539-.553-.966l-.615.1a3.916,3.916,0,0,0-.843.194c-.109.06-.137.164-.085.306.033.077.1.227.208.446l-.019.066-.265.15-.071-.019c-.269-.525-.449-.87-.528-1.012-.064-.118-.233-.4-.5-.843l.014-.066.271-.15.071.027c.175.279.331.422.468.435s.856-.066,2.162-.235l3.352-.422c.26-.038.652-.09,1.169-.161l.331.6-4,5.134c-.155.194-.219.337-.207.421a1.39,1.39,0,0,0,.17.427l-.025.066-.268.148Zm.785-3.919,1.7-2.121-2.679.355c.123.235.279.54.487.9s.364.643.492.862Zm7.558,9.994-.057-.041c-.117-.3-.189-.479-.214-.517a.221.221,0,0,0-.221-.112,12.554,12.554,0,0,0-1.44.378l-1.863.572c-1.382.422-2.269.72-2.671.881l-.065-.043c-.047-.364-.085-.643-.11-.827.668-1.1,1.919-3.024,3.754-5.747l-3,.914a10.5,10.5,0,0,0-1.409.5.205.205,0,0,0-.123.205c0,.052.046.235.123.553l-.033.057-.312.1-.057-.033c-.091-.355-.18-.686-.274-.993q-.164-.525-.356-1.051l.033-.057.312-.1.057.033c.118.3.189.479.214.52a.216.216,0,0,0,.216.109,12.683,12.683,0,0,0,1.445-.375l2.433-.747a11.31,11.31,0,0,0,1.4-.492.213.213,0,0,0,.123-.208,4.665,4.665,0,0,0-.118-.558l.033-.057.312-.093.057.033c.066.293.142.572.222.837.129.416.246.752.342,1.026q-1.7,2.322-3.541,5.333l2.692-.824a11.4,11.4,0,0,0,1.407-.5.212.212,0,0,0,.123-.208c0-.049-.043-.232-.123-.55l.033-.066.312-.09.058.033q.127.517.273.985c.115.4.238.747.351,1.059l-.028.057-.312.1Zm-2.134,9.873a3.67,3.67,0,0,1-2.717-1.017,3.467,3.467,0,0,1-.832-1.246,4.756,4.756,0,0,1-.328-1.842v-1.7a10.933,10.933,0,0,0-.046-1.141l.046-.046.134-.006.06.027c.156.233.246.361.29.375a2.156,2.156,0,0,0,.638.047l1.075-.008,2.441-.044a11.418,11.418,0,0,0,1.486-.085.227.227,0,0,0,.175-.17,4.747,4.747,0,0,0,.038-.564l.047-.046.331-.005.044.046c-.019.342-.019.668-.014.971.014.747.033,1.423.066,2.019.014.3.019.6.027.895a5.193,5.193,0,0,1-.246,1.927,2.482,2.482,0,0,1-.96,1.16,3.329,3.329,0,0,1-1.754.454Zm-.252-1.472a2.941,2.941,0,0,0,2.036-.682,1.8,1.8,0,0,0,.515-.848,4.813,4.813,0,0,0,.115-1.344,4.544,4.544,0,0,0-.076-.857c-.356-.027-1.226-.027-2.6,0l-2.1.044c-.468.014-.78.033-.928.052a4.893,4.893,0,0,0-.052.87,3.314,3.314,0,0,0,.3,1.505,2.143,2.143,0,0,0,1.046.928,3.888,3.888,0,0,0,1.746.331Z" transform="translate(-25.878 -83.218)" fill="#030504"/>
      <path id="Path_9586" data-name="Path 9586" d="M225.927,213.486l-.041-.057c.061-.378-.01-.605-.2-.682a5.951,5.951,0,0,0-.714-.169c-.271-.052-.668-.123-1.188-.2l-1.467-.235a2.961,2.961,0,0,1-1.921-.876,2.755,2.755,0,0,1-.465-2.224,3.812,3.812,0,0,1,.72-1.875,1.643,1.643,0,0,1,1.117-.61,11.574,11.574,0,0,1,2.173.227l1.226.194a10.957,10.957,0,0,0,1.486.17.222.222,0,0,0,.2-.132c.019-.043.063-.227.137-.55l.049-.041.32.052.039.052c-.066.307-.156.793-.26,1.461s-.175,1.174-.2,1.459l-.052.046-.326-.052-.038-.058c.033-.325.044-.514.044-.566a.213.213,0,0,0-.156-.186,10.067,10.067,0,0,0-1.459-.292l-.98-.157a8.5,8.5,0,0,0-2.22-.189c-.572.131-.922.624-1.051,1.467a1.943,1.943,0,0,0,.2,1.363,1.314,1.314,0,0,0,.345.365,2.668,2.668,0,0,0,.6.232c.26.066.52.123.785.169l.988.156c.829.129,1.393.213,1.7.26a2.04,2.04,0,0,0,.564.025.276.276,0,0,0,.175-.142,3.063,3.063,0,0,0,.162-.572l.06-.038.317.052.039.052c-.066.271-.117.55-.162.842-.039.222-.1.644-.175,1.265l-.052.041-.317-.047Zm-3.147,8.864-.027-.066c.09-.318.137-.5.142-.545a.2.2,0,0,0-.109-.213,10.433,10.433,0,0,0-1.377-.572l-1.836-.668c-1.349-.487-2.238-.791-2.665-.9l-.019-.071c.18-.323.317-.564.4-.725,1.2-.481,3.36-1.259,6.469-2.329L220.8,215.18a11.936,11.936,0,0,0-1.423-.454.213.213,0,0,0-.219.1,4.949,4.949,0,0,0-.241.512l-.057.025-.307-.11-.025-.057c.143-.345.271-.663.375-.961.131-.345.247-.7.351-1.051l.06-.033.31.115.027.06a4.325,4.325,0,0,0-.142.545.191.191,0,0,0,.109.214,10.431,10.431,0,0,0,1.377.571l2.386.871a11.183,11.183,0,0,0,1.42.446.21.21,0,0,0,.227-.091c.027-.038.1-.213.241-.511l.06-.028.3.112.025.057c-.123.28-.228.545-.323.8-.151.408-.26.753-.345,1.027-1.836.555-3.853,1.264-6.034,2.126l2.641.96a10.1,10.1,0,0,0,1.42.454.223.223,0,0,0,.227-.09c.027-.046.1-.214.235-.512l.063-.033.306.109.025.066c-.143.331-.265.648-.383.952-.134.383-.257.741-.351,1.059l-.057.025-.3-.109Zm-8.7,5.8-.014-.071c.071-.189.085-.32.033-.4a4.906,4.906,0,0,0-.771-.6c-.221-.156-.449-.3-.682-.435a8.462,8.462,0,0,1,1.174-2.731,3.968,3.968,0,0,1,2.389-1.726,3.37,3.37,0,0,1,2.764.635,3.188,3.188,0,0,1,1.453,3.311,4.944,4.944,0,0,1-.909,2.031,6.963,6.963,0,0,1-1.031,1.179,4.613,4.613,0,0,1-.852.662l-.09-.019a8.321,8.321,0,0,0-1.089-1.012l-.005-.071.161-.233.071-.014c.044.033.156.1.317.2s.285.162.356.194a1.636,1.636,0,0,0,.818-.312,3.391,3.391,0,0,0,.851-.851,2.37,2.37,0,0,0,.219-2.711,3.784,3.784,0,0,0-3.256-1.779,2.379,2.379,0,0,0-1.855,1.059,2.884,2.884,0,0,0-.474,1.149c.17.148.416.331.733.558a3.523,3.523,0,0,0,.493.3c.052.014.118-.019.194-.09a8.134,8.134,0,0,0,.525-.624l.071-.014.246.17.014.071c-.279.377-.564.772-.848,1.193-.169.241-.416.6-.752,1.091l-.066.014-.188-.137Z" transform="translate(-132.525 -152.595)" fill="#030504"/>
      <path id="Path_9587" data-name="Path 9587" d="M110.692,292.654l-.077.043c-.493-.18-1.1-.388-1.823-.61-.7-.214-1.447-.422-2.239-.63l-.041-.077.1-.331.077-.033c.194.033.378.072.553.109a3.176,3.176,0,0,0,.615.093.441.441,0,0,0,.222-.15,11.23,11.23,0,0,0,.72-2.011l.408-1.336c.123-.4.274-.909.444-1.532l.115-.4c.052-.181.047-.28-.033-.3a1.711,1.711,0,0,0-.35.025c-.558.077-1.043.151-1.445.214l-.052-.058c.038-.213.071-.448.1-.714l.019-.044q1.609.037,3.653-.112l.085.118c-.077.208-.194.512-.345.923-.058.153-.2.568-.422,1.258l-.654,2.1a15.751,15.751,0,0,0-.668,2.452.227.227,0,0,0,.109.194,6.428,6.428,0,0,0,.979.41l.052.071-.1.331Zm8.469-3.558a5.114,5.114,0,0,1-.747,2.408,4.532,4.532,0,0,1-1.623,1.5,3.767,3.767,0,0,1-2.14.433l-.41-.4.156-.205a1.147,1.147,0,0,0,.41.1,2.114,2.114,0,0,0,1.582-.512,2.689,2.689,0,0,0,.545-.648,5.842,5.842,0,0,0,.662-1.968,6.013,6.013,0,0,1-.994.7,2.5,2.5,0,0,1-.8.065,1.565,1.565,0,0,1-1.166-.654,2.419,2.419,0,0,1-.358-1.65,2.716,2.716,0,0,1,1.357-2.316,2.349,2.349,0,0,1,1.363-.254A2.2,2.2,0,0,1,119,287.273a4.441,4.441,0,0,1,.156,1.823Zm-1.409-.7a3.1,3.1,0,0,0-.17-1.558.929.929,0,0,0-.777-.572.882.882,0,0,0-.936.624,2.772,2.772,0,0,0-.194.87,2.291,2.291,0,0,0,.2,1.355.952.952,0,0,0,.772.514.865.865,0,0,0,.933-.514,2.05,2.05,0,0,0,.17-.72Zm9.063,3.535a7,7,0,0,0,.093,1.248l-.06.082c-1.023.046-1.869.1-2.518.156-.681.06-1.491.15-2.419.268l-.079-.06-.043-.506,1.037-1.264a11.921,11.921,0,0,0,1.5-2.121,3.615,3.615,0,0,0,.26-.752,2.436,2.436,0,0,0,.033-.709c-.079-.889-.525-1.3-1.343-1.226a1.291,1.291,0,0,0-1.032.616c-.033.161-.079.448-.15.856l-.057.06-.317.03-.06-.052.047-1.888a2.687,2.687,0,0,1,1.9-.875,2.38,2.38,0,0,1,1.776.443,1.849,1.849,0,0,1,.7,1.368,3.094,3.094,0,0,1-.025.681,3.434,3.434,0,0,1-.6,1.325c-.265.38-.676.881-1.226,1.516-.2.235-.506.577-.922,1.04l.019.071.993-.085c.285-.025.558-.052.813-.085l.966-.109c.246-.033.454-.058.635-.091l.09.063Zm6.715-4.529a6.579,6.579,0,0,1,.391,3.167,2.187,2.187,0,0,1-1.609,1.707,2.063,2.063,0,0,1-2.135-.408,5.86,5.86,0,0,1-1.3-2.526,7.6,7.6,0,0,1-.408-2.4,2.521,2.521,0,0,1,.474-1.459,2.33,2.33,0,0,1,1.206-.812,2.1,2.1,0,0,1,1.959.194,4.956,4.956,0,0,1,1.42,2.537Zm-1.056,1.286a11.418,11.418,0,0,0-1.22-2.919.918.918,0,0,0-1.057-.474.828.828,0,0,0-.6.8,6.128,6.128,0,0,0,.364,2.09,14.6,14.6,0,0,0,1.051,2.674,2.489,2.489,0,0,0,.416.577.838.838,0,0,0,.862.246c.514-.156.7-.649.563-1.472a13.04,13.04,0,0,0-.375-1.519Z" transform="translate(-69.912 -198.671)" fill="#030504"/>
      <path id="Path_9588" data-name="Path 9588" d="M92.954,117.117a32.916,32.916,0,1,1-32.917,32.918,32.922,32.922,0,0,1,32.917-32.918Z" transform="translate(-42.493 -99.907)" fill="#004a9a"/>
      <path id="Path_9589" data-name="Path 9589" d="M91.844,115.235A33.7,33.7,0,1,1,68.025,125.1a33.584,33.584,0,0,1,23.819-9.868Zm22.727,10.96a32.137,32.137,0,1,0,9.417,22.73,32.04,32.04,0,0,0-9.417-22.73Z" transform="translate(-41.382 -98.797)" fill="#030504"/>
      <path id="Path_9590" data-name="Path 9590" d="M74.619,270.025a1.813,1.813,0,1,1-1.809,1.817,1.813,1.813,0,0,1,1.809-1.817Z" transform="translate(-50.029 -190.116)" fill="#030504" fill-rule="evenodd"/>
      <path id="Path_9591" data-name="Path 9591" d="M200.774,270.025a1.813,1.813,0,1,1-1.817,1.817,1.814,1.814,0,0,1,1.817-1.817Z" transform="translate(-124.45 -190.116)" fill="#030504" fill-rule="evenodd"/>
      <path id="Path_9592" data-name="Path 9592" d="M122.888,133.114a5.616,5.616,0,0,1,4.19,2.058,5.448,5.448,0,0,1,1.24,4.761,3.907,3.907,0,0,0-4.061-.616l.624.9,1.135-.758c.258.446.673.687.578,1.283.81-.317,1.7.449,1.289,1.04.922-.3,1.149.479,1.059.791a.774.774,0,0,1,.843.947c.591-.123.752.4.662.98a4.4,4.4,0,0,1-3.185,3.076l1.056.52a5.789,5.789,0,0,1-2.887,3.464c2.441,2.3,3.927,5.177,4.031,9.919.031,1.719-.454,4.907-2.077,6.157a5.358,5.358,0,0,1,3.757,5.21,7.671,7.671,0,0,1-.656,2.753c-1.109,2.646-3.913,2.86-6.119,2.457-2.368-.415-4.255-1.723-6.541-.758-.843.493-1.861,1.415-3,.739a3.827,3.827,0,0,1-1.666-2.245,4,4,0,0,1-1.628,2.126c-1.07.827-2.441.046-3.081-.621-2.474-1.822-5.107.739-7.49.882-4.4.552-5.963-2.272-5.941-5.131.005-2.5,1.217-5.081,3.754-5.1a7.837,7.837,0,0,1-1.932-3.97c-.818-5.008-.279-8.13,4.236-12.7a6.08,6.08,0,0,1-3.1-3.322c1.576-.955,1.784-1.453,1.817-1.565a5.65,5.65,0,0,1-1.727-5.4,2.281,2.281,0,0,1,.747-1.248c.271-.123.791-.271.98.137a.892.892,0,0,1,1.459-.033.854.854,0,0,1,1.434.1c.175-.55,1.39-.682,1.409.629a1.87,1.87,0,0,1,1.88-.848,1.8,1.8,0,0,0-.246.96c.038.835-.014,1.628.027,2.405h.635c.085-2.457.791-4.529,4.08-6.034a17.518,17.518,0,0,0,2.772-1.16c.933.583,1.874.714,2.725,1.16,3.6,1.921,4,3.388,4.094,5.99l2.2.219c-.131-.72.167-.966.991-1.694l-3.535-4.332,1.565-1.324,1.363,1.42a3.748,3.748,0,0,0,.673-2.977,2.09,2.09,0,0,0-.427-1.253ZM106.614,158.75a.739.739,0,0,0,.738-.739.749.749,0,0,0-.738-.747.761.761,0,0,0-.747.747.75.75,0,0,0,.747.739Zm4.562-12.9a1.244,1.244,0,0,1,.72,1.232,5.064,5.064,0,0,1-2.272-.219,1.467,1.467,0,0,1-.549-1.084,13.188,13.188,0,0,1,2.1.071Zm4.178,0a1.23,1.23,0,0,0-.728,1.232,5.115,5.115,0,0,0,2.279-.219,1.434,1.434,0,0,0,.537-1.084,13.016,13.016,0,0,0-2.088.071Zm4,11.05a7.339,7.339,0,0,1-1.647,1.525,3.176,3.176,0,0,1-1.292-.416,3.781,3.781,0,0,0,1.6-1.492,3.1,3.1,0,0,0,1.341.383Zm-1.874-.61a5.647,5.647,0,0,1-1.7,1.439c-1.363-.7-.657-3.568-.624-4.047a7.8,7.8,0,0,0,2.329,2.608Zm-.98-4.225a28,28,0,0,0,2.545,4.348c-1.423-.085-3.136-2.356-3.511-3.44-.09-.3.5-.933.966-.909Zm-6.338.78-1.371,1.472-.719-.482,1.3-2.249a1.388,1.388,0,0,1,.793,1.259Zm18.452,7.047c.227,4.274-.616,7.378-4.5,8.912a3.8,3.8,0,0,1-4.466-2.093c.235-.047.676-.014.884-.358a1.124,1.124,0,0,0,1.8.084,1.324,1.324,0,0,0,1.883,0,1.4,1.4,0,0,0,1.648.194,1.449,1.449,0,0,0,.293-2.323c.583-.394.394-1.382.569-1.868l-3.658-.02c0-2.509.207-5.541-.7-6.625l-.176,6.015a4.307,4.307,0,0,0-3.53-3.2c1.415-.832,3.875-5.4,3.834-7.892a10.535,10.535,0,0,1,6.113,9.17Zm-6.924-9.351c.266,2.181-1.434,4.95-2.025,5.944a4.738,4.738,0,0,1-.777-1.253,9.891,9.891,0,0,0,1.837-4.95l.966.26Zm-2.868-.668,1.037.252a9.61,9.61,0,0,1-1.354,4.543,19.039,19.039,0,0,1-1.448-3.175l1.746-1.62Zm-11.258-.123a4.718,4.718,0,0,0,1.226,1.122l-1.672,3.139,1.771,1.054,1.382-1.39c.033,4.3.427,5.3,1.505,6.165a17.867,17.867,0,0,0-6.34,4.984l.06-4.491a1.475,1.475,0,0,0-1.513.44l.085-5.1c-1.018,1.448-.8,3.667-.862,4.778l-2.72.011v1.513c-.394.123-.81-.009-1.089.407-.539.643-.345,1.254.123,1.5-.785.265-.479,1.4-.039,1.513-.668.071-.383.83-.26,1.188-1.519-1.916-1.68-4.406-1.675-6.976a11.625,11.625,0,0,1,4.964-8.111,12.738,12.738,0,0,1,5.055-1.752Zm15.456-4.731a12.889,12.889,0,0,0,4.074,3.122c.9.706-.881,2.055-2.447,2.646a24.22,24.22,0,0,0-5.087-1.992,8.646,8.646,0,0,0,.591-4.638c1.1-.027,2.069-.046,2.868.862Zm-16.721-.8c.156,1.357-.169,3,.734,4.575-2.077.558-3.71.9-5.01,1.954-1.032,0-3.665-2.309-2.874-2.731,1.354-.638,2.673-2.318,4.023-3.043a5.192,5.192,0,0,1,3.128-.755Zm6.943-1.464.777.777-.777.8-.791-.8Zm16.375,2.107a1.776,1.776,0,0,1-.985.851c-.468.18-.818-.274-.531-.534l1.193-.96c.427-.3.72.008.323.643Zm-.659-.966-1.221.941a.382.382,0,1,1-.506-.572l1.3-1.026c.43-.227.832.241.43.657ZM127.2,142.01l-1.213.941a.382.382,0,1,1-.506-.572l1.3-1.018c.422-.235.829.241.422.648Zm.9.941-1.215.953a.384.384,0,1,1-.506-.577l1.3-1.018c.421-.227.829.241.421.643Zm-3.435-.214a.715.715,0,0,0,.95.881c-.358.767.607,1.16.939,1-.194.52.35,1.228.916.9-.1.624.351.577.764.687a2.69,2.69,0,0,1-1.932.506c-1.045-.531-1.855-1.828-2.654-2.5a1.577,1.577,0,0,1-.175-1.445,15.576,15.576,0,0,1,2.214-2.011c.309.99-.832,1.146-1.021,1.973Zm-19.99-1.953.156,2.315c-1.382,0-3.445,1.8-4.348,2.636a3.968,3.968,0,0,1-1.751-3.024c.246.364.35.189.512.232a.832.832,0,0,0,.629-.531c.093.325.112.487.61.531.268-.1.629-.1.714-.5.1.383.17.454.616.473a.651.651,0,0,0,.662-.545.781.781,0,0,0,.813.545.869.869,0,0,0,.649-.6c.129-.689.162-1.155.72-1.557l.019.019Zm-1.056-.047L103.6,142c-.123.624-.714.643-.87-.052v-1.193c.033-.662.8-.6.884-.014Zm-1.33,0V142c-.137.624-.714.643-.884-.052v-1.193c.047-.662.81-.6.884-.014Zm-1.338,0L100.936,142c-.134.624-.711.643-.881-.052v-1.193c.044-.662.81-.6.895-.014Zm-1.4-.019v1.4c-.129.474-.649.389-.8-.066a2.973,2.973,0,0,1,.128-1.212c.1-.539.506-.69.668-.118Zm16.383-2.621c1.371,1.513,1.4,2.74,1.39,5h1.732c-.137-2.931-.482-3.735-3.122-5Zm-5.3,0c-1.381,1.513-1.412,2.74-1.393,5h-1.732c.134-2.931.473-3.735,3.125-5Zm3.169-.895c0,2.769-.1,4.452.433,5.38a1.493,1.493,0,0,0,.922.517h1.1c-.066-3.757-.758-4.827-2.458-5.9Zm-1.053,0c0,2.769.093,4.452-.421,5.38a1.514,1.514,0,0,1-.928.517h-1.094c.057-3.757.752-4.827,2.443-5.9Zm14.969,1.434a4.481,4.481,0,0,0-4.672.435l1.174,1.576-.5.468-3.01-3.744.517-.416,1.319,1.491a4.287,4.287,0,0,0,1.609-4.107,4.864,4.864,0,0,1,3.56,4.3ZM113.193,184.3c-.9-1.092-1.667-1.442-3.952-1.675-2.193-.213-6.267-.1-8.946-.183-1.921-.063-3.166-.72-3.374-2.751,1.464,1.163,4.757.572,7.947.558,3.653-.02,7.391-.3,8.325,1.576.928-1.874,4.666-1.6,8.319-1.576,3.193.013,6.493.6,7.955-.558-.208,2.031-1.461,2.687-3.38,2.751-2.682.084-6.757-.03-8.948.183-2.285.233-3.051.583-3.946,1.675Zm0,1.525c-1.264-3.587-10.421-1.461-13.228-2.168-3.985-1.007-3.582-3.387-4.135-5.774,2.46,2.589,6.132,1.245,9.843,1.245,2.726,0,6.269-.416,7.52,1.122,1.248-1.538,4.788-1.122,7.514-1.122,3.71,0,6.866,1.349,9.622-1.245-.246,2.173-.019,5.235-3.911,5.774-2.876.389-11.967-1.42-13.226,2.168Zm1.486-15.943a.911.911,0,0,0,.222,1.051,1.2,1.2,0,0,0,.038,1.661,1.287,1.287,0,0,0,.014,1.752,1.143,1.143,0,0,0,.052,1.694,1.106,1.106,0,0,0-.293.871,6.232,6.232,0,0,1-.953-3.583c0-.4-.033-2.465.92-3.445Zm-3.139.014a.937.937,0,0,1-.222,1.037,1.229,1.229,0,0,1-.052,1.661,1.273,1.273,0,0,1-.013,1.752,1.132,1.132,0,0,1-.039,1.694,1.178,1.178,0,0,1,.369.856,6.015,6.015,0,0,0,.876-3.569c0-.383.033-2.445-.92-3.431Zm13.749-3.705a.743.743,0,0,0,0-1.486.743.743,0,1,0,0,1.486Zm-1.921,0a.743.743,0,1,0-.739-.739.743.743,0,0,0,.739.739Zm-1.9,0a.743.743,0,0,0,0-1.486.743.743,0,1,0,0,1.486Zm-1.97,0a.743.743,0,1,0-.733-.739.741.741,0,0,0,.733.739Zm-6.256.473a.748.748,0,0,0,.747-.733.757.757,0,0,0-.747-.748.745.745,0,0,0-.739.748.736.736,0,0,0,.739.733Zm-2.876,4.05a.738.738,0,1,0,0-1.475.738.738,0,0,0,0,1.475Zm5.613.019a.737.737,0,1,0-.739-.733.744.744,0,0,0,.739.733Zm-5.613,1.661a.741.741,0,0,0,.747-.728.749.749,0,0,0-.747-.734.727.727,0,0,0-.725.734.718.718,0,0,0,.725.728Zm5.613.062a.736.736,0,1,0-.739-.738.744.744,0,0,0,.739.738Zm-5.613,1.755a.758.758,0,0,0,.747-.747.744.744,0,0,0-.747-.727.721.721,0,0,0-.725.727.735.735,0,0,0,.725.747Zm5.613-.033a.737.737,0,1,0-.739-.733.744.744,0,0,0,.739.733Zm-5.613,1.784a.745.745,0,0,0,.747-.733.754.754,0,0,0-.747-.739.731.731,0,0,0-.725.739.723.723,0,0,0,.725.733Zm5.613-.039a.737.737,0,1,0-.739-.734.744.744,0,0,0,.739.734Zm-5.6,1.639a.656.656,0,0,0,0-1.311.655.655,0,1,0,0,1.311Zm5.593-.044a.646.646,0,1,0,0-1.291.646.646,0,1,0,0,1.291ZM105.918,139.37a.749.749,0,0,0,.748-.733.743.743,0,1,0-1.486,0,.741.741,0,0,0,.738.733Zm-.09-1.875a.749.749,0,0,0,.733-.747.738.738,0,0,0-.733-.739.751.751,0,0,0-.753.739.762.762,0,0,0,.753.747Zm-.98-1.8a.75.75,0,0,0,.753-.733.763.763,0,0,0-.753-.753.75.75,0,0,0-.733.753.737.737,0,0,0,.733.733Zm-1.732-.832a.743.743,0,1,0-.738-.744.755.755,0,0,0,.738.744Zm-2.148-.082a.74.74,0,1,0-.739-.734.749.749,0,0,0,.739.734Zm-1.751,1.136a.749.749,0,0,0,.733-.747.736.736,0,0,0-.733-.739.745.745,0,0,0-.748.739.757.757,0,0,0,.748.747Zm-1.1,1.68a.757.757,0,0,0,.747-.747.746.746,0,0,0-.747-.738.738.738,0,0,0-.733.738.748.748,0,0,0,.733.747Zm.118,1.96a.74.74,0,0,0,0-1.481.74.74,0,1,0,0,1.481Zm4.3,29.483v1.727a2.176,2.176,0,0,1-.993-1.7Zm24.188-.738c4.321.531,4.751,7.928.052,8.973-3.218.5-6.209-2.734-9.57-.6.071-.214-.175-.488-.364-.578a1.173,1.173,0,0,0,.071-1.746,1.238,1.238,0,0,0,.033-1.8,1.146,1.146,0,0,0,.033-1.66c.142-.1.361-.189.408-.517.928,1.16,3.451,1.094,5.813-.572a4.868,4.868,0,0,0,3.524-1.491Zm-26.18.64a4.268,4.268,0,0,0,2.744,2.958l.006-1.912c1.453.876,3.965,1.434,5.651.356a.686.686,0,0,0,.441.525,1.079,1.079,0,0,0,0,1.675,1.185,1.185,0,0,0,.033,1.746,1.146,1.146,0,0,0,.066,1.855.554.554,0,0,0-.416.63c-3.56-3.276-7.421,1.655-11.179.085-3.355-1.9-1.869-9.674,2.655-7.918Zm1.765-1.86c.946-.112.72,1.089.043.98h-1.888c-.745.084-1.051-1.019-.077-.98Zm.071-1.461a.505.505,0,1,1,.043.988h-1.888c-.745.071-1.051-1.021-.071-.988Zm0-1.435a.505.505,0,1,1,.043.988h-1.888c-.745.071-1.051-1.021-.071-.988Zm0-1.466a.505.505,0,1,1,.043.988h-1.888c-.745.077-1.051-1.012-.071-.988Zm23.2.709c.076.137-.033.435-.137.583-.5-.052-.9-.032-1.155.468-.235-.468-1.494-.52-1.888,0a1.161,1.161,0,0,0-1.85.091,1.18,1.18,0,0,0-.87-.5c-.208-.112-.246-.435-.257-.643Zm-10.817-2.375c.8.435,3.483.791,3.7,1.713l.156,1.368a1.952,1.952,0,0,0-.586,1.311,6.341,6.341,0,0,0,3.284,4.107c-.824.553-2.457,1.007-3.426,0a2.4,2.4,0,0,0-2.925-.72,3.351,3.351,0,0,0-1.817,2.4c-.26-.919-.747-2.238-1.752-2.427-.72-.427-1.8-.276-2.887.657a2.125,2.125,0,0,1-2.148.4,9.96,9.96,0,0,1,.681-3.114c1.59-2.72,4.964-4.348,7.715-5.7Zm-10.09.572c-.213,2.055.843,4.1-1.193,6.409.312-.64.062-1.083-.312-1.212a.863.863,0,0,0,.151-1.461.934.934,0,0,0-.027-1.445c.624-.515.137-1.454.8-1.908a.959.959,0,0,1,.558-.383Zm7.794-1.338,1.084.474a24.638,24.638,0,0,0-4.589,2.849c-1.951,1.442-3.394,4.874-3.705,6.138a1.39,1.39,0,0,1-1.032-.454c.1-3.323,3.421-6.579,5.49-7.72a15.027,15.027,0,0,1,2.753-1.286Zm-11.187.785h1.245v.791H101.28Zm9.413-16.843c1.91,0,2.545.922,2.545,1.459,0-.536.706-1.459,2.665-1.459h3.114a8.193,8.193,0,0,1-.328,3.847c-.794,1.538-2.422,2.263-3.6,3.574-1.144,1.617-.95,4.868-.6,5.716.487,1.226,2.3,1.888,3.426,1.9s3.639.714,3.626,3.152l-2.225-.006c-.582-1.921-5.442-1.278-7.695-4.2-.947-1.926.019-4.387-.673-6.384-.889-1.669-1.792-1.136-3.018-3.743a7.09,7.09,0,0,1-.46-3.861Z" transform="translate(-63.128 -109.345)" fill="#fff" fill-rule="evenodd"/>
      <path id="Path_9593" data-name="Path 9593" d="M118.513,126.047a49.69,49.69,0,1,1-99.379,0c0-65.359,99.379-65.359,99.379,0Z" transform="translate(-18.362 -76.256)" fill="#fff" fill-rule="evenodd"/>
      <path id="Path_9594" data-name="Path 9594" d="M118.175,124.937a50.461,50.461,0,1,1-100.923,0c0-23.895,13.091-39.192,29.85-45.891a55.753,55.753,0,0,1,20.611-3.9v0a55.742,55.742,0,0,1,20.612,3.9c16.755,6.7,29.85,22,29.85,45.891ZM102.3,159.527a48.765,48.765,0,0,0,14.329-34.59c0-23.162-12.665-37.98-28.879-44.46a54.19,54.19,0,0,0-20.037-3.787v0a54.168,54.168,0,0,0-20.037,3.79c-16.214,6.48-28.881,21.3-28.881,44.46a48.915,48.915,0,0,0,83.5,34.59Z" transform="translate(-17.252 -75.146)" fill="#030504"/>
      <path id="Path_9595" data-name="Path 9595" d="M45.631,154.383l.063.008c.183.266.468.668.87,1.2s.709.922.914,1.168l-.011.066-.254.195L47.141,157a4.188,4.188,0,0,0-.375-.415.2.2,0,0,0-.241-.025,11.323,11.323,0,0,0-1.226.843l-2.031,1.532a10.528,10.528,0,0,0-1.149.947.208.208,0,0,0-.046.241c.019.043.117.2.3.474l-.006.071-.265.194-.066-.014c-.17-.251-.454-.654-.862-1.2s-.714-.93-.917-1.163l.008-.066.26-.194.071.014c.213.246.336.383.375.416a.22.22,0,0,0,.241.025,10.815,10.815,0,0,0,1.226-.848l2.031-1.533a10.8,10.8,0,0,0,1.155-.941.2.2,0,0,0,.039-.238,3.374,3.374,0,0,0-.3-.482l.014-.066Zm-9.715-4.1.071.024q.263.411.312.468a.206.206,0,0,0,.232.052,9.967,9.967,0,0,0,1.338-.662l1.7-.947c1.259-.7,2.072-1.174,2.427-1.42l.071.03c.123.35.216.61.287.785q-.644,1.832-2.487,6.406l2.753-1.527a12.1,12.1,0,0,0,1.272-.771.214.214,0,0,0,.071-.232,3.7,3.7,0,0,0-.227-.512l.019-.066.285-.162.057.019c.164.337.326.64.476.914.181.326.369.643.563.96l-.014.066-.285.156-.066-.022a4.379,4.379,0,0,0-.317-.465.207.207,0,0,0-.235-.06,11.057,11.057,0,0,0-1.33.67l-2.225,1.232A10.323,10.323,0,0,0,39.4,156a.194.194,0,0,0-.077.227c.014.044.091.219.228.517l-.014.066-.285.156-.066-.019c-.129-.279-.26-.534-.394-.78-.208-.375-.4-.687-.553-.928q1.186-2.627,2.362-5.949l-2.465,1.363a12.631,12.631,0,0,0-1.273.772.227.227,0,0,0-.076.232,5.569,5.569,0,0,0,.232.514l-.019.063-.285.164-.061-.027c-.161-.317-.317-.621-.473-.909-.2-.364-.388-.681-.563-.96l.014-.063.285-.156Zm1.771-8.078a2.334,2.334,0,0,1,1.475.052,2.361,2.361,0,0,1,1.043.777,3.565,3.565,0,0,1,.618,1.272,4.606,4.606,0,0,1,.1,2.031l-.085.085a7.306,7.306,0,0,0-1.551.3l-.058-.03-.085-.293.033-.061.11-.024c.169-.052.388-.137.668-.252a1.342,1.342,0,0,0,.331-.747,2.064,2.064,0,0,0-.043-.994,1.356,1.356,0,0,0-1-1.083,1.445,1.445,0,0,0-.728.014.914.914,0,0,0-.709.739,2.765,2.765,0,0,0,.022.851,4.256,4.256,0,0,1-.014,1.757,1.6,1.6,0,0,1-1.174.969,1.994,1.994,0,0,1-1.694-.2,2.852,2.852,0,0,1-1.13-1.7,3.934,3.934,0,0,1-.156-1.85l.1-.06a8.23,8.23,0,0,0,1.357-.246l.066.041.082.285-.03.066a4.326,4.326,0,0,0-.709.252,1.124,1.124,0,0,0-.232.6,2.221,2.221,0,0,0,.071.834,1.475,1.475,0,0,0,.61.884,1.073,1.073,0,0,0,.9.109.915.915,0,0,0,.676-.61,4.066,4.066,0,0,0-.033-1.264c-.009-.066-.027-.26-.06-.572a2.543,2.543,0,0,1-.011-.536,1.438,1.438,0,0,1,.337-.856,1.79,1.79,0,0,1,.9-.539ZM32,135.808a4.836,4.836,0,0,0,.733-.047l.8-.1.057.038.041.3-.041.057a4.267,4.267,0,0,0-.7.156.33.33,0,0,0-.18.34c0,.063.033.361.11.9l.09.635c.112-.005.553-.066,1.324-.175l2.706-.383a11.392,11.392,0,0,0,1.467-.265.208.208,0,0,0,.148-.189,4.441,4.441,0,0,0-.025-.564l.038-.052.318-.046.052.041c.027.317.085.81.181,1.472s.175,1.169.235,1.459l-.039.052-.326.046-.052-.046a5.324,5.324,0,0,0-.128-.544.2.2,0,0,0-.195-.143,11.024,11.024,0,0,0-1.486.147l-2.7.378c-.785.11-1.226.181-1.324.2l.093.679a5.059,5.059,0,0,0,.194.987.183.183,0,0,0,.085.1.91.91,0,0,0,.317.028,4.339,4.339,0,0,0,.525-.028l.052.041.043.3-.043.057-.813.129a5.079,5.079,0,0,0-.7.156l-.052-.038c.009-.194-.076-.876-.238-2.049L32.3,137.9c-.148-1.084-.265-1.765-.337-2.036l.044-.051Zm6.737-4.672.052.044c-.022.317-.033.813-.033,1.481s.011,1.16.033,1.486l-.052.038h-.32l-.052-.046c-.019-.328-.03-.511-.044-.564a.217.217,0,0,0-.183-.162,11.157,11.157,0,0,0-1.486-.065H34.112a11.258,11.258,0,0,0-1.492.065.209.209,0,0,0-.175.162,4.631,4.631,0,0,0-.052.564l-.047.046h-.323l-.047-.046c.019-.3.025-.8.025-1.477s-.006-1.169-.025-1.481l.047-.044h.323l.047.044a4.469,4.469,0,0,0,.052.566.2.2,0,0,0,.175.162,11.2,11.2,0,0,0,1.492.066h2.542a11.1,11.1,0,0,0,1.486-.066.211.211,0,0,0,.183-.162,5.546,5.546,0,0,0,.044-.566l.052-.044Zm-5.862-7.747a4.484,4.484,0,0,0,.722.176l.786.134.043.06-.052.3-.052.044a4.786,4.786,0,0,0-.715-.063.327.327,0,0,0-.271.271c-.019.06-.071.358-.156.889l-.1.638c.11.025.553.1,1.316.219l2.7.43a10.732,10.732,0,0,0,1.478.167.2.2,0,0,0,.2-.137c.019-.043.063-.227.137-.545l.057-.038.318.052.038.052c-.071.312-.156.8-.26,1.461s-.175,1.166-.2,1.464l-.052.033-.326-.044-.039-.06a4.128,4.128,0,0,0,.039-.564.208.208,0,0,0-.148-.189,10.563,10.563,0,0,0-1.461-.29l-2.7-.43c-.785-.123-1.22-.189-1.324-.194l-.1.681a5.589,5.589,0,0,0-.109,1,.207.207,0,0,0,.057.109.89.89,0,0,0,.293.123,4.959,4.959,0,0,0,.511.123l.041.06-.046.3-.057.044-.813-.123a5.464,5.464,0,0,0-.72-.052l-.039-.052c.058-.18.189-.862.369-2.031l.307-1.926c.175-1.084.265-1.765.271-2.05l.057-.039Zm3-8.455.027.057c-.137.358-.118.591.052.709a4.947,4.947,0,0,0,.663.318c.257.1.629.254,1.122.441l1.381.533a2.957,2.957,0,0,1,1.7,1.259,2.733,2.733,0,0,1-.005,2.271,3.97,3.97,0,0,1-1.1,1.686,1.681,1.681,0,0,1-1.22.364,11.718,11.718,0,0,1-2.083-.676l-1.155-.441a10.349,10.349,0,0,0-1.415-.479.208.208,0,0,0-.227.091c-.025.038-.109.208-.241.506l-.063.032-.306-.117-.025-.066c.128-.279.317-.738.558-1.368.252-.648.413-1.111.506-1.39l.058-.03.3.115.028.066c-.1.312-.151.493-.156.539a.21.21,0,0,0,.1.219,10.069,10.069,0,0,0,1.368.591l.927.358a8.317,8.317,0,0,0,2.135.64c.578-.005,1.026-.413,1.33-1.212a1.935,1.935,0,0,0,.085-1.377,1.227,1.227,0,0,0-.26-.427,2.341,2.341,0,0,0-.536-.35c-.235-.118-.474-.227-.728-.326l-.934-.356c-.785-.306-1.324-.506-1.609-.611a2.144,2.144,0,0,0-.547-.15.3.3,0,0,0-.2.1,2.647,2.647,0,0,0-.279.525l-.066.033-.3-.115-.025-.066c.115-.255.227-.512.331-.791.082-.208.227-.611.427-1.2l.066-.027Zm3.4-6.872a4.774,4.774,0,0,0,.611.422l.686.41.019.063-.156.268-.065.019a5.709,5.709,0,0,0-.649-.312.333.333,0,0,0-.35.148c-.039.052-.194.312-.46.78l-.326.558c.1.057.482.285,1.154.673l2.365,1.371a11.1,11.1,0,0,0,1.322.686.21.21,0,0,0,.236-.052,5.434,5.434,0,0,0,.323-.46l.066-.019.279.162.019.066c-.175.265-.435.687-.766,1.264-.344.6-.583,1.026-.714,1.3l-.063.014-.279-.162-.019-.066a4.006,4.006,0,0,0,.238-.512.2.2,0,0,0-.071-.227,10.329,10.329,0,0,0-1.258-.8l-2.367-1.368c-.681-.4-1.07-.61-1.163-.656l-.342.6a5.058,5.058,0,0,0-.463.9.265.265,0,0,0,.014.129.876.876,0,0,0,.232.214,4.172,4.172,0,0,0,.43.3l.019.066-.15.266-.071.019-.72-.4a5.339,5.339,0,0,0-.643-.3l-.025-.066a19.972,19.972,0,0,0,1.078-1.765l.971-1.686q.83-1.42.994-1.817l.066-.014Zm6.831-8.155a5.969,5.969,0,0,0,.481.55l.572.566.005.071-.213.214-.066,0a6.663,6.663,0,0,0-.558-.459.336.336,0,0,0-.375.065c-.052.039-.268.252-.638.64l-.446.463c.077.085.394.394.953.933l1.967,1.9a10.791,10.791,0,0,0,1.108.985.214.214,0,0,0,.246.008c.038-.027.183-.15.421-.372h.071l.227.222.008.071c-.235.213-.586.564-1.051,1.046-.482.492-.813.857-1.007,1.083h-.066l-.232-.227v-.066a3.7,3.7,0,0,0,.35-.44.193.193,0,0,0-.014-.241,10.836,10.836,0,0,0-1.023-1.075l-1.967-1.9c-.569-.553-.889-.857-.971-.914l-.476.492a4.751,4.751,0,0,0-.659.758.212.212,0,0,0-.019.123.735.735,0,0,0,.167.265,4.637,4.637,0,0,0,.351.4v.071l-.214.214-.071.008-.6-.564a5.459,5.459,0,0,0-.553-.454l-.005-.066c.156-.118.643-.6,1.472-1.453l1.349-1.4c.761-.785,1.226-1.3,1.4-1.518Zm8.533-.112a10.377,10.377,0,0,0,.87,1.33l-.006.074-2.81,2.082c-.468.35-.785.6-.966.764l-.071-.011-.08-.1-.011-.066a1.414,1.414,0,0,0,.128-.454,2.245,2.245,0,0,0-.337-.545L50.728,102l-1.467-1.946a10.653,10.653,0,0,0-.946-1.149.2.2,0,0,0-.238-.043,4.633,4.633,0,0,0-.482.3l-.066-.008-.194-.265.014-.057c.266-.183.676-.474,1.212-.884q.723-.542,2.726-2.088h.066l.274.46c.082.15.162.274.224.369l.241.378-.006.071-.222.17-.071-.008c-.26-.35-.427-.531-.506-.55-.057-.014-.213.063-.473.227s-.487.317-.673.46c-.227.17-.443.345-.657.539q.263.427.8,1.146l.6.794c.213-.137.383-.255.506-.351l.5-.383c.235-.183.358-.3.358-.358a1.523,1.523,0,0,0-.312-.578l.014-.071.233-.181.071.014c.207.29.4.558.577.8.194.26.416.539.656.837l-.014.066-.26.194-.066-.014c-.219-.29-.375-.454-.454-.474s-.233.033-.46.17c-.162.1-.337.227-.512.356s-.358.279-.506.416l.882,1.169c.254.336.506.654.752.96l.525-.4a7.078,7.078,0,0,0,1.306-1.122.19.19,0,0,0,.033-.09.733.733,0,0,0-.1-.279l-.266-.553.006-.066.232-.18.071.005Zm7.742-2.5-.019.063c-.468.227-.8.391-.974.487s-.4.227-.739.43a2.976,2.976,0,0,0-.753-.372l-2.03-.764a8.167,8.167,0,0,0-1.344-.392l.539,1.013a9.759,9.759,0,0,0,.758,1.286.2.2,0,0,0,.227.076,3.136,3.136,0,0,0,.52-.219l.066.019.148.285-.014.066c-.29.137-.734.356-1.322.668-.61.326-1.04.563-1.291.72l-.066-.014-.156-.29.019-.066c.279-.17.443-.274.481-.3a.222.222,0,0,0,.058-.236,10.551,10.551,0,0,0-.649-1.344l-1.193-2.244a9.96,9.96,0,0,0-.752-1.283.207.207,0,0,0-.228-.085c-.046.011-.221.085-.52.219L53.09,95l-.148-.285.019-.066c.279-.123.72-.35,1.316-.668.618-.326,1.051-.564,1.3-.72l.06.019.156.293-.027.057c-.279.175-.435.271-.473.3a.213.213,0,0,0-.057.241,10.937,10.937,0,0,0,.643,1.344l.563,1.051c.266-.772.447-1.336.55-1.7l.274-.941c.09-.326.2-.766.326-1.305l-.156-.3.019-.063a6.288,6.288,0,0,0,.654-.32c.246-.129.533-.29.856-.479l.066.014.137.265-.019.066a1.542,1.542,0,0,0-.643.545,14.487,14.487,0,0,0-.7,1.828l-.422,1.272c.208.1.531.241.98.41l1.538.6a10.7,10.7,0,0,0,1.912.654,1.056,1.056,0,0,0,.364-.123l.066.019.148.287Zm6.042-8.275-.041.06c-.309.109-.484.181-.526.2a.22.22,0,0,0-.109.222,11.546,11.546,0,0,0,.35,1.447l.54,1.875c.394,1.382.673,2.285.837,2.687l-.052.057c-.364.044-.638.077-.824.1q-1.637-1.035-5.684-3.861l.867,3.024a10.684,10.684,0,0,0,.468,1.415.213.213,0,0,0,.207.123,5.37,5.37,0,0,0,.559-.109l.057.039.085.312-.033.052q-.534.123-.994.257c-.356.1-.706.216-1.064.331l-.058-.025-.085-.317.033-.06a4.818,4.818,0,0,0,.526-.2.2.2,0,0,0,.109-.213A11.3,11.3,0,0,0,63.251,95l-.7-2.446a10.9,10.9,0,0,0-.474-1.415.211.211,0,0,0-.208-.128c-.043.005-.232.038-.55.109l-.057-.033-.093-.312.033-.058c.3-.066.578-.137.843-.207.416-.123.761-.233,1.026-.331q2.307,1.744,5.276,3.64l-.772-2.7a11.958,11.958,0,0,0-.473-1.415.219.219,0,0,0-.208-.131c-.046.008-.235.038-.552.112l-.058-.033-.09-.312.03-.057q.525-.119.993-.255c.4-.118.753-.227,1.065-.337l.057.033.093.309Zm9.84,2.323A3.7,3.7,0,0,1,77.24,94.13a3.748,3.748,0,0,1-2.742.982,3.514,3.514,0,0,1-2.583-.922,3.47,3.47,0,0,1-.941-2.578,3.255,3.255,0,0,1,1.765-3.2,4.318,4.318,0,0,1,1.978-.411,3.658,3.658,0,0,1,2.608.884,3.223,3.223,0,0,1,.946,2.457Zm-1.477.254a3.857,3.857,0,0,0-.563-2.214,2.038,2.038,0,0,0-3.53.463,4.173,4.173,0,0,0-.241,1.472A4.346,4.346,0,0,0,73,93.671a1.882,1.882,0,0,0,1.7.889,1.8,1.8,0,0,0,1.836-1.349,4.8,4.8,0,0,0,.255-1.609Zm7.7,2.491a10.282,10.282,0,0,0-.323,1.557l-.06.041-3.456-.515c-.577-.085-.988-.129-1.226-.142l-.041-.058.019-.137.033-.052a1.688,1.688,0,0,0,.422-.227A2.471,2.471,0,0,0,80,93.936l.169-1.065.337-2.414a10.173,10.173,0,0,0,.142-1.486.2.2,0,0,0-.134-.2c-.046-.019-.227-.057-.553-.123l-.038-.052.044-.326.052-.039c.326.066.8.143,1.434.235.657.091,1.155.148,1.5.181l.039.046-.044.328-.052.033a4.507,4.507,0,0,0-.567-.025.2.2,0,0,0-.186.148,11.7,11.7,0,0,0-.274,1.466l-.4,2.849c-.057.416-.109.818-.148,1.212l.649.093a7.378,7.378,0,0,0,1.718.128.119.119,0,0,0,.085-.043.777.777,0,0,0,.131-.269l.2-.577L84.158,94l.293.038.043.058Zm8.664.61a3.693,3.693,0,0,1-1.844,2.329,3.751,3.751,0,0,1-2.912.084,3.489,3.489,0,0,1-2.167-1.675,3.447,3.447,0,0,1-.1-2.737A3.261,3.261,0,0,1,88.8,90.2a4.348,4.348,0,0,1,2,.227,3.69,3.69,0,0,1,2.214,1.647,3.207,3.207,0,0,1,.137,2.627Zm-1.486-.219a3.945,3.945,0,0,0,.156-2.279,1.873,1.873,0,0,0-1.311-1.283,1.837,1.837,0,0,0-2.2.635,4.43,4.43,0,0,0-.681,1.33,4.383,4.383,0,0,0-.208,2.4,1.885,1.885,0,0,0,1.344,1.368,1.807,1.807,0,0,0,2.167-.714,4.888,4.888,0,0,0,.734-1.459Zm8.667,5.8-.071.027c-.194-.066-.323-.071-.394-.019a5.023,5.023,0,0,0-.558.8c-.143.227-.279.465-.4.7a8.3,8.3,0,0,1-2.789-1.026,3.994,3.994,0,0,1-1.85-2.3,3.336,3.336,0,0,1,.487-2.791A3.2,3.2,0,0,1,98,94.054a4.88,4.88,0,0,1,2.074.8,7.322,7.322,0,0,1,1.234.966,4.748,4.748,0,0,1,.7.813l-.009.1a8.47,8.47,0,0,0-.957,1.136l-.066.014-.246-.15-.014-.071c.033-.052.09-.161.18-.323a2.426,2.426,0,0,0,.175-.369,1.662,1.662,0,0,0-.356-.8,3.2,3.2,0,0,0-.889-.8,2.36,2.36,0,0,0-2.726-.076,3.524,3.524,0,0,0-1.032,1.08,3.411,3.411,0,0,0-.569,2.261,2.36,2.36,0,0,0,1.155,1.8,2.8,2.8,0,0,0,1.174.416c.137-.175.3-.435.512-.766a2.569,2.569,0,0,0,.279-.506c.014-.052-.019-.115-.1-.186a7.163,7.163,0,0,0-.652-.5l-.019-.071.164-.252.063-.014c.391.255.8.52,1.234.785.252.156.629.383,1.128.687l.021.066-.125.194Zm1.689,4.641-.066.005c-.227-.221-.6-.558-1.1-.993s-.875-.753-1.135-.947v-.071l.213-.241.066-.005c.26.2.416.312.455.331a.2.2,0,0,0,.241-.027,9.52,9.52,0,0,0,1.026-1.084l1.666-1.913a10.581,10.581,0,0,0,.933-1.168.215.215,0,0,0-.005-.241,5.38,5.38,0,0,0-.4-.408V98.1l.216-.246h.064c.216.213.585.545,1.1.994s.889.758,1.13.941l.011.071-.214.246h-.071a4.123,4.123,0,0,0-.454-.331.221.221,0,0,0-.241.025,11.058,11.058,0,0,0-1.023,1.084l-1.669,1.921a11.168,11.168,0,0,0-.934,1.169.2.2,0,0,0,.014.241,4.365,4.365,0,0,0,.389.4l.005.071Zm7.473,5.339a2.04,2.04,0,0,1-2.186.232,2.987,2.987,0,0,1-1.174-.966c-.115-.156-.213-.28-.29-.383l-.69-.923c-.251-.317-.454-.563-.61-.725l.013-.071.1-.085.058-.014a1.557,1.557,0,0,0,.463.123,1.944,1.944,0,0,0,.536-.351l.857-.648,1.921-1.5a10.814,10.814,0,0,0,1.135-.966.2.2,0,0,0,.038-.241c-.019-.044-.123-.2-.3-.474l.005-.063.26-.2.066.005c.156.241.449.629.875,1.182.274.35.526.654.758.928.183.213.34.4.454.553a2.027,2.027,0,0,1,.6,1.765,1.293,1.293,0,0,1-.449.629,1.442,1.442,0,0,1-1.226.276,1.779,1.779,0,0,1-.577-.219,5.545,5.545,0,0,1-.591-.416c.775,1.078.752,1.926-.052,2.55Zm1.371-3.193a.957.957,0,0,0,.156-1.524,3.688,3.688,0,0,0-.416-.468c-.273.2-.52.383-.747.558l-1.046.818c.041.066.132.183.269.358a1.146,1.146,0,0,0,1.141.556,1.6,1.6,0,0,0,.643-.3Zm-2.389,2.129a1.307,1.307,0,0,0,.2-2.083c-.079-.1-.169-.214-.279-.337l-1.751,1.368c-.189.15-.378.3-.547.454a3.65,3.65,0,0,0,.312.454,1.306,1.306,0,0,0,.974.558,1.676,1.676,0,0,0,1.089-.416Zm3.114,9.318-.064-.014c-.33-.635-.525-1.012-.6-1.141-.285-.52-.564-.993-.824-1.428l.019-.057.268-.15.071.022.219.35c.1.148.194.2.293.142a1.71,1.71,0,0,0,.331-.339l.7-.829c-.207-.389-.427-.786-.648-1.193-.123-.216-.3-.539-.553-.969l-.615.1a3.761,3.761,0,0,0-.843.194c-.109.058-.137.162-.085.3.033.08.1.227.208.449l-.019.066-.265.148-.071-.019c-.269-.526-.449-.871-.528-1.013-.064-.115-.233-.394-.5-.843l.014-.066.271-.148.071.025c.175.279.331.422.468.435s.856-.065,2.162-.232l3.352-.422c.26-.041.652-.09,1.169-.164l.331.6-4,5.131c-.155.194-.219.337-.207.422a1.369,1.369,0,0,0,.17.43l-.025.063-.268.15Zm.785-3.919,1.7-2.123-2.679.358c.123.232.279.539.487.9s.364.643.492.865Zm7.558,9.991-.057-.039c-.117-.3-.189-.479-.214-.52a.224.224,0,0,0-.221-.109,12.736,12.736,0,0,0-1.44.378l-1.863.57c-1.382.421-2.269.72-2.671.884l-.065-.046c-.047-.364-.085-.643-.11-.824q1-1.654,3.754-5.75l-3,.917a11.093,11.093,0,0,0-1.409.5.207.207,0,0,0-.123.208c0,.052.046.232.123.553l-.033.057-.312.1-.057-.03c-.091-.358-.18-.69-.274-.993q-.164-.526-.356-1.051l.033-.06.312-.1.057.033c.118.3.189.479.214.517a.219.219,0,0,0,.216.112,12.43,12.43,0,0,0,1.445-.378l2.433-.747a10.744,10.744,0,0,0,1.4-.493.207.207,0,0,0,.123-.208,4.774,4.774,0,0,0-.118-.558l.033-.058.312-.09.057.033c.066.29.142.57.222.838.129.413.246.752.342,1.023q-1.7,2.327-3.541,5.333l2.692-.824a11.065,11.065,0,0,0,1.407-.492.214.214,0,0,0,.123-.208c0-.052-.043-.232-.123-.55l.033-.066.312-.09.058.03c.084.345.175.676.273.988.115.4.238.747.351,1.056l-.028.06-.312.1Zm-2.134,9.876a3.7,3.7,0,0,1-2.717-1.018,3.483,3.483,0,0,1-.832-1.245,4.772,4.772,0,0,1-.328-1.844v-1.7a10.936,10.936,0,0,0-.046-1.141l.046-.047.134-.005.06.025c.156.232.246.364.29.378a2.207,2.207,0,0,0,.638.044l1.075-.006,2.441-.046a10.494,10.494,0,0,0,1.486-.085.224.224,0,0,0,.175-.167,4.866,4.866,0,0,0,.038-.564l.047-.046.331-.006.044.044c-.019.345-.019.668-.014.974.014.744.033,1.42.066,2.017.014.3.019.6.027.9a5.208,5.208,0,0,1-.246,1.929,2.491,2.491,0,0,1-.96,1.16,3.387,3.387,0,0,1-1.754.455Zm-.252-1.472a2.94,2.94,0,0,0,2.036-.682,1.8,1.8,0,0,0,.515-.851,4.79,4.79,0,0,0,.115-1.344,4.569,4.569,0,0,0-.076-.857c-.356-.025-1.226-.025-2.6,0l-2.1.046c-.468.014-.78.033-.928.052a4.87,4.87,0,0,0-.052.87,3.322,3.322,0,0,0,.3,1.5,2.157,2.157,0,0,0,1.046.928,3.916,3.916,0,0,0,1.746.331Z" transform="translate(-25.878 -82.733)" fill="#030504"/>
      <path id="Path_9596" data-name="Path 9596" d="M225.927,212.671l-.041-.06c.061-.375-.01-.6-.2-.681a6.073,6.073,0,0,0-.714-.166c-.271-.053-.668-.123-1.188-.2l-1.467-.232a2.968,2.968,0,0,1-1.921-.875,2.761,2.761,0,0,1-.465-2.225,3.824,3.824,0,0,1,.72-1.877,1.659,1.659,0,0,1,1.117-.611,12.162,12.162,0,0,1,2.173.228l1.226.2a10.717,10.717,0,0,0,1.486.167.22.22,0,0,0,.2-.128c.019-.047.063-.228.137-.553l.049-.038.32.052.039.052c-.066.3-.156.791-.26,1.459s-.175,1.177-.2,1.461l-.052.044-.326-.049-.038-.06c.033-.323.044-.512.044-.563a.219.219,0,0,0-.156-.189,10.717,10.717,0,0,0-1.459-.293l-.98-.153a8.493,8.493,0,0,0-2.22-.189c-.572.129-.922.621-1.051,1.467a1.95,1.95,0,0,0,.2,1.363,1.274,1.274,0,0,0,.345.361,2.631,2.631,0,0,0,.6.235c.26.063.52.123.785.167l.988.156c.829.131,1.393.213,1.7.26a2.083,2.083,0,0,0,.564.028.281.281,0,0,0,.175-.145,2.932,2.932,0,0,0,.162-.57l.06-.038.317.052.039.049c-.066.273-.117.553-.162.845-.039.219-.1.64-.175,1.264l-.052.039-.317-.044Zm-3.147,8.864-.027-.066c.09-.317.137-.5.142-.545a.2.2,0,0,0-.109-.216,11.033,11.033,0,0,0-1.377-.57l-1.836-.668c-1.349-.487-2.238-.793-2.665-.9l-.019-.071c.18-.326.317-.563.4-.727,1.2-.479,3.36-1.26,6.469-2.329l-2.958-1.075a11.553,11.553,0,0,0-1.423-.455.218.218,0,0,0-.219.1,5.028,5.028,0,0,0-.241.512l-.057.027-.307-.109-.025-.061c.143-.342.271-.662.375-.96.131-.342.247-.692.351-1.051l.06-.033.31.118.027.057a4.289,4.289,0,0,0-.142.547.194.194,0,0,0,.109.214,10.23,10.23,0,0,0,1.377.569l2.386.87a10.889,10.889,0,0,0,1.42.449.21.21,0,0,0,.227-.09c.027-.041.1-.216.241-.515l.06-.025.3.109.025.057c-.123.279-.228.547-.323.8-.151.41-.26.755-.345,1.026-1.836.558-3.853,1.264-6.034,2.129l2.641.96a10.583,10.583,0,0,0,1.42.454.228.228,0,0,0,.227-.091c.027-.046.1-.216.235-.514l.063-.033.306.112.025.063c-.143.331-.265.649-.383.955-.134.383-.257.738-.351,1.056l-.057.027-.3-.109Zm-8.7,5.8-.014-.071c.071-.189.085-.317.033-.394a4.968,4.968,0,0,0-.771-.6c-.221-.153-.449-.3-.682-.432a8.472,8.472,0,0,1,1.174-2.734,3.976,3.976,0,0,1,2.389-1.724,3.363,3.363,0,0,1,2.764.635,3.183,3.183,0,0,1,1.453,3.308,4.941,4.941,0,0,1-.909,2.031,7,7,0,0,1-1.031,1.182,4.8,4.8,0,0,1-.852.662l-.09-.019a8.066,8.066,0,0,0-1.089-1.012l-.005-.071.161-.235.071-.011c.044.03.156.1.317.2a3.692,3.692,0,0,0,.356.195,1.6,1.6,0,0,0,.818-.312,3.345,3.345,0,0,0,.851-.848,2.372,2.372,0,0,0,.219-2.712,3.77,3.77,0,0,0-3.256-1.779,2.366,2.366,0,0,0-1.855,1.06,2.851,2.851,0,0,0-.474,1.146c.17.151.416.331.733.558a3.781,3.781,0,0,0,.493.307c.052.011.118-.022.194-.094a7.679,7.679,0,0,0,.525-.621l.071-.014.246.17.014.071c-.279.375-.564.772-.848,1.193-.169.241-.416.6-.752,1.09l-.066.013-.188-.137Z" transform="translate(-132.525 -152.115)" fill="#030504"/>
      <path id="Path_9597" data-name="Path 9597" d="M110.692,291.835l-.077.047c-.493-.184-1.1-.392-1.823-.611-.7-.213-1.447-.421-2.239-.629l-.041-.079.1-.331.077-.03c.194.03.378.072.553.11a2.842,2.842,0,0,0,.615.09.454.454,0,0,0,.222-.147,11.244,11.244,0,0,0,.72-2.011l.408-1.338c.123-.4.274-.908.444-1.53l.115-.4c.052-.182.047-.279-.033-.306a1.815,1.815,0,0,0-.35.027c-.558.077-1.043.148-1.445.214l-.052-.058c.038-.216.071-.449.1-.714l.019-.047c1.073.027,2.29-.013,3.653-.109l.085.114c-.077.208-.194.515-.345.922-.058.156-.2.572-.422,1.259l-.654,2.1a15.643,15.643,0,0,0-.668,2.455.226.226,0,0,0,.109.194,6.667,6.667,0,0,0,.979.408l.052.071-.1.331Zm8.469-3.555a5.114,5.114,0,0,1-.747,2.406,4.523,4.523,0,0,1-1.623,1.5,3.748,3.748,0,0,1-2.14.435l-.41-.4.156-.208a1.144,1.144,0,0,0,.41.1,2.1,2.1,0,0,0,1.582-.515,2.63,2.63,0,0,0,.545-.649,5.794,5.794,0,0,0,.662-1.965,6.087,6.087,0,0,1-.994.7,2.487,2.487,0,0,1-.8.066,1.569,1.569,0,0,1-1.166-.657,2.41,2.41,0,0,1-.358-1.648,2.719,2.719,0,0,1,1.357-2.318,2.323,2.323,0,0,1,1.363-.251A2.2,2.2,0,0,1,119,286.458a4.44,4.44,0,0,1,.156,1.823Zm-1.409-.7a3.083,3.083,0,0,0-.17-1.557.929.929,0,0,0-.777-.572.881.881,0,0,0-.936.624,2.747,2.747,0,0,0-.194.867,2.305,2.305,0,0,0,.2,1.358.947.947,0,0,0,.772.511.867.867,0,0,0,.933-.511,2.067,2.067,0,0,0,.17-.72Zm9.063,3.536a6.972,6.972,0,0,0,.093,1.245l-.06.085c-1.023.047-1.869.1-2.518.156-.681.057-1.491.148-2.419.265l-.079-.057-.043-.506,1.037-1.264a11.915,11.915,0,0,0,1.5-2.124,3.561,3.561,0,0,0,.26-.752,2.412,2.412,0,0,0,.033-.706c-.079-.889-.525-1.3-1.343-1.226a1.292,1.292,0,0,0-1.032.615c-.033.162-.079.447-.15.857l-.057.057-.317.033-.06-.052.047-1.888a2.678,2.678,0,0,1,1.9-.875,2.381,2.381,0,0,1,1.776.44,1.854,1.854,0,0,1,.7,1.368,3.078,3.078,0,0,1-.025.681,3.409,3.409,0,0,1-.6,1.324,19.49,19.49,0,0,1-1.226,1.519c-.2.232-.506.577-.922,1.037l.019.071.993-.082c.285-.027.558-.052.813-.085l.966-.112c.246-.03.454-.057.635-.09l.09.066Zm6.715-4.529a6.574,6.574,0,0,1,.391,3.166,2.193,2.193,0,0,1-1.609,1.707,2.062,2.062,0,0,1-2.135-.41,5.833,5.833,0,0,1-1.3-2.523,7.608,7.608,0,0,1-.408-2.4,2.521,2.521,0,0,1,.474-1.461,2.322,2.322,0,0,1,1.206-.81,2.092,2.092,0,0,1,1.959.194,4.954,4.954,0,0,1,1.42,2.537Zm-1.056,1.283a11.512,11.512,0,0,0-1.22-2.919.921.921,0,0,0-1.057-.474.834.834,0,0,0-.6.8,6.126,6.126,0,0,0,.364,2.087,14.429,14.429,0,0,0,1.051,2.674,2.489,2.489,0,0,0,.416.578.832.832,0,0,0,.862.246c.514-.153.7-.649.563-1.472a13.044,13.044,0,0,0-.375-1.519Z" transform="translate(-69.912 -198.189)" fill="#030504"/>
      <path id="Path_9598" data-name="Path 9598" d="M92.954,116.3a32.916,32.916,0,1,1-32.917,32.915A32.921,32.921,0,0,1,92.954,116.3Z" transform="translate(-42.493 -99.427)" fill="#004a9a"/>
      <path id="Path_9599" data-name="Path 9599" d="M91.844,114.414a33.7,33.7,0,1,1-23.819,9.871,33.588,33.588,0,0,1,23.819-9.871Zm22.727,10.963a32.134,32.134,0,1,0,9.417,22.727,32.04,32.04,0,0,0-9.417-22.727Z" transform="translate(-41.382 -98.312)" fill="#030504"/>
      <path id="Path_9600" data-name="Path 9600" d="M74.619,269.2a1.814,1.814,0,1,1-1.809,1.817,1.814,1.814,0,0,1,1.809-1.817Z" transform="translate(-50.029 -189.632)" fill="#030504" fill-rule="evenodd"/>
      <path id="Path_9601" data-name="Path 9601" d="M200.774,269.2a1.814,1.814,0,1,1-1.817,1.817,1.815,1.815,0,0,1,1.817-1.817Z" transform="translate(-124.45 -189.632)" fill="#030504" fill-rule="evenodd"/>
      <path id="Path_9602" data-name="Path 9602" d="M122.888,132.3a5.625,5.625,0,0,1,4.19,2.055,5.456,5.456,0,0,1,1.24,4.765,3.9,3.9,0,0,0-4.061-.616l.624.9,1.135-.761c.258.449.673.69.578,1.286.81-.317,1.7.446,1.289,1.037.922-.3,1.149.482,1.059.791a.777.777,0,0,1,.843.95c.591-.123.752.4.662.98a4.4,4.4,0,0,1-3.185,3.076l1.056.517a5.778,5.778,0,0,1-2.887,3.464c2.441,2.3,3.927,5.178,4.031,9.923.031,1.718-.454,4.9-2.077,6.157a5.352,5.352,0,0,1,3.757,5.21,7.655,7.655,0,0,1-.656,2.75c-1.109,2.649-3.913,2.863-6.119,2.46-2.368-.415-4.255-1.726-6.541-.761-.843.5-1.861,1.415-3,.742a3.832,3.832,0,0,1-1.666-2.247,4.018,4.018,0,0,1-1.628,2.129c-1.07.823-2.441.046-3.081-.625-2.474-1.822-5.107.742-7.49.884-4.4.551-5.963-2.271-5.941-5.133.005-2.5,1.217-5.079,3.754-5.1a7.851,7.851,0,0,1-1.932-3.97c-.818-5.01-.279-8.13,4.236-12.7a6.062,6.062,0,0,1-3.1-3.322c1.576-.953,1.784-1.453,1.817-1.563a5.652,5.652,0,0,1-1.727-5.4,2.282,2.282,0,0,1,.747-1.245c.271-.123.791-.273.98.137a.891.891,0,0,1,1.459-.033.852.852,0,0,1,1.434.1c.175-.553,1.39-.681,1.409.63a1.872,1.872,0,0,1,1.88-.851,1.818,1.818,0,0,0-.246.961c.038.837-.014,1.628.027,2.408h.635c.085-2.46.791-4.529,4.08-6.034a17.317,17.317,0,0,0,2.772-1.163c.933.586,1.874.714,2.725,1.163,3.6,1.921,4,3.385,4.094,5.987l2.2.222c-.131-.72.167-.966.991-1.694l-3.535-4.335,1.565-1.324,1.363,1.423a3.754,3.754,0,0,0,.673-2.98,2.083,2.083,0,0,0-.427-1.251Zm-16.274,25.636a.739.739,0,0,0,.738-.739.75.75,0,0,0-.738-.747.761.761,0,0,0-.747.747.75.75,0,0,0,.747.739Zm4.562-12.9a1.245,1.245,0,0,1,.72,1.234,5.016,5.016,0,0,1-2.272-.221,1.467,1.467,0,0,1-.549-1.084,13.134,13.134,0,0,1,2.1.071Zm4.178,0a1.231,1.231,0,0,0-.728,1.234,5.066,5.066,0,0,0,2.279-.221,1.433,1.433,0,0,0,.537-1.084,12.963,12.963,0,0,0-2.088.071Zm4,11.05a7.3,7.3,0,0,1-1.647,1.524,3.161,3.161,0,0,1-1.292-.413,3.772,3.772,0,0,0,1.6-1.494,3.07,3.07,0,0,0,1.341.383Zm-1.874-.61a5.654,5.654,0,0,1-1.7,1.442c-1.363-.7-.657-3.569-.624-4.05a7.738,7.738,0,0,0,2.329,2.608Zm-.98-4.223a28.1,28.1,0,0,0,2.545,4.346c-1.423-.085-3.136-2.353-3.511-3.437-.09-.3.5-.936.966-.909Zm-6.338.777-1.371,1.472-.719-.479,1.3-2.252a1.386,1.386,0,0,1,.793,1.258Zm18.452,7.046c.227,4.277-.616,7.378-4.5,8.916a3.8,3.8,0,0,1-4.466-2.1c.235-.043.676-.014.884-.355a1.126,1.126,0,0,0,1.8.084,1.326,1.326,0,0,0,1.883,0,1.4,1.4,0,0,0,1.648.195,1.449,1.449,0,0,0,.293-2.324c.583-.4.394-1.381.569-1.869l-3.658-.019c0-2.512.207-5.542-.7-6.625L122.193,161a4.308,4.308,0,0,0-3.53-3.2c1.415-.829,3.875-5.4,3.834-7.889a10.529,10.529,0,0,1,6.113,9.167Zm-6.924-9.35c.266,2.181-1.434,4.953-2.025,5.944a4.716,4.716,0,0,1-.777-1.25,9.891,9.891,0,0,0,1.837-4.95l.966.257Zm-2.868-.668,1.037.255a9.6,9.6,0,0,1-1.354,4.54,18.963,18.963,0,0,1-1.448-3.172l1.746-1.623Zm-11.258-.123a4.639,4.639,0,0,0,1.226,1.122l-1.672,3.141,1.771,1.051,1.382-1.387c.033,4.3.427,5.3,1.505,6.163a17.888,17.888,0,0,0-6.34,4.983l.06-4.49a1.47,1.47,0,0,0-1.513.443l.085-5.1c-1.018,1.448-.8,3.667-.862,4.775l-2.72.014v1.511c-.394.123-.81-.005-1.089.41-.539.64-.345,1.25.123,1.5-.785.266-.479,1.4-.039,1.511-.668.071-.383.832-.26,1.187-1.519-1.913-1.68-4.406-1.675-6.976a11.63,11.63,0,0,1,4.964-8.111,12.827,12.827,0,0,1,5.055-1.751Zm15.456-4.729a12.833,12.833,0,0,0,4.074,3.12c.9.709-.881,2.058-2.447,2.649a24.107,24.107,0,0,0-5.087-1.992,8.655,8.655,0,0,0,.591-4.641c1.1-.025,2.069-.044,2.868.864Zm-16.721-.8c.156,1.357-.169,3,.734,4.575-2.077.558-3.71.9-5.01,1.951-1.032,0-3.665-2.31-2.874-2.731,1.354-.635,2.673-2.315,4.023-3.043a5.19,5.19,0,0,1,3.128-.752Zm6.943-1.467.777.78-.777.8-.791-.8Zm16.375,2.11a1.76,1.76,0,0,1-.985.848c-.468.183-.818-.271-.531-.531l1.193-.96c.427-.3.72.005.323.643Zm-.659-.966-1.221.939a.381.381,0,1,1-.506-.569l1.3-1.026c.43-.227.832.241.43.657ZM127.2,141.2l-1.213.939a.381.381,0,1,1-.506-.57l1.3-1.021c.422-.232.829.241.422.651Zm.9.939-1.215.955a.384.384,0,1,1-.506-.577l1.3-1.018c.421-.227.829.238.421.64Zm-3.435-.214a.716.716,0,0,0,.95.884c-.358.764.607,1.16.939,1-.194.52.35,1.226.916.9-.1.621.351.577.764.687a2.694,2.694,0,0,1-1.932.506c-1.045-.531-1.855-1.831-2.654-2.5a1.581,1.581,0,0,1-.175-1.448,15.723,15.723,0,0,1,2.214-2.011c.309.994-.832,1.149-1.021,1.973Zm-19.99-1.954.156,2.318c-1.382,0-3.445,1.8-4.348,2.635A3.972,3.972,0,0,1,98.73,141.9c.246.361.35.186.512.232a.837.837,0,0,0,.629-.531c.093.323.112.485.61.531.268-.1.629-.1.714-.5.1.383.17.454.616.474a.649.649,0,0,0,.662-.545.782.782,0,0,0,.813.545.866.866,0,0,0,.649-.6c.129-.686.162-1.155.72-1.557l.019.019Zm-1.056-.043-.014,1.259c-.123.621-.714.643-.87-.052v-1.193c.033-.663.8-.605.884-.014Zm-1.33,0v1.259c-.137.621-.714.643-.884-.052v-1.193c.047-.663.81-.605.884-.014Zm-1.338,0-.014,1.259c-.134.621-.711.643-.881-.052v-1.193c.044-.663.81-.605.895-.014Zm-1.4-.019V141.3c-.129.476-.649.392-.8-.063a2.99,2.99,0,0,1,.128-1.215c.1-.536.506-.687.668-.114Zm16.383-2.622c1.371,1.511,1.4,2.736,1.39,5h1.732c-.137-2.933-.482-3.738-3.122-5Zm-5.3,0c-1.381,1.511-1.412,2.736-1.393,5h-1.732c.134-2.933.473-3.738,3.125-5Zm3.169-.895c0,2.769-.1,4.449.433,5.377a1.481,1.481,0,0,0,.922.52h1.1c-.066-3.757-.758-4.827-2.458-5.9Zm-1.053,0c0,2.769.093,4.449-.421,5.377a1.5,1.5,0,0,1-.928.52h-1.094c.057-3.757.752-4.827,2.443-5.9Zm14.969,1.434a4.482,4.482,0,0,0-4.672.433l1.174,1.579-.5.465-3.01-3.743.517-.416,1.319,1.494a4.291,4.291,0,0,0,1.609-4.108,4.865,4.865,0,0,1,3.56,4.3Zm-14.534,45.664c-.9-1.089-1.667-1.44-3.952-1.675-2.193-.213-6.267-.1-8.946-.181-1.921-.066-3.166-.72-3.374-2.75,1.464,1.16,4.757.57,7.947.558,3.653-.019,7.391-.3,8.325,1.576.928-1.874,4.666-1.6,8.319-1.576,3.193.011,6.493.6,7.955-.558-.208,2.031-1.461,2.684-3.38,2.75-2.682.084-6.757-.032-8.948.181-2.285.235-3.051.586-3.946,1.675Zm0,1.525c-1.264-3.587-10.421-1.459-13.228-2.168-3.985-1-3.582-3.385-4.135-5.774,2.46,2.589,6.132,1.245,9.843,1.245,2.726,0,6.269-.413,7.52,1.125,1.248-1.538,4.788-1.125,7.514-1.125,3.71,0,6.866,1.352,9.622-1.245-.246,2.173-.019,5.238-3.911,5.774-2.876.392-11.967-1.42-13.226,2.168Zm1.486-15.94a.911.911,0,0,0,.222,1.051,1.2,1.2,0,0,0,.038,1.661,1.286,1.286,0,0,0,.014,1.751,1.143,1.143,0,0,0,.052,1.694,1.1,1.1,0,0,0-.293.87,6.237,6.237,0,0,1-.953-3.582c0-.4-.033-2.466.92-3.445Zm-3.139.011a.942.942,0,0,1-.222,1.04,1.23,1.23,0,0,1-.052,1.661,1.272,1.272,0,0,1-.013,1.751,1.132,1.132,0,0,1-.039,1.694,1.177,1.177,0,0,1,.369.856,6.019,6.019,0,0,0,.876-3.568c0-.383.033-2.447-.92-3.435Zm13.749-3.7a.743.743,0,0,0,0-1.486.743.743,0,1,0,0,1.486Zm-1.921,0a.743.743,0,1,0,0-1.486.743.743,0,0,0,0,1.486Zm-1.9,0a.743.743,0,0,0,0-1.486.743.743,0,1,0,0,1.486Zm-1.97,0a.743.743,0,1,0,0-1.486.743.743,0,0,0,0,1.486Zm-6.256.474a.74.74,0,1,0-.739-.734.737.737,0,0,0,.739.734Zm-2.876,4.047a.736.736,0,1,0,0-1.472.736.736,0,0,0,0,1.472Zm5.613.019a.736.736,0,1,0-.739-.734.744.744,0,0,0,.739.734Zm-5.613,1.661a.739.739,0,0,0,.747-.725.749.749,0,0,0-.747-.734.727.727,0,0,0-.725.734.716.716,0,0,0,.725.725Zm5.613.066a.736.736,0,1,0-.739-.739.745.745,0,0,0,.739.739Zm-5.613,1.751a.755.755,0,0,0,.747-.747.742.742,0,0,0-.747-.725.719.719,0,0,0-.725.725.733.733,0,0,0,.725.747Zm5.613-.033a.736.736,0,1,0-.739-.733.743.743,0,0,0,.739.733Zm-5.613,1.785a.743.743,0,0,0,.747-.733.753.753,0,0,0-.747-.739.731.731,0,0,0-.725.739.721.721,0,0,0,.725.733Zm5.613-.039a.736.736,0,1,0-.739-.733.744.744,0,0,0,.739.733Zm-5.6,1.642a.655.655,0,0,0,0-1.311.655.655,0,1,0,0,1.311Zm5.593-.046a.645.645,0,1,0,0-1.289.645.645,0,1,0,0,1.289Zm-10.046-38.15a.74.74,0,1,0-.738-.734.749.749,0,0,0,.738.734Zm-.09-1.877a.746.746,0,0,0,.733-.744.739.739,0,0,0-.733-.742.752.752,0,0,0-.753.742.759.759,0,0,0,.753.744Zm-.98-1.8a.748.748,0,0,0,.753-.731.761.761,0,0,0-.753-.752.748.748,0,0,0-.733.752.735.735,0,0,0,.733.731Zm-1.732-.829a.743.743,0,1,0,0-1.486.743.743,0,0,0,0,1.486Zm-2.148-.085a.739.739,0,1,0-.739-.734.748.748,0,0,0,.739.734ZM99.217,135.1a.749.749,0,0,0,.733-.748.738.738,0,0,0-.733-.738.746.746,0,0,0-.748.738.757.757,0,0,0,.748.748Zm-1.1,1.68a.743.743,0,1,0,0-1.486.743.743,0,0,0,0,1.486Zm.118,1.959a.739.739,0,0,0,0-1.478.739.739,0,1,0,0,1.478Zm4.3,29.483v1.727a2.174,2.174,0,0,1-.993-1.7Zm24.188-.739c4.321.533,4.751,7.931.052,8.973-3.218.5-6.209-2.731-9.57-.6.071-.213-.175-.487-.364-.577a1.172,1.172,0,0,0,.071-1.746,1.238,1.238,0,0,0,.033-1.8,1.147,1.147,0,0,0,.033-1.661c.142-.1.361-.189.408-.52.928,1.163,3.451,1.1,5.813-.572a4.855,4.855,0,0,0,3.524-1.492Zm-26.18.643a4.277,4.277,0,0,0,2.744,2.958l.006-1.912c1.453.875,3.965,1.434,5.651.355a.689.689,0,0,0,.441.525,1.079,1.079,0,0,0,0,1.675,1.185,1.185,0,0,0,.033,1.746,1.146,1.146,0,0,0,.066,1.855.554.554,0,0,0-.416.629c-3.56-3.278-7.421,1.653-11.179.085-3.355-1.9-1.869-9.676,2.655-7.917Zm1.765-1.864c.946-.109.72,1.092.043.98h-1.888c-.745.085-1.051-1.018-.077-.98Zm.071-1.459a.5.5,0,1,1,.043.985h-1.888c-.745.071-1.051-1.018-.071-.985Zm0-1.434a.5.5,0,1,1,.043.985h-1.888c-.745.071-1.051-1.018-.071-.985Zm0-1.466a.5.5,0,1,1,.043.985h-1.888c-.745.08-1.051-1.01-.071-.985Zm23.2.706c.076.137-.033.435-.137.585-.5-.052-.9-.033-1.155.468-.235-.468-1.494-.52-1.888,0a1.161,1.161,0,0,0-1.85.091,1.192,1.192,0,0,0-.87-.5c-.208-.109-.246-.435-.257-.643Zm-10.817-2.373c.8.432,3.483.791,3.7,1.713l.156,1.368a1.954,1.954,0,0,0-.586,1.311,6.349,6.349,0,0,0,3.284,4.107c-.824.55-2.457,1-3.426,0a2.392,2.392,0,0,0-2.925-.72,3.353,3.353,0,0,0-1.817,2.4c-.26-.922-.747-2.239-1.752-2.427-.72-.427-1.8-.279-2.887.656a2.137,2.137,0,0,1-2.148.4,9.994,9.994,0,0,1,.681-3.118c1.59-2.717,4.964-4.345,7.715-5.695Zm-10.09.57c-.213,2.058.843,4.1-1.193,6.411.312-.643.062-1.084-.312-1.212a.863.863,0,0,0,.151-1.461.937.937,0,0,0-.027-1.447c.624-.512.137-1.454.8-1.908a.971.971,0,0,1,.558-.383Zm7.794-1.336,1.084.474a24.642,24.642,0,0,0-4.589,2.849c-1.951,1.44-3.394,4.874-3.705,6.138a1.388,1.388,0,0,1-1.032-.455c.1-3.322,3.421-6.579,5.49-7.722a14.8,14.8,0,0,1,2.753-1.283Zm-11.187.785h1.245v.791H101.28Zm9.413-16.846c1.91,0,2.545.922,2.545,1.461,0-.539.706-1.461,2.665-1.461h3.114a8.192,8.192,0,0,1-.328,3.848c-.794,1.538-2.422,2.266-3.6,3.576-1.144,1.614-.95,4.866-.6,5.716.487,1.226,2.3,1.888,3.426,1.9s3.639.712,3.626,3.153l-2.225-.006c-.582-1.921-5.442-1.28-7.695-4.2-.947-1.926.019-4.384-.673-6.384-.889-1.666-1.792-1.135-3.018-3.744a7.08,7.08,0,0,1-.46-3.861Z" transform="translate(-63.128 -108.864)" fill="#fff" fill-rule="evenodd"/>
    </g>
  </g>
</svg>
