<svg xmlns="http://www.w3.org/2000/svg" width="19.876" height="19.87" viewBox="0 0 19.876 19.87">
  <g id="key" transform="translate(0 -0.067)">
    <g id="Group_4743" data-name="Group 4743">
      <g id="Group_4742" data-name="Group 4742" transform="translate(0 0.067)">
        <g id="Group_4741" data-name="Group 4741" transform="translate(0 0)">
          <path id="Path_9586" data-name="Path 9586" d="M19.661,6.506a11.327,11.327,0,0,0-2.442-3.84A11.065,11.065,0,0,0,13.407.272a3.121,3.121,0,0,0-3.311.7L7.047,4.008A3.107,3.107,0,0,0,6.4,7.452c.16.36.334.712.52,1.052L.227,15.2A.776.776,0,0,0,0,15.745v3.416a.776.776,0,0,0,.776.776H4.192a.776.776,0,0,0,.776-.776v-1.4h1.4a.776.776,0,0,0,.776-.776v-1.4h1.4a.776.776,0,0,0,0-1.553H6.366a.776.776,0,0,0-.776.776v1.4h-1.4a.776.776,0,0,0-.776.776v1.4H1.553V16.066L8.438,9.182a.776.776,0,0,0,.115-.952,12.564,12.564,0,0,1-.735-1.409,1.545,1.545,0,0,1,.325-1.713l3.049-3.034a1.566,1.566,0,0,1,1.661-.352,9.505,9.505,0,0,1,3.271,2.044,9.768,9.768,0,0,1,2.092,3.307,1.542,1.542,0,0,1-.348,1.657L14.782,11.8a1.563,1.563,0,0,1-1.709.333,10.078,10.078,0,0,1-1.4-.713.776.776,0,0,0-.812,1.323,11.637,11.637,0,0,0,1.613.823,3.112,3.112,0,0,0,3.4-.666l3.086-3.071A3.094,3.094,0,0,0,19.661,6.506Z" transform="translate(0 -0.067)" fill="#ccc"/>
        </g>
      </g>
      <g id="Ellipse_1498" data-name="Ellipse 1498" transform="translate(11.937 6.068)" fill="#ccc" stroke="#ccc" stroke-width="1">
        <circle cx="1" cy="1" r="1" stroke="none"/>
        <circle cx="1" cy="1" r="0.5" fill="none"/>
      </g>
    </g>
  </g>
</svg>
