<svg xmlns="http://www.w3.org/2000/svg" width="26" height="26" viewBox="0 0 26 26">
  <g id="Group_8017" data-name="Group 8017" transform="translate(-371 -188)">
    <g id="Group_7919" data-name="Group 7919" transform="translate(0 72)">
      <g id="Group_5526" data-name="Group 5526" transform="translate(-1282.926 -2784.926)">
        <g id="Group_5521" data-name="Group 5521" transform="translate(1654 2901)">
          <g id="Rectangle_3414" data-name="Rectangle 3414" transform="translate(-0.074 -0.074)" fill="#fff" stroke="#084a9a" stroke-width="1">
            <rect width="26" height="26" rx="2" stroke="none"/>
            <rect x="0.5" y="0.5" width="25" height="25" rx="1.5" fill="none"/>
          </g>
        </g>
      </g>
    </g>
    <g id="Group_7921" data-name="Group 7921" transform="translate(217.675 -97.045)">
      <path id="Path_15294" data-name="Path 15294" d="M-906.7,4755.162l9.166,2.442-3.234,2.584.85,3.61-8.694-2.689Z" transform="translate(1069.897 -4461.964)" fill="none" stroke="#084a9a" stroke-width="1"/>
      <path id="Path_15300" data-name="Path 15300" d="M1.075,0A1.075,1.075,0,1,1,0,1.075,1.075,1.075,0,0,1,1.075,0Z" transform="translate(162.102 292.181)" fill="#084a9a"/>
      <path id="Path_15299" data-name="Path 15299" d="M1.116,0A1.116,1.116,0,1,1,0,1.116,1.116,1.116,0,0,1,1.116,0Z" transform="translate(160.14 298.029)" fill="#084a9a"/>
      <path id="Path_15298" data-name="Path 15298" d="M.977,0A.977.977,0,1,1,0,.977.977.977,0,0,1,.977,0Z" transform="translate(168.985 300.857)" fill="#084a9a"/>
      <path id="Path_15301" data-name="Path 15301" d="M.952,0A.952.952,0,1,1,0,.952.952.952,0,0,1,.952,0Z" transform="translate(171.443 294.737)" fill="#084a9a"/>
    </g>
  </g>
</svg>
