<svg xmlns="http://www.w3.org/2000/svg" xmlns:xlink="http://www.w3.org/1999/xlink" width="395" height="110" viewBox="0 0 395 110">
  <defs>
    <filter id="Rectangle_4022" x="0" y="0" width="395" height="110" filterUnits="userSpaceOnUse">
      <feOffset dy="3" input="SourceAlpha"/>
      <feGaussianBlur stdDeviation="3" result="blur"/>
      <feFlood flood-opacity="0.161"/>
      <feComposite operator="in" in2="blur"/>
      <feComposite in="SourceGraphic"/>
    </filter>
    <clipPath id="clip-path">
      <rect id="Rectangle_4023" data-name="Rectangle 4023" width="377" height="92" transform="translate(0.109 -0.176)" fill="none"/>
    </clipPath>
    <clipPath id="clip-path-2">
      <rect id="Rectangle_3983" data-name="Rectangle 3983" width="70.792" height="55.41" transform="translate(0)" fill="none"/>
    </clipPath>
  </defs>
  <g id="Group_7883" data-name="Group 7883" transform="translate(-10 -299)">
    <g id="Group_7873" data-name="Group 7873" transform="translate(18.891 305.176)">
      <g id="Group_7855" data-name="Group 7855" transform="translate(0 0)">
        <g id="Group_7798" data-name="Group 7798" transform="translate(0 0)">
          <g id="Group_7797" data-name="Group 7797" transform="translate(0 0)">
            <g transform="matrix(1, 0, 0, 1, -8.89, -6.18)" filter="url(#Rectangle_4022)">
              <rect id="Rectangle_4022-2" data-name="Rectangle 4022" width="377" height="92" rx="8" transform="translate(9 6)" fill="#fff"/>
            </g>
            <g id="Group_7795" data-name="Group 7795" transform="translate(0 0)" opacity="0.5">
              <g id="Group_7794" data-name="Group 7794" transform="translate(0)" clip-path="url(#clip-path)">
                <g id="Group_7793" data-name="Group 7793" transform="translate(-118.3 -42.083)">
                  <path id="Path_15268" data-name="Path 15268" d="M-53.515,82.638S-86.059,65.344-19.751,47.816s77-33.485,60.032-46.108S10.391-47.735,90.726-59.929" transform="translate(61.5 59.929)" fill="none" stroke="#eaeaea" stroke-miterlimit="10" stroke-width="1"/>
                  <path id="Path_15269" data-name="Path 15269" d="M-26.515,82.638S-59.059,65.344,7.249,47.816s77-33.485,60.032-46.108-29.89-49.443,50.445-61.637" transform="translate(61.013 59.929)" fill="none" stroke="#eaeaea" stroke-miterlimit="10" stroke-width="1"/>
                  <path id="Path_15270" data-name="Path 15270" d="M.485,82.638S-32.059,65.344,34.249,47.816s77-33.485,60.032-46.108-29.89-49.443,50.445-61.637" transform="translate(60.526 59.929)" fill="none" stroke="#eaeaea" stroke-miterlimit="10" stroke-width="1"/>
                  <path id="Path_15271" data-name="Path 15271" d="M27.485,82.638S-5.059,65.344,61.249,47.816s77-33.485,60.032-46.108-29.89-49.443,50.445-61.637" transform="translate(60.039 59.929)" fill="none" stroke="#eaeaea" stroke-miterlimit="10" stroke-width="1"/>
                  <path id="Path_15272" data-name="Path 15272" d="M54.485,82.638S21.941,65.344,88.249,47.816s77-33.485,60.032-46.108-29.89-49.443,50.445-61.637" transform="translate(59.552 59.929)" fill="none" stroke="#eaeaea" stroke-miterlimit="10" stroke-width="1"/>
                  <path id="Path_15273" data-name="Path 15273" d="M81.485,82.638S48.941,65.344,115.249,47.816s77-33.485,60.032-46.108-29.89-49.443,50.445-61.637" transform="translate(59.065 59.929)" fill="none" stroke="#eaeaea" stroke-miterlimit="10" stroke-width="1"/>
                  <path id="Path_15274" data-name="Path 15274" d="M108.485,82.638S75.941,65.344,142.249,47.816s77-33.485,60.032-46.108-29.89-49.443,50.445-61.637" transform="translate(58.578 59.929)" fill="none" stroke="#eaeaea" stroke-miterlimit="10" stroke-width="1"/>
                  <path id="Path_15275" data-name="Path 15275" d="M135.485,82.638s-32.544-17.294,33.764-34.822,77-33.485,60.032-46.108-29.89-49.443,50.445-61.637" transform="translate(58.09 59.929)" fill="none" stroke="#eaeaea" stroke-miterlimit="10" stroke-width="1"/>
                  <path id="Path_15276" data-name="Path 15276" d="M162.485,82.638s-32.544-17.294,33.764-34.822,77-33.485,60.032-46.108-29.89-49.443,50.445-61.637" transform="translate(57.603 59.929)" fill="none" stroke="#eaeaea" stroke-miterlimit="10" stroke-width="1"/>
                  <path id="Path_15277" data-name="Path 15277" d="M189.485,82.638s-32.544-17.294,33.764-34.822,77-33.485,60.032-46.108-29.89-49.443,50.445-61.637" transform="translate(57.116 59.929)" fill="none" stroke="#eaeaea" stroke-miterlimit="10" stroke-width="1"/>
                  <path id="Path_15278" data-name="Path 15278" d="M216.485,82.638s-32.544-17.294,33.764-34.822,77-33.485,60.032-46.108-29.89-49.443,50.445-61.637" transform="translate(56.629 59.929)" fill="none" stroke="#eaeaea" stroke-miterlimit="10" stroke-width="1"/>
                  <path id="Path_15279" data-name="Path 15279" d="M243.485,82.638s-32.544-17.294,33.764-34.822,77-33.485,60.032-46.108-29.89-49.443,50.445-61.637" transform="translate(56.142 59.929)" fill="none" stroke="#eaeaea" stroke-miterlimit="10" stroke-width="1"/>
                  <path id="Path_15280" data-name="Path 15280" d="M270.485,82.638s-32.544-17.294,33.764-34.822,77-33.485,60.032-46.108-29.89-49.443,50.445-61.637" transform="translate(55.655 59.929)" fill="none" stroke="#eaeaea" stroke-miterlimit="10" stroke-width="1"/>
                  <path id="Path_15281" data-name="Path 15281" d="M297.485,82.638s-32.544-17.294,33.764-34.822,77-33.485,60.032-46.108-29.89-49.443,50.445-61.637" transform="translate(55.168 59.929)" fill="none" stroke="#eaeaea" stroke-miterlimit="10" stroke-width="1"/>
                  <path id="Path_15282" data-name="Path 15282" d="M324.485,82.638s-32.544-17.294,33.764-34.822,77-33.485,60.032-46.108-29.89-49.443,50.445-61.637" transform="translate(54.68 59.929)" fill="none" stroke="#eaeaea" stroke-miterlimit="10" stroke-width="1"/>
                  <path id="Path_15283" data-name="Path 15283" d="M351.485,82.638s-32.544-17.294,33.764-34.822,77-33.485,60.032-46.108-29.89-49.443,50.445-61.637" transform="translate(54.193 59.929)" fill="none" stroke="#eaeaea" stroke-miterlimit="10" stroke-width="1"/>
                  <path id="Path_15284" data-name="Path 15284" d="M378.485,82.638s-32.544-17.294,33.764-34.822,77-33.485,60.032-46.108-29.89-49.443,50.445-61.637" transform="translate(53.706 59.929)" fill="none" stroke="#eaeaea" stroke-miterlimit="10" stroke-width="1"/>
                  <path id="Path_15285" data-name="Path 15285" d="M405.485,82.638s-32.544-17.294,33.764-34.822,77-33.485,60.032-46.108-29.89-49.443,50.445-61.637" transform="translate(53.219 59.929)" fill="none" stroke="#eaeaea" stroke-miterlimit="10" stroke-width="1"/>
                  <path id="Path_15286" data-name="Path 15286" d="M432.485,82.638s-32.544-17.294,33.764-34.822,77-33.485,60.032-46.108-29.89-49.443,50.445-61.637" transform="translate(52.732 59.929)" fill="none" stroke="#eaeaea" stroke-miterlimit="10" stroke-width="1"/>
                  <path id="Path_15287" data-name="Path 15287" d="M459.485,82.638s-32.544-17.294,33.764-34.822,77-33.485,60.032-46.108-29.89-49.443,50.445-61.637" transform="translate(52.245 59.929)" fill="none" stroke="#eaeaea" stroke-miterlimit="10" stroke-width="1"/>
                </g>
              </g>
            </g>
            <rect id="Rectangle_4024" data-name="Rectangle 4024" width="82" height="369" transform="translate(373.109 4.824) rotate(90)" fill="none"/>
          </g>
        </g>
        <g id="Group_7875" data-name="Group 7875" transform="translate(131.303 21.93)">
          <path id="Path_15293" data-name="Path 15293" d="M487.179,884.664c-.484-.1-.654-.134-6.2,2.47,6.43-3.7,6.371-3.783,5.905-4.413a1,1,0,0,0-.6-.353c-.548-.107-.727-.15-9.013,3.76,1.905-1.034,3.712-2.022,5.178-2.843,4.039-2.263,4.523-2.593,4-3.3a1.027,1.027,0,0,0-.606-.357c-.627-.123-1.226.019-10.148,4.25,12.881-6.762,12.812-6.857,12.231-7.644a1.036,1.036,0,0,0-.608-.358c-.453-.091-.98-.022-4.743,1.668,4.494-2.335,4.759-2.7,4.259-3.373a1.017,1.017,0,0,0-.634-.371c-.915-.186-3.186.72-17.3,7.5,3.909-1.974,7.536-3.811,10.375-5.29,1.819-.948,3.145-1.659,4.049-2.176,1.3-.744,2.167-1.236,1.66-1.921a1.088,1.088,0,0,0-.626-.367c-.511-.1-1.558.174-5.116,1.731.95-.493,1.741-.914,2.387-1.272,1.934-1.072,2.84-1.619,2.3-2.348a1.036,1.036,0,0,0-.642-.376c-.446-.088-1.4.148-3.474.987,1.074-.553,1.956-1.024,2.665-1.42,1.8-1.007,2.874-1.663,2.31-2.425a1.078,1.078,0,0,0-.621-.365c-.406-.084-1.2.093-3.417,1.006,5.633-2.874,5.4-3.191,4.974-3.765a1.077,1.077,0,0,0-.622-.365,5.445,5.445,0,0,0-2.336.587c4.826-2.476,4.59-2.8,4.188-3.341a1.106,1.106,0,0,0-.629-.368c-.548-.109-1.932.316-5.762,1.992,4.9-2.56,4.648-2.9,4.246-3.447a1.037,1.037,0,0,0-.646-.377,3.669,3.669,0,0,0-1.582.278c5.761-2.9,5.507-3.239,5.081-3.815a1.037,1.037,0,0,0-.643-.377c-.442-.091-1.47.169-3.652,1.033,3.169-1.726,2.938-2.04,2.593-2.505a1.085,1.085,0,0,0-.678-.395c-.655-.132-2.427.417-5.958,1.907,2.128-1.25,1.913-1.54,1.6-1.957a1.046,1.046,0,0,0-.645-.377c-.567-.113-2.053.329-5.6,1.833,8.667-4.188,8.41-4.534,7.928-5.187a1.034,1.034,0,0,0-.64-.375c-.833-.166-3.844.937-12.837,5.014,2.536-1.491,2.54-1.962,2.183-2.445a1.117,1.117,0,0,0-.694-.4,8.2,8.2,0,0,0-3.221.758c2.96-1.665,2.984-2.128,2.629-2.61a1.127,1.127,0,0,0-.7-.4c-.942-.189-4.036.886-10.5,3.721,1.984-1.2,1.765-1.494,1.465-1.9a1.137,1.137,0,0,0-.708-.41c-.6-.12-2.04.255-4.568,1.219,1.475-.914,1.721-1.381,1.332-1.906a1.053,1.053,0,0,0-.655-.382c-.77-.148-3.314.744-9.114,3.316,2.272-1.3,2.057-1.594,1.743-2.018a1.03,1.03,0,0,0-.64-.375c-.712-.142-2.893.6-9.167,3.414,3.24-1.816,3.3-2.335,2.924-2.849a1.121,1.121,0,0,0-.694-.4c-.758-.151-2.94.538-7.226,2.345,1.652-1.041,1.443-1.322,1.168-1.7a1.053,1.053,0,0,0-.653-.382c-.541-.107-2.075.349-5.072,1.579,4.105-2.127,3.87-2.448,3.485-2.967a1.035,1.035,0,0,0-.64-.375c-.778-.158-3.34.754-11.1,4.271,4.219-2.175,3.984-2.494,3.6-3.016a1.053,1.053,0,0,0-.651-.381c-.666-.132-2.769.567-7.327,2.542.776-.588.855-.96.551-1.373a1.049,1.049,0,0,0-.647-.378c-.5-.1-1.823.276-4.414,1.318,3.346-1.82,3.111-2.139,2.765-2.607a1.069,1.069,0,0,0-.663-.386c-.814-.161-3.657.857-9.953,3.66,1.757-1.141,1.731-1.583,1.4-2.025a1.056,1.056,0,0,0-.653-.382c-.638-.122-2.581.511-6.757,2.321,2.032-1.254,2.031-1.7,1.7-2.144a1.047,1.047,0,0,0-.646-.377c-.676-.141-2.968.659-8.1,2.922,1.477-.961,1.268-1.244,1-1.61a1.088,1.088,0,0,0-.671-.391c-.647-.128-2.557.466-6.277,2.011,5.049-2.631,4.784-2.988,4.39-3.522a1.1,1.1,0,0,0-.681-.4c-.907-.178-3.987.924-10.822,3.98,1.822-1.147,1.8-1.559,1.5-1.973a1.07,1.07,0,0,0-.661-.386c-.733-.144-3.061.64-7.988,2.771,3.182-1.77,2.937-2.1,2.594-2.566a1.093,1.093,0,0,0-.678-.394c-.772-.153-3.208.663-8.17,2.8,1.97-1.18,1.756-1.47,1.459-1.872a1.041,1.041,0,0,0-.644-.377c-.629-.129-2.423.434-6.9,2.359,2.271-1.325,2.043-1.634,1.727-2.062a1.12,1.12,0,0,0-.7-.4c-.665-.133-2.322.35-5.526,1.672,2.163-1.248,2.585-1.8,2.129-2.418a1.077,1.077,0,0,0-.669-.39c-.593-.117-2.169.341-5.224,1.589,1.348-.809,1.654-1.256,1.252-1.8a1.057,1.057,0,0,0-.652-.381c-.783-.157-3.543.834-9.694,3.559.784-.541.987-.936.648-1.4a1.085,1.085,0,0,0-.674-.392c-.8-.156-3.112.643-8.376,3.005.767-.394,1.436-.747,2.015-1.061,2.515-1.364,3.484-2,2.922-2.756a1.079,1.079,0,0,0-.669-.39c-1.014-.207-4.846,1.293-13.756,5.391,6.759-3.406,6.544-3.7,6.1-4.3a1.065,1.065,0,0,0-.617-.363c-.613-.121-1.97.3-8.624,3.338q.765-.393,1.364-.716c2.019-1.085,2.966-1.64,2.423-2.375a1.044,1.044,0,0,0-.649-.378c-.669-.133-2.407.431-7.137,2.542.613-.323,1.151-.613,1.617-.873,1.925-1.071,2.987-1.714,2.428-2.471a1.028,1.028,0,0,0-.635-.372c-1.034-.2-4.787,1.361-20.374,8.741,1.966-.971,3.773-1.87,5.334-2.66,1.869-.946,3.229-1.656,4.157-2.171,1.333-.74,2.214-1.229,1.7-1.923a1.018,1.018,0,0,0-.633-.371c-.722-.141-2.425.431-9.938,3.922,6.676-3.426,6.514-3.646,6.05-4.273a1.02,1.02,0,0,0-.6-.355c-.675-.137-1.4.068-13.891,5.986.794-.414,1.547-.808,2.243-1.178,5.388-2.856,5.667-3.146,5.14-3.859a1.073,1.073,0,0,0-.622-.364c-.788-.154-2.26.4-13.778,5.929,11.105-5.881,10.991-6.034,10.435-6.788a1.017,1.017,0,0,0-.6-.355c-.7-.14-1.366.068-14.589,6.349-1.057.5-2.168,1.03-3.273,1.552l.038-.023c8.039-4.921,8.039-4.921,7.517-5.629a1.028,1.028,0,0,0-.608-.357c-.591-.116-.977-.033-7.365,3.054,5.591-3.731,5.566-3.766,5.106-4.388a.984.984,0,0,0-.592-.35c-.548-.107-.618-.122-7.312,3.074l-.267.127c3.368-2.479,3.322-2.54,2.927-3.074a.958.958,0,0,0-.584-.345c-.463-.093-.463-.094-3.058,1.144-.776.37-1.819.868-2.146,1a1.09,1.09,0,0,0-.235.075.652.652,0,0,0-.342,1,.937.937,0,0,0,.525.332c-4.379,3.209-4.373,3.216-3.943,3.8a.987.987,0,0,0,.593.35c.514.1.618.122,5.958-2.419-5.623,3.753-5.6,3.79-5.134,4.414a1,1,0,0,0,.6.353c.49.095.639.126,5.045-1.989-1.315.808-2.568,1.583-3.593,2.235-2.687,1.708-3.238,2.092-2.756,2.745a1,1,0,0,0,.6.352c.548.112.733.145,9.029-3.769-2.724,1.435-5.242,2.769-7.248,3.864-4.452,2.43-4.858,2.753-4.342,3.451a1.078,1.078,0,0,0,.623.365c.632.126,1.684-.195,7.75-3.047q-.7.367-1.346.706c-4.671,2.467-5.053,2.759-4.531,3.465a1.053,1.053,0,0,0,.614.361c.5.1,1.348-.115,5.151-1.821-8.071,4.1-7.919,4.3-7.426,4.972a1.05,1.05,0,0,0,.613.36c.569.113,1.561-.176,7.147-2.766-2.078,1.066-3.633,1.894-4.738,2.522-1.8,1.021-2.71,1.588-2.174,2.314a1.051,1.051,0,0,0,.614.361c.672.133,2.121-.354,11.107-4.561-1.365.663-2.651,1.293-3.837,1.882-2.5,1.238-4.317,2.173-5.558,2.855-1.652.909-2.743,1.509-2.184,2.267a1.1,1.1,0,0,0,.63.368,6.071,6.071,0,0,0,2.708-.719c-4.294,2.248-4.071,2.549-3.678,3.081a1.112,1.112,0,0,0,.63.37c.721.144,2.946-.652,10.006-3.87-9.609,4.767-9.374,5.085-8.874,5.762a1.087,1.087,0,0,0,.626.367c.734.145,2.895-.653,11.007-4.431-12.123,5.875-11.857,6.237-11.31,6.978a1.1,1.1,0,0,0,.685.4,1.63,1.63,0,0,0,.5,0c-4.664,2.453-4.762,3.014-4.321,3.611a1.1,1.1,0,0,0,.627.368c.5.1,1.779-.27,5.073-1.675-2.286,1.375-2.29,1.839-1.944,2.307a1.037,1.037,0,0,0,.642.376c.642.131,2.387-.429,7.093-2.5-6.889,3.433-6.618,3.8-6.165,4.411a1.132,1.132,0,0,0,.7.407,4.07,4.07,0,0,0,1.633-.235c-2.931,1.663-2.961,2.149-2.594,2.646a1.031,1.031,0,0,0,.639.374c.66.133,2.726-.552,8.2-2.961-3.148,1.751-2.9,2.084-2.557,2.551a1.064,1.064,0,0,0,.658.384c.806.163,3.5-.8,9.7-3.57-4.23,2.223-3.989,2.55-3.616,3.055a1.044,1.044,0,0,0,.647.378c.647.131,2.67-.545,7.061-2.445-4.8,2.48-4.549,2.821-4.149,3.362a1.121,1.121,0,0,0,.7.4c.866.172,3.616-.761,9.257-3.217-3.384,1.851-3.145,2.175-2.8,2.642a1.043,1.043,0,0,0,.645.377c.634.129,2.473-.461,7.158-2.5-1.564.991-1.356,1.274-1.075,1.653a1.1,1.1,0,0,0,.679.4c.7.141,2.724-.495,6.684-2.146-1.379.922-1.322,1.29-1.036,1.677a1.13,1.13,0,0,0,.7.408c.763.153,2.944-.526,7.078-2.246-1.608,1.023-1.551,1.4-1.251,1.8a1.1,1.1,0,0,0,.683.4c.8.16,3.3-.68,8.4-2.875-1.322.87-1.127,1.133-.873,1.478a1.037,1.037,0,0,0,.642.376c.405.084,1.315-.134,3.17-.844-3.078,1.671-2.849,1.98-2.507,2.442a1.087,1.087,0,0,0,.673.392c.76.149,3.237-.681,8.277-2.849-1.081.813-1.037,1.191-.768,1.556a1.091,1.091,0,0,0,.675.393c.809.163,3.518-.764,9.1-3.182-.964.749-.917,1.109-.66,1.456a1.047,1.047,0,0,0,.648.379c.516.107,1.9-.3,4.641-1.417-4.8,2.481-4.555,2.813-4.17,3.333a1.08,1.08,0,0,0,.673.391,1.063,1.063,0,0,0,.207.018c1.027,0,3.776-1,9.312-3.459-2,1.145-2.366,1.646-1.929,2.238a1.1,1.1,0,0,0,.683.4c.79.156,3.286-.665,8.323-2.821-.644.522-.7.869-.413,1.253a1.082,1.082,0,0,0,.674.392c.639.129,2.379-.392,5.788-1.794-2.447,1.424-2.444,1.858-2.106,2.314a1.033,1.033,0,0,0,.641.374c.749.148,3.1-.685,10.212-3.924-4.412,2.352-4.516,2.908-4.1,3.474a1.061,1.061,0,0,0,.657.383c.647.126,2.587-.5,6.718-2.281-3.273,1.8-3.026,2.13-2.671,2.61a1.073,1.073,0,0,0,.667.388c.9.178,3.983-.953,11.3-4.267-2.267,1.239-2.844,1.779-2.354,2.442a1.037,1.037,0,0,0,.638.375c.55.111,2.05-.334,5.607-1.829-3.233,1.846-3.317,2.4-2.927,2.928a1.075,1.075,0,0,0,.666.389c.854.166,3.8-.882,10.332-3.782-1.422.928-1.218,1.2-.946,1.572a1.127,1.127,0,0,0,.7.4,5.642,5.642,0,0,0,2.291-.439c-2.292,1.35-2.059,1.664-1.745,2.09a1.042,1.042,0,0,0,.648.378c.632.125,2.409-.423,6.856-2.342-1.057.715-1.208,1.127-.863,1.593a1.089,1.089,0,0,0,.675.393c.893.173,3.808-.869,10.353-3.8-2.413,1.363-2.207,1.642-1.885,2.077a1.046,1.046,0,0,0,.65.38c.427.088,1.332-.121,3.177-.829-2.466,1.412-2.243,1.713-1.918,2.153a1.048,1.048,0,0,0,.645.378c.777.151,3.152-.675,10.064-3.8-1.936,1.047-2.823,1.612-2.294,2.327a1.062,1.062,0,0,0,.616.363c.754.153,2.636-.517,14.2-5.916-2.524,1.251-4.367,2.2-5.631,2.907-1.747.974-2.789,1.609-2.235,2.359a1.056,1.056,0,0,0,.616.362c.762.15,2.437-.465,14.358-6.113-12.442,6.064-12.3,6.26-11.735,7.021a1.041,1.041,0,0,0,.61.359c.886.18,2.994-.691,23.3-10.346,1.582-.752,3.221-1.532,4.872-2.314-19.33,9.764-19.226,9.906-18.576,10.784a1.1,1.1,0,0,0,.632.371c.649.13,1.828-.216,7.725-2.96-3.4,1.832-3.4,2.145-2.979,2.719a1.022,1.022,0,0,0,.6.356c.74.151,1.622-.137,18.2-8.009l.5-.237c-3.427,1.8-6.847,3.592-9.422,4.985-1.576.852-2.725,1.493-3.513,1.959-1.177.7-1.955,1.156-1.466,1.818a1.036,1.036,0,0,0,.611.359c.7.136,1.51-.087,13.984-6.034-1.979,1.074-3.861,2.1-5.38,2.953-4.039,2.263-4.522,2.593-4,3.3a1.007,1.007,0,0,0,.6.353c.618.123.793.161,12.477-5.381-6.874,3.955-6.816,4.035-6.337,4.683a.983.983,0,0,0,.592.35c.574.115.67.133,9.477-4.046-5.407,3.277-5.367,3.332-4.913,3.946a.962.962,0,0,0,.583.346c.524.1.537.106,6.429-2.665,2.048-.964,4.821-2.269,5.434-2.494a1.124,1.124,0,0,0,.277-.083.653.653,0,0,0,.345-1,.962.962,0,0,0-.583-.346c-.243-.05-.376-.077-1.042.188.584-.358,1.134-.7,1.628-1.007,2.476-1.55,3.064-1.919,2.578-2.575A1,1,0,0,0,487.179,884.664Zm-24.386-33.029c-8.954,4.476-26.942,12.691-42.182,19.65l-.432.2C436.023,863.908,453.592,855.546,462.793,851.635Zm-9.961,1.466c-7.948,3.932-22.65,10.669-36.086,16.827q-3.815,1.748-7.237,3.32C425.041,865.824,443.265,857.153,452.832,853.1Zm-7.961.972c-5.534,2.669-12.846,6.062-20.492,9.573C432.034,860.016,439.284,856.608,444.871,854.073ZM435.1,852.71c-8.415,4.3-26.507,12.549-41.764,19.5l-1.061.483C408.145,865.091,426.217,856.455,435.1,852.71Zm-17.755,5.381c-3.583,1.691-7.56,3.546-11.694,5.462C409.77,861.616,413.743,859.756,417.35,858.091ZM404.6,855.7c-6.059,2.907-14.08,6.616-22.419,10.434C390.371,862.267,398.4,858.505,404.6,855.7Zm-7.689-2.1c-6.435,3.212-16.618,7.928-27.13,12.732C380.1,861.394,390.25,856.577,396.914,853.592Zm-8.488,1.065c-5.005,2.417-11.512,5.436-18.43,8.605C376.877,860,383.351,856.967,388.426,854.658Zm-33.957,12.919c9.987-4.729,19.767-9.314,26.714-12.409C374.27,858.495,364.324,863.073,354.469,867.577Zm25.21-14.782c-7.761,3.8-20,9.479-31.778,14.913C359.91,861.958,371.868,856.274,379.679,852.795Zm-9.41,1.41c-8.77,4.328-23.806,11.233-37.33,17.427C346.333,865.265,361.242,858.2,370.269,854.2Zm-6.3-.149c-8.878,4.359-23.882,11.274-36.967,17.3C340.329,865,354.986,858.026,363.974,854.056Zm-26.787,6.767c4.089-1.941,7.929-3.742,11.224-5.243C345.166,857.125,341.329,858.913,337.187,860.823Zm11.034-8.085c-8.545,4.292-24.43,11.583-37.966,17.795l-2.386,1.1,2.146-1.023C323.495,864.177,339.315,856.632,348.221,852.738ZM298.747,867.3c8.653-4.139,19.147-9.16,26.919-12.707-6.628,3.218-15.421,7.333-23.189,10.97l-4.807,2.252Zm-.414,1.91c-6.541,3.152-13.2,6.34-18.524,8.792C285.1,875.426,291.83,872.257,298.333,869.209Zm-2.555,6.459c-5.41,2.566-10.558,4.988-14.843,6.958C285.159,880.592,290.317,878.185,295.779,875.668Zm6.618.174c-8.694,4.174-17.153,8.183-23.07,10.807C285.115,883.825,293.625,879.877,302.4,875.841ZM282.7,887.581c5.589-2.679,12.757-6,20.182-9.4C295.436,881.7,288.328,885.021,282.7,887.581Zm7.5-.525c4.506-2.151,9.9-4.669,15.548-7.283C300.087,882.458,294.725,884.979,290.2,887.056Zm5.9,3.363c6.992-3.39,17.742-8.344,28.472-13.261C313.761,882.318,303.181,887.3,296.106,890.419Zm40.5-13c-9.508,4.5-18.654,8.778-25.247,11.708C317.885,886,327.132,881.75,336.6,877.424Zm-23.03,13.521c7.761-3.886,23.139-10.87,37.426-17.346C336.511,880.519,321.556,887.594,313.571,890.945Zm8.846-1.135c6.642-3.226,16.9-7.924,27.228-12.626C339.2,882.141,329.135,886.862,322.417,889.809Zm23.339-5.357c-1.85.861-3.634,1.687-5.334,2.468C342.121,886.13,343.907,885.3,345.756,884.452Zm-8.556,6.672c9.162-4.766,30.555-14.5,47.143-22.051,3.5-1.594,6.707-3.054,9.634-4.391q-3.925,1.861-8.4,3.987C367.9,877.07,346.855,887.075,337.2,891.124Zm11.414-2.49c8.24-4.126,22.748-10.789,36.528-17.074C371.665,877.961,357.2,884.827,348.613,888.634Zm9.038,1.838c8.247-4.062,23.068-10.816,36.632-17l.1-.046C380.481,880.04,366.04,886.851,357.651,890.472Zm9.432-1.6c8.561-4.217,23.272-10.977,36.577-17.073C390.277,878.174,375.821,885.029,367.083,888.87Zm12.528.066c6.545-3.2,16-7.6,25.622-12.026C395.627,881.492,386.261,885.927,379.611,888.936ZM389,887.559c2.483-1.173,5.213-2.448,8.1-3.789C394.23,885.125,391.5,886.4,389,887.559Zm17.834.714c6.4-3.108,15.677-7.422,24.842-11.653C422.465,881.039,413.3,885.387,406.834,888.273Zm14.07-4.062q-1.781.834-3.487,1.626C418.549,885.308,419.715,884.764,420.9,884.211Zm-6.376,5.733c6.053-2.952,14.782-7,23.608-11.046C429.472,883.033,420.75,887.158,414.528,889.944ZM435.864,871.7c-15.271,7.269-33.356,15.876-42.4,19.751,9.3-4.818,30.126-14.317,47.648-22.311l3.6-1.641Q440.6,869.445,435.864,871.7Zm-11.369.8-4.129,1.888.293-.14c16.03-7.682,35.064-16.8,44.287-20.7C456.7,857.78,439.236,865.764,424.5,872.5Z" transform="translate(-264.406 -847.859)" fill="#6ac6fb"/>
          <g id="Component_7_39" data-name="Component 7 – 39" transform="translate(42.806 10.894)">
            <text id="Anggota_Keluarga" data-name="Anggota Keluarga" transform="translate(68 18)" fill="#444" font-size="17" font-family="Roboto-Bold, Roboto" font-weight="700"><tspan x="-68.403" y="0">Anggota Keluarga</tspan></text>
          </g>
        </g>
      </g>
      <path id="Subtraction_9" data-name="Subtraction 9" d="M109,92H8a8.009,8.009,0,0,1-8-8V8A8.009,8.009,0,0,1,8,0H109V17.249l-16.063,9.2L109,35.65V92Z" transform="translate(0.109 -0.176)" fill="#6ac6fb"/>
    </g>
    <g id="Group_7880" data-name="Group 7880" transform="translate(-1136.98 543.191)">
      <g id="Path_14982" data-name="Path 14982" transform="translate(1186.341 -212.646)" fill="#fff">
        <path d="M 41.46970748901367 47.62462997436523 L -7.858696460723877 41.01358032226562 L -1.847308397293091 0.5812558531761169 L 48.38715744018555 9.403961181640625 L 41.46970748901367 47.62462997436523 Z" stroke="none"/>
        <path d="M -1.428226470947266 1.162509918212891 L -7.289543151855469 40.58538055419922 L 41.06276321411133 47.06562042236328 L 47.80564117431641 9.809482574462891 L -1.428226470947266 1.162509918212891 M -2.266380310058594 3.814697265625e-06 L 48.96866989135742 8.998443603515625 L 41.87665939331055 48.18364334106445 L -8.427860260009766 41.44176483154297 L -2.266380310058594 3.814697265625e-06 Z" stroke="none" fill="#707070"/>
      </g>
      <g id="Group_7122" data-name="Group 7122" transform="translate(1173.404 -219.838)">
        <g id="Group_6832" data-name="Group 6832" transform="translate(0 0)">
          <g id="Group_6831" data-name="Group 6831" transform="translate(0)" clip-path="url(#clip-path-2)">
            <path id="Path_13630" data-name="Path 13630" d="M273.556,277.967s-.536-3.644.073-3.644,6.724-.511,6.778,0,0,3.28,0,3.28a59.316,59.316,0,0,1,7.133,1.227c4.006,1.063,13.3,11.221,12.954,14.44s-11.654,4.419-12.871,4.158-.363-3.827-.363-3.827,6.844-1.213,6.753-1.548c-.211-.774-5.781-5.66-5.781-5.66s-2.142,10.035-4.491,17.777c0,0-10.691.741-15.823-1.172s3.019-17.563,3.019-17.563l-4.958-3.827s.87-1.8,1.819-2.255A31.936,31.936,0,0,1,273.556,277.967Z" transform="translate(-229.3 -251.641)" fill="#be4045"/>
            <path id="Path_13631" data-name="Path 13631" d="M292.277,302.514c-1.025-.272-2.216-.5-3.328-.692a19.959,19.959,0,0,1-1.471,5.33,23.744,23.744,0,0,1-3.668,6.1c-2.978,3.5-6.894,6.08-11.425,6.445-1.035,4.6-1.654,6.331.74,7.224,5.132,1.914,15.823,1.172,15.823,1.172,1.066-3.514,2.091-4.189,2.757-8.5,0,.747.154,1.412.654,1.519,1.218.261,12.523-.94,12.871-4.158S296.283,303.577,292.277,302.514Zm-.227,14.761c.587-4.1.918-7.2.918-7.2s5.57,4.886,5.781,5.66C298.836,316.055,292.684,317.162,292.05,317.275Z" transform="translate(-234.037 -275.326)" opacity="0.1"/>
            <path id="Path_13632" data-name="Path 13632" d="M136.991,210.591a7.193,7.193,0,0,1,7.307-.638c4.581,2.262,3.133,5.3,5.252,9.235,2.077,3.859,3.54,10.316-4.578,12.345-6.341,1.585-5.6-8.01-5.6-8.01Z" transform="translate(-119.115 -196.223)" fill="#825f51"/>
            <path id="Path_13633" data-name="Path 13633" d="M128.511,322.639v3.045l4.454.506s-4.193,3.583-11.5.451l3.392-.87v-3.131Z" transform="translate(-105.852 -293.108)" fill="#ffdcca"/>
            <path id="Path_13634" data-name="Path 13634" d="M128.511,322.639v3.045l4.032.456s-3.771,3.632-11.078.5l3.392-.87v-3.131Z" transform="translate(-105.852 -293.108)" opacity="0.1"/>
            <path id="Path_13635" data-name="Path 13635" d="M106.316,222.751a8.558,8.558,0,0,1,4.987,1.334c1.972,1.508,2.9,3.6,3.189,6.843s-.711,7.02-4.307,7.716c-3.674.711-9.184-1.557-9.532-5.442,0,0-.137.568-.717-.36s-1.044-5.451.464-4.639S106.316,222.751,106.316,222.751Z" transform="translate(-86.991 -207.776)" fill="#ffdcca"/>
            <path id="Path_13636" data-name="Path 13636" d="M103.478,259.3a7.042,7.042,0,0,1-1.132-3.666,15.713,15.713,0,0,1,.147-2.693,4.935,4.935,0,0,1,.281-1.068c-.938.9-1.838,1.5-2.373,1.212-1.508-.812-1.044,3.711-.464,4.639s.717.36.717.36c.348,3.885,5.858,6.153,9.532,5.442a4.762,4.762,0,0,0,2.509-1.3C111.009,263.086,106.64,263.609,103.478,259.3Z" transform="translate(-86.991 -232.654)" opacity="0.06"/>
            <path id="Path_13637" data-name="Path 13637" d="M88.822,205.741s-.7,6.495-7.017,7.829c0,0-.226-2.22-1.392-1.682-1.508.7-.515,4.329,1.34,4.387,0,0-.109,3.366,4.429,4.807,0,0,.059,2.491-.289,2.665s-4.958,2-8.032-.957-1.624-8-.058-12.178,3.653-8.061,7.6-8.119S88.822,205.741,88.822,205.741Z" transform="translate(-67.062 -190.476)" fill="#96705f"/>
            <path id="Path_13638" data-name="Path 13638" d="M81.754,236.476c-1.856-.058-2.848-3.691-1.34-4.387,1.166-.538,1.392,1.682,1.392,1.682a8.935,8.935,0,0,0,2.372-.851c-.081-.038-.161-.079-.24-.123a7.535,7.535,0,0,1-2.289-1.737,6.372,6.372,0,0,1-.936-1.429,6.1,6.1,0,0,1-.676-3.49,24.11,24.11,0,0,0-2.233,4.672c-1.566,4.175-3.015,9.221.058,12.178s7.973,1.035,8.32.862,0-2.57,0-2.57C81.645,239.842,81.754,236.476,81.754,236.476Z" transform="translate(-67.062 -210.677)" fill="#825f51"/>
            <path id="Path_13645" data-name="Path 13645" d="M97.878,344.352s-4.828.364-5.887,3.761c-1.815,5.823-1.167,11.166-.66,9.76a2.028,2.028,0,0,0,2.328,1.387H114.42s1.719-15.154-9.647-15.734c0,0-.232,1.856-3.363,2.088C98.461,345.831,97.878,344.352,97.878,344.352Z" transform="translate(-79.998 -310.949)" fill="#e08985"/>
            <path id="Path_13646" data-name="Path 13646" d="M118.562,347.326a7.244,7.244,0,0,1,.234,2.083,23.354,23.354,0,0,1-.755,6.693,12.453,12.453,0,0,1-3.739,5.654c-2.426,2.21-6.024-2.62-9.032-1.482a5.292,5.292,0,0,1-1.275.308c.9,2.419,1.275,1.68,1.275,1.68l21.253,2.287S127.336,350.918,118.562,347.326Z" transform="translate(-91.267 -314.196)" fill="#cc7a7a"/>
            <path id="Path_13648" data-name="Path 13648" d="M244.136,405.584l-.043,2.784,3.305.174-.051-2.957Z" transform="translate(-210.604 -363.962)" fill="#e5bbaa"/>
            <path id="Path_13665" data-name="Path 13665" d="M212.12,412.055s-1.8-.089-1.856.148a5.366,5.366,0,0,0,.015,1.009s-3.378.5-4.538,3.2-.812,3.385-.812,3.385h14.208s.252-.257,0-2.287c-.261-2.107-2.494-3.709-4.726-4.035l-.087-1.2S213.86,412.263,212.12,412.055Z" transform="translate(-177.139 -369.476)" fill="#59aa91"/>
            <path id="Path_13666" data-name="Path 13666" d="M219.13,428.012a4.948,4.948,0,0,0-3.384-3.685,13.055,13.055,0,0,1-.428,2.485,7.137,7.137,0,0,1-2.441,3.7c-2.267,1.746-5.008-3.148-7.747-3.23-.091,0-.18-.01-.268-.019-.037,1.8.061,3.25.061,3.25H219.13A5.345,5.345,0,0,0,219.13,428.012Z" transform="translate(-177.132 -379.973)" opacity="0.06"/>
            <path id="Path_13667" data-name="Path 13667" d="M97.788,418.948a18.248,18.248,0,0,0,7.192-2.128l6.946,6.192-5.521-.722S99.712,421.975,97.788,418.948Z" transform="translate(-85.627 -373.56)" fill="#ffdcca"/>
            <path id="Path_13668" data-name="Path 13668" d="M273.007,421.107s.532-1.209,1.26-1.151c1.436.114,2.636,1.781,1.093,2.878s.042-1.162.042-1.162-3.061,2.724-.515-.494c0,0-2.994,2.953-.68-.412C274.207,420.766,271.85,423.083,273.007,421.107Z" transform="translate(-235.031 -376.237)" fill="#ffdcca"/>
            <path id="Path_13671" data-name="Path 13671" d="M38.859,144l-7,43.393,1.013,1.151,53.335,6.929,7.981-40.88-1.013-1.151Zm44.766,48.345-47.6-6.459,5.768-37.827L90.084,157.1Z" transform="translate(-29.312 -140.508)" fill="#93764c"/>
            <path id="Path_13672" data-name="Path 13672" d="M37.846,136.1l-5.983,44.543L85.2,187.575l7.981-40.88Zm44.766,48.345-47.6-6.459,5.768-37.827L89.071,149.2Z" transform="translate(-29.312 -133.764)" fill="#dab46f"/>
            <path id="Path_13674" data-name="Path 13674" d="M370.855,225.16s0-3.351.7-3.459a1.433,1.433,0,0,1,1.675,1.73c-.162,1.459-.757,3.513-2.7,2.918S370.855,225.16,370.855,225.16Z" transform="translate(-317.938 -206.869)" fill="#f9cdbb"/>
            <path id="Path_13675" data-name="Path 13675" d="M299.321,162.753s-1.412-2.374-2.623-.723a28.234,28.234,0,0,0-1.582,5.159c-.519,2.584-1.551,8.882.7,11.559,1.907,2.265,8.541,3.387,10.3-2.594,0,0,1.484-7.92,1.146-9.744S307.476,160.863,299.321,162.753Z" transform="translate(-253.599 -155.412)" fill="#f9cdbb"/>
            <path id="Path_13676" data-name="Path 13676" d="M313.446,177.444a.3.3,0,0,0-.179.11,17.484,17.484,0,0,0,.222-3.944c-.2-1.1-.084-2.907-1.769-3.736a9.122,9.122,0,0,1,.53,2.5c.337,1.824-1.146,9.744-1.146,9.744-1.538,5.242-6.823,5.028-9.39,3.37a4.1,4.1,0,0,0,.333.463c1.907,2.265,8.541,3.387,10.3-2.594,0,0,.089-.477.219-1.224,1.831.452,2.4-1.534,2.559-2.957A1.433,1.433,0,0,0,313.446,177.444Z" transform="translate(-259.825 -162.613)" opacity="0.1"/>
            <path id="Path_13683" data-name="Path 13683" d="M305.358,141.985s-1.086-.268-5.669-.789c0,0-6.785-1.032-8.373-1.119s1.163,1.7,1.163,1.7-.434,1.173,2.5,2.286c1.789.679,5.893.829,8.2.959-.093,1.043-.164,3.216.718,4.23.646.743.469,4.1.469,4.1l.918.18s.7-3.354,1.7-2.75C306.984,150.788,309.341,141.829,305.358,141.985Z" transform="translate(-252.268 -135.726)" fill="#5c5c5c"/>
            <path id="Path_13684" data-name="Path 13684" d="M367.092,164.691a4.727,4.727,0,0,1-1.752,4.53,4.2,4.2,0,0,1-1.472.753,3.468,3.468,0,0,0,.678,1.74c.646.743.469,4.1.469,4.1l.918.18s.7-3.354,1.7-2.75C367.636,173.246,369.51,166.125,367.092,164.691Z" transform="translate(-312.92 -158.184)" opacity="0.1"/>
            <path id="Path_13686" data-name="Path 13686" d="M396.456,404.6s1-2.7-.544-3.465-6.157-.44-.44,1.1c0,0-7.586-.33-.11,1.319,0,0-6.157,0-.22,1.209,0,0-4.9.491-.407.973C396.663,405.938,396.456,404.6,396.456,404.6Z" transform="translate(-337.008 -359.817)" fill="#f9cdbb"/>
          </g>
        </g>
        <g id="Group_6834" data-name="Group 6834" transform="translate(27.965 27.617)">
          <path id="Path_13688" data-name="Path 13688" d="M1218.426,127.287c1.754-2.251,8.161-3.848,11.052,0s.4,11.66.4,11.66H1217.96S1216.672,129.538,1218.426,127.287Z" transform="translate(-1216.816 -124.962)" fill="#444"/>
          <g id="Group_6833" data-name="Group 6833" transform="translate(0 2.259)">
            <g id="Group_6830" data-name="Group 6830" transform="translate(0 0)">
              <path id="Path_13649" data-name="Path 13649" d="M221.987,325.177s-3.255,1.4-3.255,6.707c0,4.415,3.6,5.381,5.225,5.519,3,.255,6.51-1.7,6-7.726S221.987,325.177,221.987,325.177Z" transform="translate(-216.905 -325.004)" fill="#f9d3c2"/>
              <path id="Path_13650" data-name="Path 13650" d="M240.02,333.777a4.533,4.533,0,0,0-2.535-3.973A4.723,4.723,0,0,1,239,333.1c.514,6.028-3,7.981-6,7.726a6.866,6.866,0,0,1-2.487-.7,6.389,6.389,0,0,0,3.508,1.385C237.022,341.758,240.534,339.805,240.02,333.777Z" transform="translate(-226.972 -329.104)" opacity="0.06"/>
              <path id="Path_13651" data-name="Path 13651" d="M222.8,322.63Z" transform="translate(-209.767 -317.471)" fill="#b7816c"/>
              <path id="Path_13654" data-name="Path 13654" d="M295.374,366.8l-.261,2.218s1.348.3,1.479-.826S296.2,366.8,295.374,366.8Z" transform="translate(-282.152 -360.705)" fill="#f9d3c2"/>
              <path id="Path_13655" data-name="Path 13655" d="M207.513,360.429l.112,2.231s-1.366.214-1.42-.923S206.688,360.374,207.513,360.429Z" transform="translate(-206.201 -355.259)" fill="#f9d3c2"/>
            </g>
            <path id="Path_13669" data-name="Path 13669" d="M275.239,376.719c-.017.384-.549.672-1.189.644s-1.145-.362-1.128-.746.549-.672,1.189-.644S275.256,376.335,275.239,376.719Z" transform="translate(-263.195 -368.541)" fill="#e08985" opacity="0.3"/>
            <path id="Path_13670" data-name="Path 13670" d="M223.079,372.232c-.017.384-.549.672-1.189.644s-1.145-.362-1.128-.746.549-.672,1.189-.644S223.1,371.848,223.079,372.232Z" transform="translate(-218.639 -364.708)" fill="#e08985" opacity="0.3"/>
          </g>
        </g>
      </g>
    </g>
  </g>
</svg>
