<svg xmlns="http://www.w3.org/2000/svg" xmlns:xlink="http://www.w3.org/1999/xlink" width="395" height="110" viewBox="0 0 395 110">
  <defs>
    <filter id="Rectangle_4022" x="0" y="0" width="395" height="110" filterUnits="userSpaceOnUse">
      <feOffset dy="3" input="SourceAlpha"/>
      <feGaussianBlur stdDeviation="3" result="blur"/>
      <feFlood flood-opacity="0.161"/>
      <feComposite operator="in" in2="blur"/>
      <feComposite in="SourceGraphic"/>
    </filter>
    <clipPath id="clip-path">
      <rect id="Rectangle_4023" data-name="Rectangle 4023" width="377" height="92" transform="translate(0.109 -0.099)" fill="none"/>
    </clipPath>
  </defs>
  <g id="Group_7882" data-name="Group 7882" transform="translate(-10 -408)">
    <g id="Group_7879" data-name="Group 7879" transform="translate(18.891 414.099)">
      <g id="Group_7872" data-name="Group 7872" transform="translate(0)">
        <g id="Group_7866" data-name="Group 7866">
          <g id="Group_7860" data-name="Group 7860">
            <g id="Group_7855" data-name="Group 7855">
              <g id="Group_7798" data-name="Group 7798" transform="translate(0 0)">
                <g id="Group_7797" data-name="Group 7797" transform="translate(0 0)">
                  <g transform="matrix(1, 0, 0, 1, -8.89, -6.1)" filter="url(#Rectangle_4022)">
                    <rect id="Rectangle_4022-2" data-name="Rectangle 4022" width="377" height="92" rx="8" transform="translate(9 6)" fill="#fff"/>
                  </g>
                  <g id="Group_7795" data-name="Group 7795" transform="translate(0 0)" opacity="0.5">
                    <g id="Group_7794" data-name="Group 7794" transform="translate(0)" clip-path="url(#clip-path)">
                      <g id="Group_7793" data-name="Group 7793" transform="translate(-118.3 -42.083)">
                        <path id="Path_15268" data-name="Path 15268" d="M-53.515,82.638S-86.059,65.344-19.751,47.816s77-33.485,60.032-46.108S10.391-47.735,90.726-59.929" transform="translate(61.5 59.929)" fill="none" stroke="#eaeaea" stroke-miterlimit="10" stroke-width="1"/>
                        <path id="Path_15269" data-name="Path 15269" d="M-26.515,82.638S-59.059,65.344,7.249,47.816s77-33.485,60.032-46.108-29.89-49.443,50.445-61.637" transform="translate(61.013 59.929)" fill="none" stroke="#eaeaea" stroke-miterlimit="10" stroke-width="1"/>
                        <path id="Path_15270" data-name="Path 15270" d="M.485,82.638S-32.059,65.344,34.249,47.816s77-33.485,60.032-46.108-29.89-49.443,50.445-61.637" transform="translate(60.526 59.929)" fill="none" stroke="#eaeaea" stroke-miterlimit="10" stroke-width="1"/>
                        <path id="Path_15271" data-name="Path 15271" d="M27.485,82.638S-5.059,65.344,61.249,47.816s77-33.485,60.032-46.108-29.89-49.443,50.445-61.637" transform="translate(60.039 59.929)" fill="none" stroke="#eaeaea" stroke-miterlimit="10" stroke-width="1"/>
                        <path id="Path_15272" data-name="Path 15272" d="M54.485,82.638S21.941,65.344,88.249,47.816s77-33.485,60.032-46.108-29.89-49.443,50.445-61.637" transform="translate(59.552 59.929)" fill="none" stroke="#eaeaea" stroke-miterlimit="10" stroke-width="1"/>
                        <path id="Path_15273" data-name="Path 15273" d="M81.485,82.638S48.941,65.344,115.249,47.816s77-33.485,60.032-46.108-29.89-49.443,50.445-61.637" transform="translate(59.065 59.929)" fill="none" stroke="#eaeaea" stroke-miterlimit="10" stroke-width="1"/>
                        <path id="Path_15274" data-name="Path 15274" d="M108.485,82.638S75.941,65.344,142.249,47.816s77-33.485,60.032-46.108-29.89-49.443,50.445-61.637" transform="translate(58.578 59.929)" fill="none" stroke="#eaeaea" stroke-miterlimit="10" stroke-width="1"/>
                        <path id="Path_15275" data-name="Path 15275" d="M135.485,82.638s-32.544-17.294,33.764-34.822,77-33.485,60.032-46.108-29.89-49.443,50.445-61.637" transform="translate(58.09 59.929)" fill="none" stroke="#eaeaea" stroke-miterlimit="10" stroke-width="1"/>
                        <path id="Path_15276" data-name="Path 15276" d="M162.485,82.638s-32.544-17.294,33.764-34.822,77-33.485,60.032-46.108-29.89-49.443,50.445-61.637" transform="translate(57.603 59.929)" fill="none" stroke="#eaeaea" stroke-miterlimit="10" stroke-width="1"/>
                        <path id="Path_15277" data-name="Path 15277" d="M189.485,82.638s-32.544-17.294,33.764-34.822,77-33.485,60.032-46.108-29.89-49.443,50.445-61.637" transform="translate(57.116 59.929)" fill="none" stroke="#eaeaea" stroke-miterlimit="10" stroke-width="1"/>
                        <path id="Path_15278" data-name="Path 15278" d="M216.485,82.638s-32.544-17.294,33.764-34.822,77-33.485,60.032-46.108-29.89-49.443,50.445-61.637" transform="translate(56.629 59.929)" fill="none" stroke="#eaeaea" stroke-miterlimit="10" stroke-width="1"/>
                        <path id="Path_15279" data-name="Path 15279" d="M243.485,82.638s-32.544-17.294,33.764-34.822,77-33.485,60.032-46.108-29.89-49.443,50.445-61.637" transform="translate(56.142 59.929)" fill="none" stroke="#eaeaea" stroke-miterlimit="10" stroke-width="1"/>
                        <path id="Path_15280" data-name="Path 15280" d="M270.485,82.638s-32.544-17.294,33.764-34.822,77-33.485,60.032-46.108-29.89-49.443,50.445-61.637" transform="translate(55.655 59.929)" fill="none" stroke="#eaeaea" stroke-miterlimit="10" stroke-width="1"/>
                        <path id="Path_15281" data-name="Path 15281" d="M297.485,82.638s-32.544-17.294,33.764-34.822,77-33.485,60.032-46.108-29.89-49.443,50.445-61.637" transform="translate(55.168 59.929)" fill="none" stroke="#eaeaea" stroke-miterlimit="10" stroke-width="1"/>
                        <path id="Path_15282" data-name="Path 15282" d="M324.485,82.638s-32.544-17.294,33.764-34.822,77-33.485,60.032-46.108-29.89-49.443,50.445-61.637" transform="translate(54.68 59.929)" fill="none" stroke="#eaeaea" stroke-miterlimit="10" stroke-width="1"/>
                        <path id="Path_15283" data-name="Path 15283" d="M351.485,82.638s-32.544-17.294,33.764-34.822,77-33.485,60.032-46.108-29.89-49.443,50.445-61.637" transform="translate(54.193 59.929)" fill="none" stroke="#eaeaea" stroke-miterlimit="10" stroke-width="1"/>
                        <path id="Path_15284" data-name="Path 15284" d="M378.485,82.638s-32.544-17.294,33.764-34.822,77-33.485,60.032-46.108-29.89-49.443,50.445-61.637" transform="translate(53.706 59.929)" fill="none" stroke="#eaeaea" stroke-miterlimit="10" stroke-width="1"/>
                        <path id="Path_15285" data-name="Path 15285" d="M405.485,82.638s-32.544-17.294,33.764-34.822,77-33.485,60.032-46.108-29.89-49.443,50.445-61.637" transform="translate(53.219 59.929)" fill="none" stroke="#eaeaea" stroke-miterlimit="10" stroke-width="1"/>
                        <path id="Path_15286" data-name="Path 15286" d="M432.485,82.638s-32.544-17.294,33.764-34.822,77-33.485,60.032-46.108-29.89-49.443,50.445-61.637" transform="translate(52.732 59.929)" fill="none" stroke="#eaeaea" stroke-miterlimit="10" stroke-width="1"/>
                        <path id="Path_15287" data-name="Path 15287" d="M459.485,82.638s-32.544-17.294,33.764-34.822,77-33.485,60.032-46.108-29.89-49.443,50.445-61.637" transform="translate(52.245 59.929)" fill="none" stroke="#eaeaea" stroke-miterlimit="10" stroke-width="1"/>
                      </g>
                    </g>
                  </g>
                  <rect id="Rectangle_4024" data-name="Rectangle 4024" width="82" height="369" transform="translate(373.109 4.901) rotate(90)" fill="none"/>
                </g>
              </g>
            </g>
            <path id="Subtraction_9" data-name="Subtraction 9" d="M109,92H8a8.009,8.009,0,0,1-8-8V8A8.009,8.009,0,0,1,8,0H109V17.249l-16.063,9.2L109,35.65V92Z" transform="translate(0.109 -0.099)" fill="#fed984"/>
          </g>
        </g>
      </g>
      <g id="Group_7876" data-name="Group 7876" transform="translate(131.303 23.077)">
        <path id="Path_15293" data-name="Path 15293" d="M487.179,884.664c-.484-.1-.654-.134-6.2,2.47,6.43-3.7,6.371-3.783,5.905-4.413a1,1,0,0,0-.6-.353c-.548-.107-.727-.15-9.013,3.76,1.905-1.034,3.712-2.022,5.178-2.843,4.039-2.263,4.523-2.593,4-3.3a1.027,1.027,0,0,0-.606-.357c-.627-.123-1.226.019-10.148,4.25,12.881-6.762,12.812-6.857,12.231-7.644a1.036,1.036,0,0,0-.608-.358c-.453-.091-.98-.022-4.743,1.668,4.494-2.335,4.759-2.7,4.259-3.373a1.017,1.017,0,0,0-.634-.371c-.915-.186-3.186.72-17.3,7.5,3.909-1.974,7.536-3.811,10.375-5.29,1.819-.948,3.145-1.659,4.049-2.176,1.3-.744,2.167-1.236,1.66-1.921a1.088,1.088,0,0,0-.626-.367c-.511-.1-1.558.174-5.116,1.731.95-.493,1.741-.914,2.387-1.272,1.934-1.072,2.84-1.619,2.3-2.348a1.036,1.036,0,0,0-.642-.376c-.446-.088-1.4.148-3.474.987,1.074-.553,1.956-1.024,2.665-1.42,1.8-1.007,2.874-1.663,2.31-2.425a1.078,1.078,0,0,0-.621-.365c-.406-.084-1.2.093-3.417,1.006,5.633-2.874,5.4-3.191,4.974-3.765a1.077,1.077,0,0,0-.622-.365,5.445,5.445,0,0,0-2.336.587c4.826-2.476,4.59-2.8,4.188-3.341a1.106,1.106,0,0,0-.629-.368c-.548-.109-1.932.316-5.762,1.992,4.9-2.56,4.648-2.9,4.246-3.447a1.037,1.037,0,0,0-.646-.377,3.669,3.669,0,0,0-1.582.278c5.761-2.9,5.507-3.239,5.081-3.815a1.037,1.037,0,0,0-.643-.377c-.442-.091-1.47.169-3.652,1.033,3.169-1.726,2.938-2.04,2.593-2.505a1.085,1.085,0,0,0-.678-.395c-.655-.132-2.427.417-5.958,1.907,2.128-1.25,1.913-1.54,1.6-1.957a1.046,1.046,0,0,0-.645-.377c-.567-.113-2.053.329-5.6,1.833,8.667-4.188,8.41-4.534,7.928-5.187a1.034,1.034,0,0,0-.64-.375c-.833-.166-3.844.937-12.837,5.014,2.536-1.491,2.54-1.962,2.183-2.445a1.117,1.117,0,0,0-.694-.4,8.2,8.2,0,0,0-3.221.758c2.96-1.665,2.984-2.128,2.629-2.61a1.127,1.127,0,0,0-.7-.4c-.942-.189-4.036.886-10.5,3.721,1.984-1.2,1.765-1.494,1.465-1.9a1.137,1.137,0,0,0-.708-.41c-.6-.12-2.04.255-4.568,1.219,1.475-.914,1.721-1.381,1.332-1.906a1.053,1.053,0,0,0-.655-.382c-.77-.148-3.314.744-9.114,3.316,2.272-1.3,2.057-1.594,1.743-2.018a1.03,1.03,0,0,0-.64-.375c-.712-.142-2.893.6-9.167,3.414,3.24-1.816,3.3-2.335,2.924-2.849a1.121,1.121,0,0,0-.694-.4c-.758-.151-2.94.538-7.226,2.345,1.652-1.041,1.443-1.322,1.168-1.7a1.053,1.053,0,0,0-.653-.382c-.541-.107-2.075.349-5.072,1.579,4.105-2.127,3.87-2.448,3.485-2.967a1.035,1.035,0,0,0-.64-.375c-.778-.158-3.34.754-11.1,4.271,4.219-2.175,3.984-2.494,3.6-3.016a1.053,1.053,0,0,0-.651-.381c-.666-.132-2.769.567-7.327,2.542.776-.588.855-.96.551-1.373a1.049,1.049,0,0,0-.647-.378c-.5-.1-1.823.276-4.414,1.318,3.346-1.82,3.111-2.139,2.765-2.607a1.069,1.069,0,0,0-.663-.386c-.814-.161-3.657.857-9.953,3.66,1.757-1.141,1.731-1.583,1.4-2.025a1.056,1.056,0,0,0-.653-.382c-.638-.122-2.581.511-6.757,2.321,2.032-1.254,2.031-1.7,1.7-2.144a1.047,1.047,0,0,0-.646-.377c-.676-.141-2.968.659-8.1,2.922,1.477-.961,1.268-1.244,1-1.61a1.088,1.088,0,0,0-.671-.391c-.647-.128-2.557.466-6.277,2.011,5.049-2.631,4.784-2.988,4.39-3.522a1.1,1.1,0,0,0-.681-.4c-.907-.178-3.987.924-10.822,3.98,1.822-1.147,1.8-1.559,1.5-1.973a1.07,1.07,0,0,0-.661-.386c-.733-.144-3.061.64-7.988,2.771,3.182-1.77,2.937-2.1,2.594-2.566a1.093,1.093,0,0,0-.678-.394c-.772-.153-3.208.663-8.17,2.8,1.97-1.18,1.756-1.47,1.459-1.872a1.041,1.041,0,0,0-.644-.377c-.629-.129-2.423.434-6.9,2.359,2.271-1.325,2.043-1.634,1.727-2.062a1.12,1.12,0,0,0-.7-.4c-.665-.133-2.322.35-5.526,1.672,2.163-1.248,2.585-1.8,2.129-2.418a1.077,1.077,0,0,0-.669-.39c-.593-.117-2.169.341-5.224,1.589,1.348-.809,1.654-1.256,1.252-1.8a1.057,1.057,0,0,0-.652-.381c-.783-.157-3.543.834-9.694,3.559.784-.541.987-.936.648-1.4a1.085,1.085,0,0,0-.674-.392c-.8-.156-3.112.643-8.376,3.005.767-.394,1.436-.747,2.015-1.061,2.515-1.364,3.484-2,2.922-2.756a1.079,1.079,0,0,0-.669-.39c-1.014-.207-4.846,1.293-13.756,5.391,6.759-3.406,6.544-3.7,6.1-4.3a1.065,1.065,0,0,0-.617-.363c-.613-.121-1.97.3-8.624,3.338q.765-.393,1.364-.716c2.019-1.085,2.966-1.64,2.423-2.375a1.044,1.044,0,0,0-.649-.378c-.669-.133-2.407.431-7.137,2.542.613-.323,1.151-.613,1.617-.873,1.925-1.071,2.987-1.714,2.428-2.471a1.028,1.028,0,0,0-.635-.372c-1.034-.2-4.787,1.361-20.374,8.741,1.966-.971,3.773-1.87,5.334-2.66,1.869-.946,3.229-1.656,4.157-2.171,1.333-.74,2.214-1.229,1.7-1.923a1.018,1.018,0,0,0-.633-.371c-.722-.141-2.425.431-9.938,3.922,6.676-3.426,6.514-3.646,6.05-4.273a1.02,1.02,0,0,0-.6-.355c-.675-.137-1.4.068-13.891,5.986.794-.414,1.547-.808,2.243-1.178,5.388-2.856,5.667-3.146,5.14-3.859a1.073,1.073,0,0,0-.622-.364c-.788-.154-2.26.4-13.778,5.929,11.105-5.881,10.991-6.034,10.435-6.788a1.017,1.017,0,0,0-.6-.355c-.7-.14-1.366.068-14.589,6.349-1.057.5-2.168,1.03-3.273,1.552l.038-.023c8.039-4.921,8.039-4.921,7.517-5.629a1.028,1.028,0,0,0-.608-.357c-.591-.116-.977-.033-7.365,3.054,5.591-3.731,5.566-3.766,5.106-4.388a.984.984,0,0,0-.592-.35c-.548-.107-.618-.122-7.312,3.074l-.267.127c3.368-2.479,3.322-2.54,2.927-3.074a.958.958,0,0,0-.584-.345c-.463-.093-.463-.094-3.058,1.144-.776.37-1.819.868-2.146,1a1.09,1.09,0,0,0-.235.075.652.652,0,0,0-.342,1,.937.937,0,0,0,.525.332c-4.379,3.209-4.373,3.216-3.943,3.8a.987.987,0,0,0,.593.35c.514.1.618.122,5.958-2.419-5.623,3.753-5.6,3.79-5.134,4.414a1,1,0,0,0,.6.353c.49.095.639.126,5.045-1.989-1.315.808-2.568,1.583-3.593,2.235-2.687,1.708-3.238,2.092-2.756,2.745a1,1,0,0,0,.6.352c.548.112.733.145,9.029-3.769-2.724,1.435-5.242,2.769-7.248,3.864-4.452,2.43-4.858,2.753-4.342,3.451a1.078,1.078,0,0,0,.623.365c.632.126,1.684-.195,7.75-3.047q-.7.367-1.346.706c-4.671,2.467-5.053,2.759-4.531,3.465a1.053,1.053,0,0,0,.614.361c.5.1,1.348-.115,5.151-1.821-8.071,4.1-7.919,4.3-7.426,4.972a1.05,1.05,0,0,0,.613.36c.569.113,1.561-.176,7.147-2.766-2.078,1.066-3.633,1.894-4.738,2.522-1.8,1.021-2.71,1.588-2.174,2.314a1.051,1.051,0,0,0,.614.361c.672.133,2.121-.354,11.107-4.561-1.365.663-2.651,1.293-3.837,1.882-2.5,1.238-4.317,2.173-5.558,2.855-1.652.909-2.743,1.509-2.184,2.267a1.1,1.1,0,0,0,.63.368,6.071,6.071,0,0,0,2.708-.719c-4.294,2.248-4.071,2.549-3.678,3.081a1.112,1.112,0,0,0,.63.37c.721.144,2.946-.652,10.006-3.87-9.609,4.767-9.374,5.085-8.874,5.762a1.087,1.087,0,0,0,.626.367c.734.145,2.895-.653,11.007-4.431-12.123,5.875-11.857,6.237-11.31,6.978a1.1,1.1,0,0,0,.685.4,1.63,1.63,0,0,0,.5,0c-4.664,2.453-4.762,3.014-4.321,3.611a1.1,1.1,0,0,0,.627.368c.5.1,1.779-.27,5.073-1.675-2.286,1.375-2.29,1.839-1.944,2.307a1.037,1.037,0,0,0,.642.376c.642.131,2.387-.429,7.093-2.5-6.889,3.433-6.618,3.8-6.165,4.411a1.132,1.132,0,0,0,.7.407,4.07,4.07,0,0,0,1.633-.235c-2.931,1.663-2.961,2.149-2.594,2.646a1.031,1.031,0,0,0,.639.374c.66.133,2.726-.552,8.2-2.961-3.148,1.751-2.9,2.084-2.557,2.551a1.064,1.064,0,0,0,.658.384c.806.163,3.5-.8,9.7-3.57-4.23,2.223-3.989,2.55-3.616,3.055a1.044,1.044,0,0,0,.647.378c.647.131,2.67-.545,7.061-2.445-4.8,2.48-4.549,2.821-4.149,3.362a1.121,1.121,0,0,0,.7.4c.866.172,3.616-.761,9.257-3.217-3.384,1.851-3.145,2.175-2.8,2.642a1.043,1.043,0,0,0,.645.377c.634.129,2.473-.461,7.158-2.5-1.564.991-1.356,1.274-1.075,1.653a1.1,1.1,0,0,0,.679.4c.7.141,2.724-.495,6.684-2.146-1.379.922-1.322,1.29-1.036,1.677a1.13,1.13,0,0,0,.7.408c.763.153,2.944-.526,7.078-2.246-1.608,1.023-1.551,1.4-1.251,1.8a1.1,1.1,0,0,0,.683.4c.8.16,3.3-.68,8.4-2.875-1.322.87-1.127,1.133-.873,1.478a1.037,1.037,0,0,0,.642.376c.405.084,1.315-.134,3.17-.844-3.078,1.671-2.849,1.98-2.507,2.442a1.087,1.087,0,0,0,.673.392c.76.149,3.237-.681,8.277-2.849-1.081.813-1.037,1.191-.768,1.556a1.091,1.091,0,0,0,.675.393c.809.163,3.518-.764,9.1-3.182-.964.749-.917,1.109-.66,1.456a1.047,1.047,0,0,0,.648.379c.516.107,1.9-.3,4.641-1.417-4.8,2.481-4.555,2.813-4.17,3.333a1.08,1.08,0,0,0,.673.391,1.063,1.063,0,0,0,.207.018c1.027,0,3.776-1,9.312-3.459-2,1.145-2.366,1.646-1.929,2.238a1.1,1.1,0,0,0,.683.4c.79.156,3.286-.665,8.323-2.821-.644.522-.7.869-.413,1.253a1.082,1.082,0,0,0,.674.392c.639.129,2.379-.392,5.788-1.794-2.447,1.424-2.444,1.858-2.106,2.314a1.033,1.033,0,0,0,.641.374c.749.148,3.1-.685,10.212-3.924-4.412,2.352-4.516,2.908-4.1,3.474a1.061,1.061,0,0,0,.657.383c.647.126,2.587-.5,6.718-2.281-3.273,1.8-3.026,2.13-2.671,2.61a1.073,1.073,0,0,0,.667.388c.9.178,3.983-.953,11.3-4.267-2.267,1.239-2.844,1.779-2.354,2.442a1.037,1.037,0,0,0,.638.375c.55.111,2.05-.334,5.607-1.829-3.233,1.846-3.317,2.4-2.927,2.928a1.075,1.075,0,0,0,.666.389c.854.166,3.8-.882,10.332-3.782-1.422.928-1.218,1.2-.946,1.572a1.127,1.127,0,0,0,.7.4,5.642,5.642,0,0,0,2.291-.439c-2.292,1.35-2.059,1.664-1.745,2.09a1.042,1.042,0,0,0,.648.378c.632.125,2.409-.423,6.856-2.342-1.057.715-1.208,1.127-.863,1.593a1.089,1.089,0,0,0,.675.393c.893.173,3.808-.869,10.353-3.8-2.413,1.363-2.207,1.642-1.885,2.077a1.046,1.046,0,0,0,.65.38c.427.088,1.332-.121,3.177-.829-2.466,1.412-2.243,1.713-1.918,2.153a1.048,1.048,0,0,0,.645.378c.777.151,3.152-.675,10.064-3.8-1.936,1.047-2.823,1.612-2.294,2.327a1.062,1.062,0,0,0,.616.363c.754.153,2.636-.517,14.2-5.916-2.524,1.251-4.367,2.2-5.631,2.907-1.747.974-2.789,1.609-2.235,2.359a1.056,1.056,0,0,0,.616.362c.762.15,2.437-.465,14.358-6.113-12.442,6.064-12.3,6.26-11.735,7.021a1.041,1.041,0,0,0,.61.359c.886.18,2.994-.691,23.3-10.346,1.582-.752,3.221-1.532,4.872-2.314-19.33,9.764-19.226,9.906-18.576,10.784a1.1,1.1,0,0,0,.632.371c.649.13,1.828-.216,7.725-2.96-3.4,1.832-3.4,2.145-2.979,2.719a1.022,1.022,0,0,0,.6.356c.74.151,1.622-.137,18.2-8.009l.5-.237c-3.427,1.8-6.847,3.592-9.422,4.985-1.576.852-2.725,1.493-3.513,1.959-1.177.7-1.955,1.156-1.466,1.818a1.036,1.036,0,0,0,.611.359c.7.136,1.51-.087,13.984-6.034-1.979,1.074-3.861,2.1-5.38,2.953-4.039,2.263-4.522,2.593-4,3.3a1.007,1.007,0,0,0,.6.353c.618.123.793.161,12.477-5.381-6.874,3.955-6.816,4.035-6.337,4.683a.983.983,0,0,0,.592.35c.574.115.67.133,9.477-4.046-5.407,3.277-5.367,3.332-4.913,3.946a.962.962,0,0,0,.583.346c.524.1.537.106,6.429-2.665,2.048-.964,4.821-2.269,5.434-2.494a1.124,1.124,0,0,0,.277-.083.653.653,0,0,0,.345-1,.962.962,0,0,0-.583-.346c-.243-.05-.376-.077-1.042.188.584-.358,1.134-.7,1.628-1.007,2.476-1.55,3.064-1.919,2.578-2.575A1,1,0,0,0,487.179,884.664Zm-24.386-33.029c-8.954,4.476-26.942,12.691-42.182,19.65l-.432.2C436.023,863.908,453.592,855.546,462.793,851.635Zm-9.961,1.466c-7.948,3.932-22.65,10.669-36.086,16.827q-3.815,1.748-7.237,3.32C425.041,865.824,443.265,857.153,452.832,853.1Zm-7.961.972c-5.534,2.669-12.846,6.062-20.492,9.573C432.034,860.016,439.284,856.608,444.871,854.073ZM435.1,852.71c-8.415,4.3-26.507,12.549-41.764,19.5l-1.061.483C408.145,865.091,426.217,856.455,435.1,852.71Zm-17.755,5.381c-3.583,1.691-7.56,3.546-11.694,5.462C409.77,861.616,413.743,859.756,417.35,858.091ZM404.6,855.7c-6.059,2.907-14.08,6.616-22.419,10.434C390.371,862.267,398.4,858.505,404.6,855.7Zm-7.689-2.1c-6.435,3.212-16.618,7.928-27.13,12.732C380.1,861.394,390.25,856.577,396.914,853.592Zm-8.488,1.065c-5.005,2.417-11.512,5.436-18.43,8.605C376.877,860,383.351,856.967,388.426,854.658Zm-33.957,12.919c9.987-4.729,19.767-9.314,26.714-12.409C374.27,858.495,364.324,863.073,354.469,867.577Zm25.21-14.782c-7.761,3.8-20,9.479-31.778,14.913C359.91,861.958,371.868,856.274,379.679,852.795Zm-9.41,1.41c-8.77,4.328-23.806,11.233-37.33,17.427C346.333,865.265,361.242,858.2,370.269,854.2Zm-6.3-.149c-8.878,4.359-23.882,11.274-36.967,17.3C340.329,865,354.986,858.026,363.974,854.056Zm-26.787,6.767c4.089-1.941,7.929-3.742,11.224-5.243C345.166,857.125,341.329,858.913,337.187,860.823Zm11.034-8.085c-8.545,4.292-24.43,11.583-37.966,17.795l-2.386,1.1,2.146-1.023C323.495,864.177,339.315,856.632,348.221,852.738ZM298.747,867.3c8.653-4.139,19.147-9.16,26.919-12.707-6.628,3.218-15.421,7.333-23.189,10.97l-4.807,2.252Zm-.414,1.91c-6.541,3.152-13.2,6.34-18.524,8.792C285.1,875.426,291.83,872.257,298.333,869.209Zm-2.555,6.459c-5.41,2.566-10.558,4.988-14.843,6.958C285.159,880.592,290.317,878.185,295.779,875.668Zm6.618.174c-8.694,4.174-17.153,8.183-23.07,10.807C285.115,883.825,293.625,879.877,302.4,875.841ZM282.7,887.581c5.589-2.679,12.757-6,20.182-9.4C295.436,881.7,288.328,885.021,282.7,887.581Zm7.5-.525c4.506-2.151,9.9-4.669,15.548-7.283C300.087,882.458,294.725,884.979,290.2,887.056Zm5.9,3.363c6.992-3.39,17.742-8.344,28.472-13.261C313.761,882.318,303.181,887.3,296.106,890.419Zm40.5-13c-9.508,4.5-18.654,8.778-25.247,11.708C317.885,886,327.132,881.75,336.6,877.424Zm-23.03,13.521c7.761-3.886,23.139-10.87,37.426-17.346C336.511,880.519,321.556,887.594,313.571,890.945Zm8.846-1.135c6.642-3.226,16.9-7.924,27.228-12.626C339.2,882.141,329.135,886.862,322.417,889.809Zm23.339-5.357c-1.85.861-3.634,1.687-5.334,2.468C342.121,886.13,343.907,885.3,345.756,884.452Zm-8.556,6.672c9.162-4.766,30.555-14.5,47.143-22.051,3.5-1.594,6.707-3.054,9.634-4.391q-3.925,1.861-8.4,3.987C367.9,877.07,346.855,887.075,337.2,891.124Zm11.414-2.49c8.24-4.126,22.748-10.789,36.528-17.074C371.665,877.961,357.2,884.827,348.613,888.634Zm9.038,1.838c8.247-4.062,23.068-10.816,36.632-17l.1-.046C380.481,880.04,366.04,886.851,357.651,890.472Zm9.432-1.6c8.561-4.217,23.272-10.977,36.577-17.073C390.277,878.174,375.821,885.029,367.083,888.87Zm12.528.066c6.545-3.2,16-7.6,25.622-12.026C395.627,881.492,386.261,885.927,379.611,888.936ZM389,887.559c2.483-1.173,5.213-2.448,8.1-3.789C394.23,885.125,391.5,886.4,389,887.559Zm17.834.714c6.4-3.108,15.677-7.422,24.842-11.653C422.465,881.039,413.3,885.387,406.834,888.273Zm14.07-4.062q-1.781.834-3.487,1.626C418.549,885.308,419.715,884.764,420.9,884.211Zm-6.376,5.733c6.053-2.952,14.782-7,23.608-11.046C429.472,883.033,420.75,887.158,414.528,889.944ZM435.864,871.7c-15.271,7.269-33.356,15.876-42.4,19.751,9.3-4.818,30.126-14.317,47.648-22.311l3.6-1.641Q440.6,869.445,435.864,871.7Zm-11.369.8-4.129,1.888.293-.14c16.03-7.682,35.064-16.8,44.287-20.7C456.7,857.78,439.236,865.764,424.5,872.5Z" transform="translate(-264.406 -847.859)" fill="#fed984"/>
        <g id="Component_7_40" data-name="Component 7 – 40" transform="translate(24.806 10.824)">
          <text id="Anggota_Non_Keluarga" data-name="Anggota Non Keluarga" transform="translate(86 18)" fill="#444" font-size="17" font-family="Roboto-Bold, Roboto" font-weight="700"><tspan x="-86.087" y="0">Anggota Non Keluarga</tspan></text>
        </g>
      </g>
    </g>
    <g id="Group_7881" data-name="Group 7881" transform="translate(1.498 223.821)">
      <g id="Group_6898" data-name="Group 6898" transform="translate(65.796 213.998)">
        <path id="Subtraction_7" data-name="Subtraction 7" d="M0,0H25.353V29.18H0Z" transform="matrix(1, -0.017, 0.017, 1, 5.377, 5.407)" fill="#fff"/>
        <g id="Group_6892" data-name="Group 6892" transform="translate(0 0)">
          <g id="Group_6890" data-name="Group 6890" transform="translate(10.836 12.109)">
            <rect id="Rectangle_3985" data-name="Rectangle 3985" width="12.243" height="13.575" transform="translate(1.817 6.871)" fill="#2f1a1f"/>
            <rect id="Rectangle_3986" data-name="Rectangle 3986" width="6.257" height="13.575" transform="translate(4.81 6.871)" fill="#1c0b10"/>
            <rect id="Rectangle_3987" data-name="Rectangle 3987" width="2.295" height="14.722" transform="translate(1.817 6.085)" fill="#2f1a1f"/>
            <path id="Path_13722" data-name="Path 13722" d="M175.01,284.789h-3.355a10.737,10.737,0,0,1-.326,3.315h4.048A11.091,11.091,0,0,1,175.01,284.789Z" transform="translate(-165.669 -269.918)" fill="#f3a77a"/>
            <path id="Path_13723" data-name="Path 13723" d="M172.706,286.368a3.758,3.758,0,0,0,1.97.508,4.056,4.056,0,0,0,1.45-.433c-.061-.843-.048-1.654-.048-1.654h-3.354S172.75,285.553,172.706,286.368Z" transform="translate(-166.739 -269.918)" fill="#f3d3cc" style="mix-blend-mode: multiply;isolation: isolate"/>
            <g id="Group_6850" data-name="Group 6850" transform="translate(0 17.818)">
              <path id="Path_13724" data-name="Path 13724" d="M159.883,299.513l-4.721-1.386-1.478-.139h-1.575l-4.672,1.824s-1.636.586-1.445,3.432h14.961C161.176,300.224,159.883,299.513,159.883,299.513Z" transform="translate(-145.976 -297.988)" fill="#f3a77a"/>
            </g>
            <g id="Group_6855" data-name="Group 6855" transform="translate(11.86 8.585)">
              <g id="Group_6854" data-name="Group 6854" transform="translate(0)">
                <path id="Path_13725" data-name="Path 13725" d="M199.14,258.033c-.138.853.1,1.611.534,1.692s.894-.542,1.031-1.4-.1-1.611-.535-1.693S199.277,257.179,199.14,258.033Z" transform="translate(-199.101 -256.629)" fill="#f3a77a"/>
                <g id="Group_6853" data-name="Group 6853" transform="translate(0.337 0.332)">
                  <g id="Group_6851" data-name="Group 6851" transform="translate(0.218)">
                    <path id="Path_13726" data-name="Path 13726" d="M201.591,258.957s.006-.048.024-.126a1.551,1.551,0,0,1,.1-.307c.054-.114.142-.245.251-.252a.226.226,0,0,1,.083.012s.034.015.042.022a.323.323,0,0,1,.031.025.437.437,0,0,1,.1.186,1.1,1.1,0,0,1,.051.242,1.18,1.18,0,0,1,0,.244c-.013.086-.017.173-.033.248s-.028.148-.041.214-.031.129-.043.183-.029.1-.039.141c-.022.078-.033.124-.033.124s.022-.039.058-.11c.017-.036.041-.078.062-.131s.047-.111.072-.176.045-.142.068-.222.035-.162.052-.248a1.145,1.145,0,0,0,.011-.292,1.3,1.3,0,0,0-.055-.289.6.6,0,0,0-.151-.25.327.327,0,0,0-.062-.044.391.391,0,0,0-.059-.024.331.331,0,0,0-.13-.006.338.338,0,0,0-.212.15.776.776,0,0,0-.1.214,1.357,1.357,0,0,0-.058.343A.888.888,0,0,0,201.591,258.957Z" transform="translate(-201.587 -258.115)" fill="#f0926a"/>
                  </g>
                  <path id="Path_13727" data-name="Path 13727" d="M201.125,261.492s-.04-.091.245-.112c0,0,.318.059.131.483a1.383,1.383,0,0,0-.1.286c-.029.142.022.336-.054.462-.1.163-.349.07-.364-.117a1.066,1.066,0,0,1,.2-.489A.382.382,0,0,0,201.125,261.492Z" transform="translate(-200.903 -260.651)" fill="#f0926a"/>
                  <g id="Group_6852" data-name="Group 6852" transform="translate(0 1.825)">
                    <path id="Path_13728" data-name="Path 13728" d="M200.694,266.29a.166.166,0,0,0-.022.023.269.269,0,0,0-.042.08.245.245,0,0,0-.015.061.217.217,0,0,0-.005.07c0,.024,0,.051.007.076a.577.577,0,0,0,.023.071.346.346,0,0,0,.032.065.582.582,0,0,0,.042.049.182.182,0,0,0,.087.062.261.261,0,0,0,.1.024.618.618,0,0,0-.044-.1.263.263,0,0,0-.024-.04c-.007-.015-.012-.033-.02-.047a.308.308,0,0,0-.024-.045.234.234,0,0,1-.018-.048.5.5,0,0,1-.035-.093.386.386,0,0,1-.012-.047c0-.016-.009-.031-.01-.046C200.7,266.343,200.694,266.29,200.694,266.29Z" transform="translate(-200.609 -266.29)" fill="#f0926a"/>
                  </g>
                </g>
              </g>
            </g>
            <g id="Group_6860" data-name="Group 6860" transform="translate(2.062 8.585)">
              <g id="Group_6859" data-name="Group 6859" transform="translate(0)">
                <path id="Path_13729" data-name="Path 13729" d="M156.815,258.033c.138.853-.1,1.611-.534,1.692s-.894-.542-1.031-1.4.1-1.611.535-1.693S156.678,257.179,156.815,258.033Z" transform="translate(-155.211 -256.629)" fill="#f3a77a"/>
                <g id="Group_6858" data-name="Group 6858" transform="translate(0.252 0.332)">
                  <g id="Group_6856" data-name="Group 6856">
                    <path id="Path_13730" data-name="Path 13730" d="M157.173,258.957s-.007-.048-.023-.126a1.57,1.57,0,0,0-.1-.307c-.054-.114-.142-.245-.251-.252a.227.227,0,0,0-.083.012s-.033.015-.042.022a.348.348,0,0,0-.031.025.441.441,0,0,0-.1.186,1.1,1.1,0,0,0-.051.242,1.182,1.182,0,0,0,0,.244c.013.086.017.173.033.248l.041.214c.018.067.031.129.043.183s.029.1.039.141c.022.078.033.124.033.124s-.023-.039-.058-.11c-.017-.036-.041-.078-.062-.131s-.046-.111-.071-.176-.045-.142-.068-.222-.035-.162-.052-.248a1.136,1.136,0,0,1-.011-.292,1.276,1.276,0,0,1,.055-.289.6.6,0,0,1,.151-.25.332.332,0,0,1,.061-.044.389.389,0,0,1,.059-.024.332.332,0,0,1,.13-.006.338.338,0,0,1,.212.15.777.777,0,0,1,.1.214,1.353,1.353,0,0,1,.058.343A.85.85,0,0,1,157.173,258.957Z" transform="translate(-156.341 -258.115)" fill="#f0926a"/>
                  </g>
                  <path id="Path_13731" data-name="Path 13731" d="M158.553,261.492s.04-.091-.245-.112c0,0-.318.059-.131.483a1.37,1.37,0,0,1,.1.286c.029.142-.022.336.054.462.1.163.349.07.364-.117a1.065,1.065,0,0,0-.2-.489A.382.382,0,0,1,158.553,261.492Z" transform="translate(-157.721 -260.651)" fill="#f0926a"/>
                  <g id="Group_6857" data-name="Group 6857" transform="translate(0.764 1.825)">
                    <path id="Path_13732" data-name="Path 13732" d="M159.969,266.29a.131.131,0,0,1,.022.023.269.269,0,0,1,.042.08.255.255,0,0,1,.015.061.222.222,0,0,1,0,.07.757.757,0,0,1-.007.076.577.577,0,0,1-.023.071.346.346,0,0,1-.032.065.545.545,0,0,1-.042.049.182.182,0,0,1-.087.062.261.261,0,0,1-.1.024.664.664,0,0,1,.044-.1.263.263,0,0,1,.024-.04c.007-.015.012-.033.02-.047a.306.306,0,0,1,.024-.045.248.248,0,0,0,.018-.048.5.5,0,0,0,.035-.093.428.428,0,0,0,.013-.047c0-.016.009-.031.01-.046C159.963,266.343,159.969,266.29,159.969,266.29Z" transform="translate(-159.764 -266.29)" fill="#f0926a"/>
                  </g>
                </g>
              </g>
            </g>
            <g id="Group_6861" data-name="Group 6861" transform="translate(2.887 1.359)">
              <path id="Path_13733" data-name="Path 13733" d="M168.055,225.964a6.384,6.384,0,0,0-4.368-1.7,6.463,6.463,0,0,0-4.361,1.82c-.788,2.537-.284,5.512.051,8.086a5.707,5.707,0,0,0,3.137,4.157,2.271,2.271,0,0,0,2.646-.028,6.341,6.341,0,0,0,3.062-4.3,28.6,28.6,0,0,0,.259-5.2A10.256,10.256,0,0,0,168.055,225.964Z" transform="translate(-158.907 -224.263)" fill="#f3a77a"/>
            </g>
            <path id="Path_13744" data-name="Path 13744" d="M175.043,225.668s.254-6.5-4.809-7.426c0,0-3.591-.574-4.937,1.654l1.347,3.41s-.024,1.218,5.6,2.419c0,0,1.152.294,1.223,2.444A4.021,4.021,0,0,1,175.043,225.668Z" transform="translate(-160.983 -218.176)" fill="#2f1a1f"/>
            <g id="Group_6880" data-name="Group 6880" transform="translate(1.566 17.969)">
              <g id="Group_6879" data-name="Group 6879">
                <path id="Path_13746" data-name="Path 13746" d="M163.765,303.769A4.752,4.752,0,0,1,165.276,300l-4.141-1.3-2.094,1.929-1.869-1.964-4.18,1.632a3.018,3.018,0,0,1,1.085,2.427,9.55,9.55,0,0,1,.025,1.046Z" transform="translate(-152.993 -298.663)" fill="#4c4291"/>
              </g>
            </g>
            <path id="Path_13747" data-name="Path 13747" d="M158.7,227.426s-3.135.664-3.123,5.086c0,0-.134-1.421-.969-1.229,0,0-2.342-5.877,3.141-7.533Z" transform="translate(-152.298 -222.506)" fill="#2f1a1f"/>
            <path id="Path_13748" data-name="Path 13748" d="M168.792,235.972l.278,1.59.387-.2Z" transform="translate(-163.698 -231.999)" fill="#f3a77a"/>
          </g>
          <g id="Group_6891" data-name="Group 6891" transform="matrix(0.996, 0.087, -0.087, 0.996, 3.218, 0)">
            <g id="Group_6887" data-name="Group 6887" transform="translate(0 0)">
              <g id="Group_6883" data-name="Group 6883" transform="translate(0)">
                <g id="Subtraction_4" data-name="Subtraction 4" transform="matrix(0.995, -0.105, 0.105, 0.995, 0, 3.15)" fill="#dab46f">
                  <path d="M 29.63626289367676 33.46312713623047 L 0.500002384185791 33.46312713623047 L 0.500002384185791 0.4999977052211761 L 29.63626289367676 0.4999977052211761 L 29.63626289367676 33.46312713623047 Z M 1.89196240901947 1.891957759857178 L 1.89196240901947 2.391957759857178 L 1.89196240901947 31.5711784362793 L 1.89196240901947 32.0711784362793 L 2.391962289810181 32.0711784362793 L 27.74471282958984 32.07118606567383 L 28.24471282958984 32.07118606567383 L 28.24471282958984 31.57118797302246 L 28.24472236633301 2.391957759857178 L 28.24472236633301 1.891957759857178 L 27.74472236633301 1.891957759857178 L 2.391962289810181 1.891957759857178 L 1.89196240901947 1.891957759857178 Z" stroke="none"/>
                  <path d="M 29.13626289367676 32.96312713623047 L 29.13626289367676 0.9999977350234985 L 1.000002384185791 0.9999977350234985 L 1.000002384185791 32.96312713623047 L 29.13626289367676 32.96312713623047 M 1.39196240901947 1.391957759857178 L 2.391962289810181 1.391957759857178 L 27.74472236633301 1.391957759857178 L 28.74472236633301 1.391957759857178 L 28.74472236633301 2.391957759857178 L 28.74471282958984 31.57118797302246 L 28.74471282958984 32.57118606567383 L 27.74471282958984 32.57118606567383 L 2.391962289810181 32.5711784362793 L 1.39196240901947 32.5711784362793 L 1.39196240901947 31.5711784362793 L 1.39196240901947 2.391957759857178 L 1.39196240901947 1.391957759857178 M 30.13626289367676 33.96361923217773 L 30.13626289367676 33.96312713623047 L 2.400512585154502e-06 33.96312713623047 L 2.400512585154502e-06 -2.291259761477704e-06 L 30.13626289367676 -2.291259761477704e-06 L 30.13626289367676 33.96312713623047 L 30.13626289367676 33.96361923217773 Z M 2.391962289810181 2.391957759857178 L 2.391962289810181 31.5711784362793 L 27.74471282958984 31.57118797302246 L 27.74472236633301 2.391957759857178 L 2.391962289810181 2.391957759857178 Z" stroke="none" fill="#707070"/>
                </g>
              </g>
            </g>
          </g>
        </g>
      </g>
      <g id="Group_6897" data-name="Group 6897" transform="translate(34.839 214.242)">
        <g id="Group_6895" data-name="Group 6895" transform="translate(2.423 2.659)">
          <path id="Subtraction_8" data-name="Subtraction 8" d="M0,0H32.1V34.744H0Z" transform="matrix(0.995, -0.105, 0.105, 0.995, 0, 3.355)" fill="#fff"/>
          <g id="Group_6894" data-name="Group 6894" transform="translate(7.598 6.381)">
            <rect id="Rectangle_3984" data-name="Rectangle 3984" width="5.807" height="2.138" transform="translate(8.356 22.882)" fill="#546cad"/>
            <path id="Path_13690" data-name="Path 13690" d="M275.962,280.89h-4.717s.12,2.978-.458,3.843h5.694C275.9,283.868,275.962,280.89,275.962,280.89Z" transform="translate(-262.371 -260.516)" fill="#f3a77a"/>
            <path id="Path_13691" data-name="Path 13691" d="M272.326,283.14a5.018,5.018,0,0,0,2.485.66,5.909,5.909,0,0,0,2.407-.539,19.135,19.135,0,0,1-.115-2.371h-4.717A18.9,18.9,0,0,1,272.326,283.14Z" transform="translate(-263.512 -260.516)" fill="#f3d3cc" style="mix-blend-mode: multiply;isolation: isolate"/>
            <path id="Path_13692" data-name="Path 13692" d="M258.661,296.685l-6.848-2.453h-4.54l-6.848,2.453s-2.4.789-2.118,4.616h22.471C261.106,297.239,258.661,296.685,258.661,296.685Z" transform="translate(-238.285 -270.404)" fill="#f3a77a"/>
            <path id="Path_13693" data-name="Path 13693" d="M258.661,297.877l-5.6-2-3.519,2.454-3.437-2.485-5.685,2.036s-2.4.789-2.118,4.616h22.471C261.106,298.431,258.661,297.877,258.661,297.877Z" transform="translate(-238.285 -271.596)" fill="#2598d1"/>
            <g id="Group_6841" data-name="Group 6841" transform="translate(16.383 12.864)">
              <path id="Path_13694" data-name="Path 13694" d="M301.6,253.541c-.163,1.006.12,1.9.63,2s1.054-.64,1.216-1.645-.12-1.9-.631-2S301.766,252.536,301.6,253.541Z" transform="translate(-301.558 -251.887)" fill="#f3a77a"/>
              <g id="Group_6840" data-name="Group 6840" transform="translate(0.397 0.391)">
                <g id="Group_6838" data-name="Group 6838" transform="translate(0.257)">
                  <path id="Path_13695" data-name="Path 13695" d="M304.091,254.391s.007-.056.028-.149a1.811,1.811,0,0,1,.123-.361c.064-.134.167-.289.3-.3a.281.281,0,0,1,.1.014s.039.017.049.026a.379.379,0,0,1,.036.03.52.52,0,0,1,.123.219,1.281,1.281,0,0,1,.06.286,1.4,1.4,0,0,1,0,.288c-.016.1-.02.2-.039.292l-.049.252c-.021.079-.037.151-.051.216s-.034.12-.046.166c-.026.092-.039.146-.039.146s.026-.046.069-.13c.02-.043.049-.092.074-.155s.055-.131.084-.208.053-.168.081-.262.041-.19.061-.292a1.346,1.346,0,0,0,.012-.345,1.519,1.519,0,0,0-.065-.34.71.71,0,0,0-.178-.295.376.376,0,0,0-.072-.052.568.568,0,0,0-.07-.028.407.407,0,0,0-.154-.008.4.4,0,0,0-.25.178.937.937,0,0,0-.121.252,1.611,1.611,0,0,0-.069.4A.985.985,0,0,0,304.091,254.391Z" transform="translate(-304.086 -253.399)" fill="#f0926a"/>
                </g>
                <path id="Path_13696" data-name="Path 13696" d="M303.639,256.849s-.047-.107.288-.133c0,0,.375.069.155.57a1.627,1.627,0,0,0-.113.337c-.033.168.026.4-.063.545-.116.192-.412.083-.429-.137a1.266,1.266,0,0,1,.239-.577A.449.449,0,0,0,303.639,256.849Z" transform="translate(-303.377 -255.857)" fill="#f0926a"/>
                <g id="Group_6839" data-name="Group 6839" transform="translate(0 2.152)">
                  <path id="Path_13697" data-name="Path 13697" d="M303.193,261.71a.152.152,0,0,0-.026.027.328.328,0,0,0-.049.094.294.294,0,0,0-.017.071.264.264,0,0,0-.006.083c0,.028,0,.059.008.09a.7.7,0,0,0,.028.084.381.381,0,0,0,.038.076c.015.021.034.039.05.058a.215.215,0,0,0,.1.073.311.311,0,0,0,.114.029.748.748,0,0,0-.052-.122.348.348,0,0,0-.028-.048c-.008-.018-.014-.038-.024-.055a.418.418,0,0,0-.028-.053.258.258,0,0,1-.021-.056.587.587,0,0,1-.041-.11.485.485,0,0,1-.014-.055c0-.019-.011-.037-.012-.055C303.2,261.771,303.193,261.709,303.193,261.71Z" transform="translate(-303.092 -261.71)" fill="#f0926a"/>
                </g>
              </g>
            </g>
            <g id="Group_6845" data-name="Group 6845" transform="translate(4.28 12.864)">
              <path id="Path_13698" data-name="Path 13698" d="M256.706,253.541c.163,1.006-.12,1.9-.629,2s-1.054-.64-1.216-1.645.12-1.9.63-2S256.545,252.536,256.706,253.541Z" transform="translate(-254.815 -251.887)" fill="#f3a77a"/>
              <g id="Group_6844" data-name="Group 6844" transform="translate(0.297 0.391)">
                <g id="Group_6842" data-name="Group 6842">
                  <path id="Path_13699" data-name="Path 13699" d="M256.945,254.391s-.008-.056-.028-.149a1.83,1.83,0,0,0-.123-.361c-.064-.134-.167-.289-.3-.3a.278.278,0,0,0-.1.014.447.447,0,0,0-.05.026.379.379,0,0,0-.036.03.517.517,0,0,0-.123.219,1.281,1.281,0,0,0-.06.286,1.4,1.4,0,0,0,0,.288c.016.1.02.2.039.292l.048.252c.021.079.037.151.051.216s.034.12.045.166c.026.092.039.146.039.146s-.026-.046-.069-.13c-.019-.043-.048-.092-.074-.155s-.055-.131-.084-.208-.053-.168-.08-.262a2.963,2.963,0,0,1-.061-.292,1.327,1.327,0,0,1-.013-.345,1.521,1.521,0,0,1,.065-.34.707.707,0,0,1,.178-.295.371.371,0,0,1,.073-.052.545.545,0,0,1,.07-.028.41.41,0,0,1,.154-.008.4.4,0,0,1,.25.178.93.93,0,0,1,.121.252,1.587,1.587,0,0,1,.069.4A.972.972,0,0,1,256.945,254.391Z" transform="translate(-255.964 -253.399)" fill="#f0926a"/>
                </g>
                <path id="Path_13700" data-name="Path 13700" d="M258.283,256.849s.047-.107-.289-.133c0,0-.375.069-.155.57a1.641,1.641,0,0,1,.112.337c.033.168-.026.4.063.545.117.192.412.083.429-.137a1.264,1.264,0,0,0-.239-.577A.449.449,0,0,1,258.283,256.849Z" transform="translate(-257.303 -255.857)" fill="#f0926a"/>
                <g id="Group_6843" data-name="Group 6843" transform="translate(0.901 2.152)">
                  <path id="Path_13701" data-name="Path 13701" d="M259.685,261.71a.126.126,0,0,1,.026.027.309.309,0,0,1,.049.094.32.32,0,0,1,.018.071.256.256,0,0,1,.006.083c0,.028,0,.059-.008.09a.735.735,0,0,1-.027.084.38.38,0,0,1-.038.076c-.015.021-.034.039-.05.058a.215.215,0,0,1-.1.073.311.311,0,0,1-.114.029.748.748,0,0,1,.052-.122.35.35,0,0,1,.028-.048c.008-.018.014-.038.024-.055a.393.393,0,0,1,.027-.053.268.268,0,0,0,.022-.056.579.579,0,0,0,.041-.11.472.472,0,0,0,.014-.055c0-.019.011-.037.013-.055C259.679,261.771,259.685,261.709,259.685,261.71Z" transform="translate(-259.444 -261.71)" fill="#f0926a"/>
                </g>
              </g>
            </g>
            <path id="Path_13702" data-name="Path 13702" d="M265.075,216.37v0h-.161c-4.054.036-6.331,1.191-5.709,8.58l.7,5.886a2.449,2.449,0,0,0,1.3,1.716l2.2,1.632a3.222,3.222,0,0,0,3.177,0l2.2-1.632a2.449,2.449,0,0,0,1.3-1.716l.735-5.75C271.445,217.7,269.129,216.4,265.075,216.37Z" transform="translate(-253.714 -212.7)" fill="#f3a77a"/>
            <path id="Path_13703" data-name="Path 13703" d="M270.861,257.521a6.174,6.174,0,0,1-.65,2.166,1.534,1.534,0,0,1-1.182.606,4.252,4.252,0,0,1-.971-.067,4.95,4.95,0,0,0-.739-.173,1.34,1.34,0,0,0-.727.226,1.074,1.074,0,0,1-.911.046,4.165,4.165,0,0,0-1.414-.308,5.453,5.453,0,0,1-1.747,0,1.917,1.917,0,0,1-1.121-1.225c-.124-.289-.211-.971-.3-1.271-.11-.372-.281-.116-.62-.12l.443,4.155a2.449,2.449,0,0,0,1.3,1.716l2.2,1.632a3.223,3.223,0,0,0,3.177,0l2.2-1.633a2.449,2.449,0,0,0,1.3-1.716l.487-4.227C271.211,257.32,270.961,257.085,270.861,257.521Z" transform="translate(-254.733 -243.003)" fill="#361709"/>
            <path id="Path_13713" data-name="Path 13713" d="M259.8,207.57a8.023,8.023,0,0,0,4.935,2.314s3.476,1.2,3.43,3.161l-.613,3.555.695-.072s.019-1.433.782-1.453c0,0,.687-2.876.676-3.369s-.969-5.368-.969-5.368l-3.727-2.659a28.6,28.6,0,0,1-5.9-1.477,3.365,3.365,0,0,0,1.051,1.477s-2.337.246-2.556.2.323,1.231.323,1.231l-1.963,3,.379,6.964s.607.06.791,1.525h.57l-.1-4.468A16.027,16.027,0,0,1,259.8,207.57Z" transform="translate(-251.387 -202.202)" fill="#361709"/>
            <path id="Path_13714" data-name="Path 13714" d="M259.647,215.817a9.244,9.244,0,0,1-1.742-2.267l-1.941,2.971v.018c.641,1.027,1.281,2.055,1.956,3.06a14.219,14.219,0,0,1,1.881-3.62,4.43,4.43,0,0,0,.608.564Q260.017,216.192,259.647,215.817Z" transform="translate(-251.387 -210.612)" fill="#260d00"/>
            <path id="Path_13715" data-name="Path 13715" d="M272.443,294.415l-.461-2.358-2.443-1.478-.356,1.487Z" transform="translate(-261.183 -267.696)" fill="#546cad"/>
            <path id="Path_13716" data-name="Path 13716" d="M281.773,294.415l.461-2.358,2.443-1.478.356,1.487Z" transform="translate(-270.514 -267.696)" fill="#546cad"/>
            <g id="Group_6848" data-name="Group 6848" transform="translate(9.74 24.68)">
              <path id="Path_13717" data-name="Path 13717" d="M278.6,297.521h-2.332a.712.712,0,0,0-.3.864l.742,1.175h1.445l.742-1.175A.712.712,0,0,0,278.6,297.521Z" transform="translate(-275.909 -297.521)" fill="#4c4291"/>
              <path id="Path_13718" data-name="Path 13718" d="M278.756,297.656a1.284,1.284,0,0,1-.047.693,1.358,1.358,0,0,1-1.036.958.9.9,0,0,1-1.066-.6,1.28,1.28,0,0,1,.072-1.191h-.414a.712.712,0,0,0-.3.864l.742,1.175h1.445l.742-1.175A.655.655,0,0,0,278.756,297.656Z" transform="translate(-275.909 -297.521)" fill="#4c4291" style="mix-blend-mode: multiply;isolation: isolate"/>
              <path id="Path_13719" data-name="Path 13719" d="M276.7,305.4l-.8,4.178h3.044l-.8-4.178Z" transform="translate(-275.903 -303.357)" fill="#4c4291"/>
            </g>
            <path id="Path_13720" data-name="Path 13720" d="M268.6,292.056l-1.155,2.116-2.823-1.918,1.535-1.676Z" transform="translate(-257.806 -267.696)" fill="#6ea6d4"/>
            <path id="Path_13721" data-name="Path 13721" d="M283.555,292.056l1.155,2.116,2.823-1.918L286,290.578Z" transform="translate(-271.834 -267.696)" fill="#6ea6d4"/>
          </g>
        </g>
        <g id="Group_6896" data-name="Group 6896" transform="translate(0 0)">
          <g id="Group_6886" data-name="Group 6886" transform="translate(0)">
            <g id="Group_6883-2" data-name="Group 6883">
              <g id="Subtraction_4-2" data-name="Subtraction 4" transform="matrix(0.995, -0.105, 0.105, 0.995, 0, 3.685)" fill="#dab46f">
                <path d="M 34.75222396850586 39.22871780395508 L 0.5000038743019104 39.22871780395508 L 0.5000038743019104 0.4999992847442627 L 34.75222396850586 0.4999992847442627 L 34.75222396850586 39.22871780395508 Z M 2.298013925552368 2.298019170761108 L 2.298013925552368 2.798019170761108 L 2.298013925552368 36.93070983886719 L 2.298013925552368 37.43070983886719 L 2.798013925552368 37.43070983886719 L 32.45473480224609 37.43070983886719 L 32.95473480224609 37.43070983886719 L 32.95473480224609 36.93070983886719 L 32.95473480224609 2.798019170761108 L 32.95473480224609 2.298019170761108 L 32.45473480224609 2.298019170761108 L 2.798013925552368 2.298019170761108 L 2.298013925552368 2.298019170761108 Z" stroke="none"/>
                <path d="M 34.25222396850586 38.72871780395508 L 34.25222396850586 0.9999992847442627 L 1.000003933906555 0.9999992847442627 L 1.000003933906555 38.72871780395508 L 34.25222396850586 38.72871780395508 M 1.798013925552368 1.798019289970398 L 2.798013925552368 1.798019289970398 L 32.45473480224609 1.798019289970398 L 33.45473480224609 1.798019289970398 L 33.45473480224609 2.798019170761108 L 33.45473480224609 36.93070983886719 L 33.45473480224609 37.93070983886719 L 32.45473480224609 37.93070983886719 L 2.798013925552368 37.93070983886719 L 1.798013925552368 37.93070983886719 L 1.798013925552368 36.93070983886719 L 1.798013925552368 2.798019170761108 L 1.798013925552368 1.798019289970398 M 35.25222396850586 39.72927856445312 L 35.25222396850586 39.72871780395508 L 3.891601409122813e-06 39.72871780395508 L 3.891601409122813e-06 -7.177734460128704e-07 L 35.25222396850586 -7.177734460128704e-07 L 35.25222396850586 39.72871780395508 L 35.25222396850586 39.72927856445312 Z M 2.798013925552368 2.798019170761108 L 2.798013925552368 36.93070983886719 L 32.45473480224609 36.93070983886719 L 32.45473480224609 2.798019170761108 L 2.798013925552368 2.798019170761108 Z" stroke="none" fill="#707070"/>
              </g>
            </g>
          </g>
        </g>
      </g>
    </g>
  </g>
</svg>
