<svg xmlns="http://www.w3.org/2000/svg" xmlns:xlink="http://www.w3.org/1999/xlink" width="347" height="98" viewBox="0 0 347 98">
  <defs>
    <filter id="Rectangle_4022" x="0" y="0" width="347" height="98" filterUnits="userSpaceOnUse">
      <feOffset dy="3" input="SourceAlpha"/>
      <feGaussianBlur stdDeviation="3" result="blur"/>
      <feFlood flood-opacity="0.161"/>
      <feComposite operator="in" in2="blur"/>
      <feComposite in="SourceGraphic"/>
    </filter>
    <clipPath id="clip-path">
      <rect id="Rectangle_4023" data-name="Rectangle 4023" width="329" height="80" transform="translate(0.075 0.321)" fill="none"/>
    </clipPath>
  </defs>
  <g id="Group_8014" data-name="Group 8014" transform="translate(-34 -407)">
    <g id="Group_7872" data-name="Group 7872">
      <g id="Group_7866" data-name="Group 7866" transform="translate(188 -2461)">
        <g id="Group_7860" data-name="Group 7860" transform="translate(0 285)">
          <g id="Group_7855" data-name="Group 7855" transform="translate(-319.406 796.004)">
            <g id="Group_7798" data-name="Group 7798" transform="translate(174 1792.675)">
              <g id="Group_7797" data-name="Group 7797" transform="translate(0 0)">
                <g transform="matrix(1, 0, 0, 1, -8.59, -5.68)" filter="url(#Rectangle_4022)">
                  <rect id="Rectangle_4022-2" data-name="Rectangle 4022" width="329" height="80" rx="8" transform="translate(9 6)" fill="#fff"/>
                </g>
                <g id="Group_7795" data-name="Group 7795" transform="translate(0.33 0)" opacity="0.5">
                  <g id="Group_7794" data-name="Group 7794" clip-path="url(#clip-path)">
                    <g id="Group_7793" data-name="Group 7793" transform="translate(-103.103 -36.383)">
                      <path id="Path_15268" data-name="Path 15268" d="M-54.536,64.414S-82.92,49.331-25.088,34.044,42.073,4.839,27.271-6.171,1.2-49.294,71.268-59.929" transform="translate(61.5 59.929)" fill="none" stroke="#eaeaea" stroke-miterlimit="10" stroke-width="1"/>
                      <path id="Path_15269" data-name="Path 15269" d="M-27.536,64.414S-55.92,49.331,1.912,34.044,69.073,4.839,54.271-6.171s-26.069-43.123,44-53.758" transform="translate(57.624 59.929)" fill="none" stroke="#eaeaea" stroke-miterlimit="10" stroke-width="1"/>
                      <path id="Path_15270" data-name="Path 15270" d="M-.536,64.414S-28.92,49.331,28.912,34.044,96.073,4.839,81.271-6.171s-26.069-43.123,44-53.758" transform="translate(53.748 59.929)" fill="none" stroke="#eaeaea" stroke-miterlimit="10" stroke-width="1"/>
                      <path id="Path_15271" data-name="Path 15271" d="M26.465,64.414S-1.92,49.331,55.912,34.044s67.161-29.2,52.358-40.214-26.069-43.123,44-53.758" transform="translate(49.872 59.929)" fill="none" stroke="#eaeaea" stroke-miterlimit="10" stroke-width="1"/>
                      <path id="Path_15272" data-name="Path 15272" d="M53.465,64.414S25.08,49.331,82.912,34.044s67.161-29.2,52.358-40.214-26.069-43.123,44-53.758" transform="translate(45.996 59.929)" fill="none" stroke="#eaeaea" stroke-miterlimit="10" stroke-width="1"/>
                      <path id="Path_15273" data-name="Path 15273" d="M80.465,64.414S52.08,49.331,109.912,34.044s67.161-29.2,52.358-40.214-26.069-43.123,44-53.758" transform="translate(42.12 59.929)" fill="none" stroke="#eaeaea" stroke-miterlimit="10" stroke-width="1"/>
                      <path id="Path_15274" data-name="Path 15274" d="M107.465,64.414S79.08,49.331,136.912,34.044s67.161-29.2,52.358-40.214-26.069-43.123,44-53.758" transform="translate(38.243 59.929)" fill="none" stroke="#eaeaea" stroke-miterlimit="10" stroke-width="1"/>
                      <path id="Path_15275" data-name="Path 15275" d="M134.465,64.414S106.08,49.331,163.912,34.044s67.161-29.2,52.358-40.214-26.069-43.123,44-53.758" transform="translate(34.367 59.929)" fill="none" stroke="#eaeaea" stroke-miterlimit="10" stroke-width="1"/>
                      <path id="Path_15276" data-name="Path 15276" d="M161.465,64.414S133.08,49.331,190.912,34.044s67.161-29.2,52.358-40.214-26.069-43.123,44-53.758" transform="translate(30.491 59.929)" fill="none" stroke="#eaeaea" stroke-miterlimit="10" stroke-width="1"/>
                      <path id="Path_15277" data-name="Path 15277" d="M188.465,64.414S160.08,49.331,217.912,34.044s67.161-29.2,52.358-40.214-26.069-43.123,44-53.758" transform="translate(26.615 59.929)" fill="none" stroke="#eaeaea" stroke-miterlimit="10" stroke-width="1"/>
                      <path id="Path_15278" data-name="Path 15278" d="M215.465,64.414S187.08,49.331,244.912,34.044s67.161-29.2,52.358-40.214-26.069-43.123,44-53.758" transform="translate(22.739 59.929)" fill="none" stroke="#eaeaea" stroke-miterlimit="10" stroke-width="1"/>
                      <path id="Path_15279" data-name="Path 15279" d="M242.465,64.414S214.08,49.331,271.912,34.044s67.161-29.2,52.358-40.214-26.069-43.123,44-53.758" transform="translate(18.862 59.929)" fill="none" stroke="#eaeaea" stroke-miterlimit="10" stroke-width="1"/>
                      <path id="Path_15280" data-name="Path 15280" d="M269.465,64.414s-28.384-15.083,29.448-30.371,67.161-29.2,52.358-40.214-26.069-43.123,44-53.758" transform="translate(14.986 59.929)" fill="none" stroke="#eaeaea" stroke-miterlimit="10" stroke-width="1"/>
                      <path id="Path_15281" data-name="Path 15281" d="M296.465,64.414s-28.384-15.083,29.448-30.371,67.161-29.2,52.358-40.214-26.069-43.123,44-53.758" transform="translate(11.11 59.929)" fill="none" stroke="#eaeaea" stroke-miterlimit="10" stroke-width="1"/>
                      <path id="Path_15282" data-name="Path 15282" d="M323.465,64.414S295.08,49.331,352.912,34.044s67.161-29.2,52.358-40.214-26.069-43.123,44-53.758" transform="translate(7.234 59.929)" fill="none" stroke="#eaeaea" stroke-miterlimit="10" stroke-width="1"/>
                      <path id="Path_15283" data-name="Path 15283" d="M350.465,64.414S322.08,49.331,379.912,34.044s67.161-29.2,52.358-40.214-26.069-43.123,44-53.758" transform="translate(3.358 59.929)" fill="none" stroke="#eaeaea" stroke-miterlimit="10" stroke-width="1"/>
                      <path id="Path_15284" data-name="Path 15284" d="M377.464,64.414S349.08,49.331,406.912,34.044s67.161-29.2,52.358-40.214-26.069-43.123,44-53.758" transform="translate(-0.518 59.929)" fill="none" stroke="#eaeaea" stroke-miterlimit="10" stroke-width="1"/>
                      <path id="Path_15285" data-name="Path 15285" d="M404.465,64.414S376.08,49.331,433.912,34.044s67.161-29.2,52.358-40.214-26.069-43.123,44-53.758" transform="translate(-4.395 59.929)" fill="none" stroke="#eaeaea" stroke-miterlimit="10" stroke-width="1"/>
                      <path id="Path_15286" data-name="Path 15286" d="M431.465,64.414S403.08,49.331,460.912,34.044s67.161-29.2,52.358-40.214-26.069-43.123,44-53.758" transform="translate(-8.271 59.929)" fill="none" stroke="#eaeaea" stroke-miterlimit="10" stroke-width="1"/>
                      <path id="Path_15287" data-name="Path 15287" d="M458.464,64.414S430.08,49.331,487.912,34.044s67.161-29.2,52.358-40.214-26.069-43.123,44-53.758" transform="translate(-12.147 59.929)" fill="none" stroke="#eaeaea" stroke-miterlimit="10" stroke-width="1"/>
                    </g>
                  </g>
                </g>
                <rect id="Rectangle_4024" data-name="Rectangle 4024" width="72" height="321" transform="translate(325.406 4.321) rotate(90)" fill="none"/>
              </g>
            </g>
          </g>
          <path id="Subtraction_9" data-name="Subtraction 9" d="M95,80H8a8.009,8.009,0,0,1-8-8V8A8.009,8.009,0,0,1,8,0H95V15L81,23l14,8V80Z" transform="translate(-145 2589)" fill="#fed984"/>
        </g>
      </g>
      <g id="Group_7870" data-name="Group 7870" transform="translate(-246 58)">
        <g id="location_1_" data-name="location (1)" transform="translate(245.963 375.686)">
          <path id="Path_15040" data-name="Path 15040" d="M100.1,6.782a13.546,13.546,0,0,0-23.476.006,14.622,14.622,0,0,0,.019,14.6,46.342,46.342,0,0,0,5.512,7.266c2.725,3.084,5.079,5.824,5.079,8.839H89.5c0-3.021,2.347-5.749,5.065-8.819a46.38,46.38,0,0,0,5.479-7.2A14.694,14.694,0,0,0,100.1,6.782Z" transform="translate(0 0)" fill="#36aaff" stroke="#444" stroke-width="1"/>
          <path id="Path_15041" data-name="Path 15041" d="M261.911,26.946a43.584,43.584,0,0,0,5.149-6.769,14.339,14.339,0,0,0,0-14.086c-2.324-4.05-5.768-6.838-10.971-6.651V35.233h.53C256.619,32.393,259.358,29.83,261.911,26.946Z" transform="translate(-167.312 1.132)" fill="#1191eb"/>
          <path id="Path_15042" data-name="Path 15042" d="M159.011,482h-7.922v2.263h15.843V482Z" transform="translate(-70.646 -445.636)" fill="#80d4ff"/>
          <path id="Path_15043" data-name="Path 15043" d="M256.089,482h7.922v2.263h-7.922Z" transform="translate(-167.724 -445.636)" fill="#4da6ff"/>
        </g>
        <g id="browser" transform="translate(326.738 367.158)">
          <path id="Path_15093" data-name="Path 15093" d="M67.347,36.976v6.866a.851.851,0,0,1-.851.851H56.851A.851.851,0,0,1,56,43.841V36.976h0l3.4-3.4,1.106-1.106a1.645,1.645,0,0,1,2.327,0l1.106,1.106,3.4,3.4Z" transform="translate(-54.411 -15.514)" fill="#fff"/>
          <path id="Path_15094" data-name="Path 15094" d="M192.964,303.983h1.7a.964.964,0,0,1,.965.964v4.028H192v-4.028A.964.964,0,0,1,192.964,303.983Z" transform="translate(-186.553 -279.797)" fill="#e2e0e0"/>
          <path id="Path_15095" data-name="Path 15095" d="M222.808,36.974v6.866a.851.851,0,0,1-.851.851h-.382a.844.844,0,0,0,.1-.4V37.428l-4.51-4.51A1.64,1.64,0,0,0,216,32.436a1.645,1.645,0,0,1,2.3.028Z" transform="translate(-209.872 -15.512)" fill="#cecccc"/>
          <path id="Path_15096" data-name="Path 15096" d="M248.1,304.948v4.028h-1.135v-4.028a.964.964,0,0,0-.964-.964h1.135A.964.964,0,0,1,248.1,304.948Z" transform="translate(-239.021 -279.797)" fill="#cecccc"/>
          <path id="Path_15097" data-name="Path 15097" d="M14.392,22.276,8.747,16.631a2.1,2.1,0,0,0-2.969,0L.133,22.276a.454.454,0,0,0,.642.642l.36-.36v5.77a1.306,1.306,0,0,0,1.3,1.3h9.645a1.306,1.306,0,0,0,1.3-1.3v-5.77l.36.36a.454.454,0,0,0,.642-.642ZM5.9,28.725V25.15a.511.511,0,0,1,.511-.511h1.7a.511.511,0,0,1,.511.511v3.574Zm6.581-.4a.4.4,0,0,1-.4.4H9.532V25.15a1.42,1.42,0,0,0-1.418-1.418h-1.7A1.42,1.42,0,0,0,4.993,25.15v3.574H2.44a.4.4,0,0,1-.4-.4V21.65L6.42,17.273a1.193,1.193,0,0,1,1.685,0l4.377,4.377Z" transform="translate(0)"/>
        </g>
      </g>
    </g>
    <g id="Group_7876" data-name="Group 7876" transform="translate(-146.406 -1378.996)">
      <path id="Path_15293" data-name="Path 15293" d="M458.7,879.959c-.422-.083-.571-.117-5.411,2.154,5.609-3.229,5.556-3.3,5.15-3.849a.872.872,0,0,0-.521-.307c-.478-.094-.634-.131-7.861,3.279,1.662-.9,3.237-1.763,4.516-2.48,3.522-1.974,3.945-2.261,3.49-2.877a.9.9,0,0,0-.528-.311c-.547-.107-1.069.016-8.851,3.707,11.234-5.9,11.174-5.98,10.667-6.667a.9.9,0,0,0-.53-.312c-.4-.08-.854-.019-4.137,1.455,3.919-2.037,4.151-2.353,3.715-2.942a.887.887,0,0,0-.553-.323c-.8-.162-2.779.628-15.085,6.543,3.409-1.721,6.573-3.324,9.048-4.614,1.587-.827,2.743-1.447,3.532-1.9,1.138-.649,1.89-1.078,1.448-1.676a.949.949,0,0,0-.546-.32c-.446-.091-1.359.151-4.462,1.509.828-.43,1.519-.8,2.082-1.109,1.687-.935,2.477-1.412,2.007-2.048a.9.9,0,0,0-.56-.328c-.389-.077-1.217.129-3.03.861.937-.483,1.706-.893,2.324-1.239,1.57-.879,2.507-1.451,2.015-2.115a.94.94,0,0,0-.542-.319c-.354-.073-1.042.081-2.98.878,4.913-2.507,4.708-2.783,4.338-3.284a.94.94,0,0,0-.543-.318,4.749,4.749,0,0,0-2.037.512c4.209-2.159,4-2.439,3.653-2.914a.965.965,0,0,0-.548-.321c-.478-.1-1.685.275-5.025,1.737,4.274-2.233,4.054-2.531,3.7-3.006a.9.9,0,0,0-.563-.329,3.2,3.2,0,0,0-1.38.242c5.025-2.525,4.8-2.825,4.431-3.327a.9.9,0,0,0-.561-.328c-.385-.079-1.282.148-3.185.9,2.764-1.506,2.562-1.78,2.262-2.185a.947.947,0,0,0-.591-.344c-.571-.115-2.117.364-5.2,1.663,1.856-1.09,1.668-1.344,1.4-1.707a.912.912,0,0,0-.562-.329c-.495-.1-1.79.287-4.884,1.6,7.56-3.653,7.335-3.955,6.914-4.524a.9.9,0,0,0-.558-.327c-.727-.145-3.352.818-11.2,4.373,2.212-1.3,2.215-1.711,1.9-2.132a.974.974,0,0,0-.605-.351,7.149,7.149,0,0,0-2.809.661c2.581-1.452,2.6-1.856,2.293-2.276a.982.982,0,0,0-.608-.353c-.822-.165-3.52.772-9.154,3.245,1.731-1.043,1.54-1.3,1.278-1.657a.992.992,0,0,0-.617-.358c-.521-.1-1.779.222-3.984,1.063,1.286-.8,1.5-1.2,1.162-1.663a.919.919,0,0,0-.571-.334c-.671-.129-2.89.649-7.949,2.892,1.982-1.137,1.794-1.39,1.521-1.76a.9.9,0,0,0-.558-.327c-.621-.123-2.523.522-8,2.978,2.826-1.584,2.881-2.037,2.55-2.485a.978.978,0,0,0-.606-.351c-.661-.132-2.565.469-6.3,2.045,1.441-.908,1.259-1.153,1.019-1.479a.918.918,0,0,0-.57-.333c-.472-.093-1.81.3-4.424,1.377,3.58-1.855,3.375-2.135,3.04-2.588a.9.9,0,0,0-.558-.327c-.678-.138-2.913.657-9.677,3.725,3.68-1.9,3.475-2.176,3.139-2.63a.918.918,0,0,0-.568-.332c-.581-.115-2.415.495-6.391,2.217.677-.513.746-.837.48-1.2a.915.915,0,0,0-.564-.33c-.438-.089-1.59.24-3.85,1.149,2.918-1.587,2.713-1.865,2.412-2.274a.932.932,0,0,0-.579-.337c-.71-.14-3.19.747-8.68,3.192,1.532-1,1.51-1.381,1.225-1.766a.921.921,0,0,0-.57-.333c-.556-.106-2.251.446-5.893,2.024,1.773-1.094,1.771-1.483,1.485-1.87a.913.913,0,0,0-.563-.329c-.59-.123-2.589.574-7.068,2.549,1.288-.838,1.106-1.085.87-1.4a.949.949,0,0,0-.585-.341c-.564-.112-2.23.406-5.475,1.754,4.4-2.295,4.173-2.606,3.828-3.072a.958.958,0,0,0-.594-.345c-.791-.156-3.477.806-9.438,3.471,1.589-1,1.574-1.359,1.307-1.721a.934.934,0,0,0-.577-.337c-.639-.125-2.67.558-6.967,2.417,2.775-1.544,2.562-1.832,2.262-2.238a.954.954,0,0,0-.591-.344c-.673-.133-2.8.578-7.125,2.444,1.718-1.029,1.531-1.282,1.273-1.633a.908.908,0,0,0-.561-.329c-.548-.113-2.113.378-6.017,2.058,1.981-1.155,1.782-1.425,1.506-1.8a.977.977,0,0,0-.607-.351c-.58-.116-2.026.305-4.819,1.458,1.887-1.089,2.254-1.571,1.857-2.109a.939.939,0,0,0-.583-.34c-.518-.1-1.892.3-4.556,1.386,1.175-.705,1.442-1.1,1.092-1.57a.922.922,0,0,0-.568-.333c-.682-.137-3.09.728-8.455,3.1.684-.472.861-.817.565-1.217a.947.947,0,0,0-.588-.341c-.7-.136-2.714.561-7.306,2.621.669-.344,1.253-.651,1.758-.925,2.193-1.19,3.039-1.74,2.548-2.4a.941.941,0,0,0-.584-.34c-.884-.181-4.226,1.128-12,4.7,5.9-2.971,5.708-3.225,5.319-3.751a.929.929,0,0,0-.538-.317c-.535-.105-1.718.259-7.521,2.911q.667-.343,1.189-.625c1.761-.947,2.587-1.43,2.114-2.071a.91.91,0,0,0-.566-.33c-.584-.116-2.1.376-6.224,2.217.535-.282,1-.535,1.411-.761,1.679-.934,2.605-1.495,2.118-2.155a.9.9,0,0,0-.554-.324c-.9-.176-4.175,1.187-17.77,7.623,1.715-.847,3.29-1.631,4.652-2.32,1.63-.825,2.817-1.444,3.626-1.893,1.163-.645,1.931-1.072,1.484-1.677a.888.888,0,0,0-.552-.323c-.629-.123-2.115.376-8.668,3.421,5.823-2.988,5.681-3.18,5.277-3.727a.89.89,0,0,0-.526-.31c-.589-.12-1.22.059-12.115,5.221.692-.361,1.349-.705,1.957-1.027,4.7-2.491,4.942-2.744,4.483-3.366a.936.936,0,0,0-.542-.318c-.688-.134-1.971.347-12.017,5.172,9.686-5.129,9.586-5.263,9.1-5.92a.887.887,0,0,0-.525-.31c-.608-.122-1.191.059-12.724,5.537-.922.438-1.891.9-2.854,1.354l.033-.02c7.012-4.292,7.012-4.292,6.556-4.909a.9.9,0,0,0-.53-.311c-.515-.1-.852-.028-6.423,2.663,4.877-3.254,4.855-3.284,4.454-3.827a.858.858,0,0,0-.516-.305c-.478-.093-.539-.107-6.377,2.681l-.233.111c2.937-2.162,2.9-2.215,2.553-2.681a.835.835,0,0,0-.509-.3c-.4-.081-.4-.082-2.667,1-.677.323-1.586.757-1.871.87a.95.95,0,0,0-.205.066.569.569,0,0,0-.3.872.817.817,0,0,0,.458.29c-3.819,2.8-3.814,2.805-3.439,3.314a.861.861,0,0,0,.517.306c.448.089.539.106,5.2-2.11-4.9,3.273-4.881,3.305-4.478,3.85a.871.871,0,0,0,.524.308c.428.083.557.11,4.4-1.735-1.147.7-2.24,1.381-3.134,1.949-2.343,1.49-2.824,1.825-2.4,2.394a.87.87,0,0,0,.52.307c.478.1.639.126,7.875-3.287-2.376,1.252-4.572,2.415-6.321,3.37-3.883,2.119-4.237,2.4-3.787,3.01a.94.94,0,0,0,.544.318c.551.109,1.469-.17,6.759-2.658q-.614.32-1.174.616c-4.074,2.152-4.407,2.406-3.952,3.022a.919.919,0,0,0,.535.315c.432.086,1.176-.1,4.492-1.588-7.039,3.576-6.907,3.754-6.477,4.336a.916.916,0,0,0,.535.314c.5.1,1.361-.153,6.233-2.412-1.813.93-3.169,1.652-4.133,2.2-1.568.891-2.364,1.385-1.9,2.018a.916.916,0,0,0,.536.315c.586.116,1.849-.309,9.687-3.978-1.19.579-2.312,1.128-3.347,1.641-2.179,1.08-3.766,1.9-4.848,2.49-1.441.793-2.392,1.316-1.9,1.977a.961.961,0,0,0,.549.321,5.3,5.3,0,0,0,2.362-.627c-3.745,1.961-3.55,2.224-3.208,2.687a.97.97,0,0,0,.549.323c.629.126,2.57-.569,8.727-3.376-8.381,4.158-8.176,4.435-7.74,5.025a.948.948,0,0,0,.546.32c.64.126,2.525-.569,9.6-3.865-10.573,5.124-10.342,5.439-9.864,6.086a.961.961,0,0,0,.6.346,1.422,1.422,0,0,0,.433,0c-4.067,2.14-4.153,2.629-3.768,3.149a.962.962,0,0,0,.547.321c.44.086,1.552-.235,4.425-1.461-1.994,1.2-2,1.6-1.7,2.012a.9.9,0,0,0,.56.328c.56.114,2.082-.374,6.186-2.18-6.008,2.994-5.772,3.311-5.377,3.847a.987.987,0,0,0,.615.355,3.549,3.549,0,0,0,1.425-.2c-2.556,1.45-2.583,1.874-2.263,2.308a.9.9,0,0,0,.557.326c.576.116,2.377-.482,7.153-2.583-2.745,1.527-2.532,1.817-2.23,2.225a.928.928,0,0,0,.574.335c.7.142,3.05-.7,8.462-3.113-3.689,1.939-3.479,2.224-3.154,2.664a.911.911,0,0,0,.564.33c.564.115,2.329-.476,6.158-2.132-4.189,2.163-3.968,2.461-3.619,2.933a.978.978,0,0,0,.606.352c.756.15,3.154-.663,8.074-2.806-2.951,1.614-2.743,1.9-2.441,2.3a.91.91,0,0,0,.562.328c.553.113,2.157-.4,6.243-2.182-1.364.864-1.183,1.111-.938,1.442a.956.956,0,0,0,.592.345c.606.123,2.376-.431,5.83-1.872-1.2.8-1.153,1.125-.9,1.462a.986.986,0,0,0,.614.356c.666.134,2.568-.459,6.173-1.959-1.4.892-1.352,1.217-1.091,1.57a.96.96,0,0,0,.6.346c.694.139,2.879-.593,7.322-2.507-1.153.759-.983.988-.761,1.289a.9.9,0,0,0,.56.328,6.954,6.954,0,0,0,2.765-.736c-2.684,1.458-2.485,1.727-2.187,2.13a.948.948,0,0,0,.587.342c.663.13,2.823-.594,7.219-2.485-.943.709-.9,1.039-.67,1.357a.951.951,0,0,0,.589.343c.706.142,3.068-.667,7.939-2.775-.841.653-.8.967-.576,1.269a.913.913,0,0,0,.565.33c.45.094,1.655-.26,4.048-1.236-4.186,2.164-3.973,2.454-3.637,2.907a.942.942,0,0,0,.587.341.928.928,0,0,0,.181.016c.9,0,3.294-.876,8.121-3.017-1.748,1-2.063,1.436-1.682,1.952a.957.957,0,0,0,.6.346c.689.136,2.866-.58,7.259-2.46-.562.456-.607.758-.36,1.093a.944.944,0,0,0,.588.342c.557.112,2.075-.342,5.048-1.565C349.7,887.228,349.7,887.607,350,888a.9.9,0,0,0,.559.327c.653.129,2.706-.6,8.907-3.422-3.848,2.052-3.939,2.536-3.574,3.03a.925.925,0,0,0,.573.334c.564.11,2.256-.438,5.859-1.989-2.854,1.567-2.639,1.858-2.33,2.277a.935.935,0,0,0,.582.339c.788.155,3.474-.831,9.855-3.721-1.978,1.08-2.48,1.551-2.053,2.13a.9.9,0,0,0,.557.327c.479.1,1.788-.292,4.89-1.595-2.82,1.61-2.893,2.1-2.553,2.554a.938.938,0,0,0,.581.339c.745.145,3.311-.769,9.012-3.3-1.24.809-1.063,1.05-.825,1.371a.983.983,0,0,0,.609.353,4.922,4.922,0,0,0,2-.383c-2,1.178-1.8,1.451-1.522,1.823a.909.909,0,0,0,.565.33c.551.109,2.1-.369,5.979-2.043-.922.624-1.053.983-.752,1.39a.95.95,0,0,0,.589.342c.779.151,3.322-.758,9.03-3.317-2.1,1.189-1.925,1.432-1.644,1.812a.912.912,0,0,0,.567.331,6.708,6.708,0,0,0,2.771-.723c-2.151,1.231-1.957,1.494-1.673,1.878a.914.914,0,0,0,.563.33c.677.132,2.749-.589,8.778-3.315-1.689.913-2.462,1.406-2,2.029a.926.926,0,0,0,.537.316c.658.134,2.3-.451,12.385-5.16-2.2,1.091-3.809,1.921-4.911,2.535-1.524.849-2.433,1.4-1.949,2.057a.921.921,0,0,0,.537.316c.665.131,2.125-.405,12.523-5.332-10.852,5.289-10.726,5.46-10.235,6.124a.908.908,0,0,0,.532.314c.773.157,2.611-.6,20.323-9.023,1.38-.656,2.81-1.336,4.249-2.018-16.859,8.516-16.768,8.64-16.2,9.406a.962.962,0,0,0,.551.323c.566.113,1.594-.188,6.737-2.582-2.965,1.6-2.968,1.871-2.6,2.372a.891.891,0,0,0,.526.31c.645.132,1.414-.12,15.875-6.985l.435-.207c-2.989,1.566-5.972,3.133-8.218,4.347-1.375.743-2.377,1.3-3.064,1.708-1.027.607-1.706,1.009-1.279,1.586a.9.9,0,0,0,.533.313c.612.119,1.317-.076,12.2-5.263-1.726.937-3.368,1.833-4.692,2.575-3.523,1.974-3.944,2.262-3.49,2.877a.879.879,0,0,0,.522.308c.539.107.692.141,10.882-4.693-6,3.45-5.945,3.519-5.527,4.084a.858.858,0,0,0,.516.306c.5.1.584.116,8.266-3.529-4.716,2.858-4.681,2.906-4.285,3.441a.839.839,0,0,0,.509.3c.457.09.468.093,5.608-2.324,1.786-.841,4.2-1.979,4.739-2.175a.979.979,0,0,0,.242-.073.57.57,0,0,0,.3-.872.839.839,0,0,0-.509-.3c-.212-.043-.328-.067-.909.164.51-.312.989-.608,1.42-.878,2.159-1.352,2.672-1.673,2.248-2.246A.867.867,0,0,0,458.7,879.959Zm-21.269-28.807c-7.81,3.9-23.5,11.069-36.79,17.138l-.377.172C414.086,861.857,429.409,854.563,437.434,851.152Zm-8.687,1.279c-6.932,3.429-19.755,9.306-31.474,14.676q-3.327,1.524-6.312,2.9C404.508,863.528,420.4,855.965,428.746,852.431Zm-6.944.848c-4.827,2.328-11.2,5.287-17.872,8.35C410.607,858.462,416.93,855.49,421.8,853.279Zm-8.518-1.189c-7.339,3.755-23.119,10.945-36.426,17.008l-.925.421C389.771,862.889,405.533,855.356,413.285,852.09ZM397.8,856.783c-3.125,1.475-6.593,3.093-10.2,4.764C391.189,859.858,394.654,858.235,397.8,856.783Zm-11.118-2.089c-5.284,2.536-12.28,5.771-19.553,9.1C374.269,860.425,381.276,857.145,386.682,854.694Zm-6.706-1.835c-5.613,2.8-14.494,6.914-23.662,11.1C365.312,859.664,374.164,855.463,379.976,852.86Zm-7.4.929c-4.366,2.108-10.041,4.741-16.074,7.505C362.5,858.452,368.147,855.8,372.573,853.789Zm-29.616,11.267c8.71-4.124,17.24-8.123,23.3-10.823C360.227,857.135,351.552,861.128,342.957,865.056Zm21.988-12.892c-6.769,3.316-17.441,8.268-27.716,13.007C347.7,860.156,358.131,855.2,364.944,852.164Zm-8.207,1.23c-7.649,3.774-20.763,9.8-32.558,15.2C335.861,863.04,348.863,856.876,356.737,853.393Zm-5.491-.13c-7.743,3.8-20.829,9.833-32.242,15.089C330.624,862.807,343.408,856.726,351.247,853.264Zm-23.363,5.9c3.567-1.693,6.916-3.263,9.789-4.573C334.843,855.941,331.5,857.5,327.884,859.166Zm9.624-7.052c-7.452,3.743-21.308,10.1-33.113,15.52l-2.081.955,1.872-.892C315.942,862.091,329.739,855.511,337.507,852.115Zm-43.15,12.7c7.547-3.61,16.7-7.989,23.478-11.083-5.781,2.807-13.45,6.4-20.225,9.568l-4.193,1.964ZM294,866.48c-5.7,2.749-11.513,5.529-16.156,7.668C282.458,871.9,288.325,869.138,294,866.48Zm-2.228,5.633c-4.718,2.238-9.209,4.351-12.946,6.069C282.507,876.408,287.005,874.309,291.768,872.113Zm5.772.151c-7.582,3.64-14.961,7.137-20.121,9.425C282.468,879.228,289.89,875.784,297.54,872.264ZM280.365,882.5c4.875-2.336,11.126-5.229,17.6-8.2C291.47,877.37,285.27,880.27,280.365,882.5Zm6.541-.458c3.93-1.876,8.634-4.072,13.561-6.352C295.526,878.035,290.849,880.234,286.905,882.046Zm5.149,2.933c6.1-2.957,15.474-7.277,24.833-11.566C307.452,877.913,298.224,882.262,292.054,884.979Zm35.319-11.334c-8.293,3.924-16.269,7.656-22.02,10.211C311.049,881.128,319.113,877.418,327.373,873.645Zm-20.087,11.792c6.769-3.39,20.181-9.48,32.642-15.129C327.294,876.344,314.251,882.515,307.286,885.437Zm7.715-.99c5.793-2.813,14.738-6.911,23.748-11.012C329.642,877.759,320.861,881.876,315,884.447Zm20.356-4.672c-1.614.751-3.169,1.471-4.652,2.152C332.187,881.238,333.744,880.518,335.357,879.775Zm-7.463,5.819c7.991-4.156,26.649-12.648,41.117-19.233,3.055-1.391,5.849-2.663,8.4-3.829q-3.424,1.623-7.326,3.478C354.675,873.336,336.316,882.063,327.894,885.594Zm9.955-2.172c7.187-3.6,19.84-9.41,31.859-14.892C357.955,874.113,345.334,880.1,337.849,883.422Zm7.883,1.6c7.193-3.543,20.119-9.433,31.95-14.825l.089-.04C365.644,875.926,353.049,881.867,345.732,885.025Zm8.226-1.4c7.467-3.678,20.3-9.574,31.9-14.89C374.188,874.3,361.579,880.278,353.958,883.628Zm10.926.058c5.708-2.793,13.955-6.627,22.347-10.489C378.853,877.193,370.685,881.061,364.884,883.685Zm8.189-1.2c2.165-1.023,4.546-2.135,7.068-3.3C377.635,880.362,375.253,881.477,373.073,882.485Zm15.554.623c5.578-2.711,13.673-6.473,21.667-10.164C402.261,876.8,394.269,880.59,388.628,883.107Zm12.272-3.543q-1.553.727-3.041,1.418C398.845,880.521,399.862,880.046,400.9,879.564Zm-5.561,5c5.279-2.575,12.893-6.1,20.59-9.634C408.372,878.537,400.765,882.135,395.338,884.565Zm18.609-15.913c-13.319,6.34-29.092,13.847-36.983,17.226,8.116-4.2,26.275-12.487,41.558-19.459l3.136-1.432Q418.079,866.686,413.947,868.652Zm-9.915.7-3.6,1.646.255-.122c13.981-6.7,30.582-14.656,38.626-18.05C432.117,856.512,416.888,863.475,404.032,869.354Z" transform="translate(39.519 964.264)" fill="#fed984"/>
      <g id="Component_7_49" data-name="Component 7 – 49" transform="translate(320.406 1821.996)">
        <text id="Peta_Rumah_Tetangga" data-name="Peta Rumah &amp; Tetangga" transform="translate(81 16)" fill="#444" font-size="15" font-family="Roboto-Bold, Roboto" font-weight="700"><tspan x="-81.478" y="0">Peta Rumah &amp; Tetangga</tspan></text>
      </g>
    </g>
  </g>
</svg>
